<?xml version="1.0" encoding="utf-8"?>
<!-- Generator: Adobe Illustrator 24.3.0, SVG Export Plug-In . SVG Version: 6.00 Build 0)  -->
<svg version="1.1" id="Layer_1" xmlns="http://www.w3.org/2000/svg" xmlns:xlink="http://www.w3.org/1999/xlink" x="0px" y="0px"
	 viewBox="0 0 92.45 22.29" style="enable-background:new 0 0 92.45 22.29;" xml:space="preserve">
<style type="text/css">
	.st0{fill:#231F20;stroke:#231F20;stroke-miterlimit:10;}
	.st1{fill:none;}
	.st2{fill:none;stroke:#E1022B;stroke-width:2;}
	.st3{fill:none;stroke:#F4B449;stroke-width:2;}
	.st4{fill:none;stroke:#589D65;stroke-width:2;}
	.st5{fill:none;stroke:#E3598F;stroke-width:2;}
	.st6{fill:none;stroke:#22AD9A;stroke-width:2;}
	.st7{fill:none;stroke:#EE3A00;stroke-width:2;}
	.st8{fill:none;stroke:#E1022B;stroke-width:0.28;}
	.st9{fill:none;stroke:#F4B449;stroke-width:0.28;}
	.st10{fill:none;stroke:#589D65;stroke-width:0.28;}
	.st11{fill:none;stroke:#E3598F;stroke-width:0.28;}
	.st12{fill:none;stroke:#22AD9A;stroke-width:0.28;}
	.st13{fill:none;stroke:#EE3A00;stroke-width:0.28;}
	.st14{fill:none;stroke:#000000;}
	.st15{fill:#FFFFFF;stroke:#000000;}
	.st16{fill:#E1022B;}
	.st17{fill:#FFFFFF;}
	.st18{fill:#F4B449;}
	.st19{fill:none;stroke:#E1022B;}
	.st20{fill:#E3598F;}
	.st21{fill:#589D65;}
	.st22{fill:#EE3A00;}
	.st23{fill:#22AD9A;}
	.st24{fill:none;stroke:#E3598F;stroke-width:2;stroke-miterlimit:10;}
	.st25{fill:none;stroke:#E1022B;stroke-width:2;stroke-miterlimit:10;}
	.st26{fill:none;stroke:#F4B449;stroke-width:2;stroke-miterlimit:10;}
	.st27{fill:none;stroke:#589D65;stroke-width:2;stroke-miterlimit:10;}
	.st28{fill:#FFFFFF;stroke:#FFFFFF;stroke-miterlimit:10;}
	.st29{fill:#E1022B;stroke:#E1022B;stroke-width:0.28;}
	.st30{fill:#F4B449;stroke:#F4B449;stroke-width:0.28;}
	.st31{fill:#589D65;stroke:#589D65;stroke-width:0.28;}
	.st32{fill:#E3598F;stroke:#E3598F;stroke-width:0.28;}
	.st33{fill:#22AD9A;stroke:#22AD9A;stroke-width:0.28;}
	.st34{fill:#EE3A00;stroke:#EE3A00;stroke-width:0.28;}
	.st35{fill:#231F20;stroke:#F4B449;stroke-miterlimit:10;}
	.st36{fill:none;stroke:#F4B449;stroke-miterlimit:10;}
	.st37{fill:#231F20;stroke:#22AD9A;stroke-miterlimit:10;}
	.st38{fill:none;stroke:#22AD9A;stroke-miterlimit:10;}
	.st39{fill:#231F20;stroke:#EE3A00;stroke-miterlimit:10;}
	.st40{fill:none;stroke:#EE3A00;stroke-miterlimit:10;}
	.st41{fill:#231F20;stroke:#E3598F;stroke-miterlimit:10;}
	.st42{fill:none;stroke:#E3598F;stroke-miterlimit:10;}
	.st43{fill:#231F20;stroke:#589D65;stroke-miterlimit:10;}
	.st44{fill:none;stroke:#589D65;stroke-miterlimit:10;}
	.st45{fill:#231F20;stroke:#E1022B;stroke-miterlimit:10;}
	.st46{fill:none;stroke:#E1022B;stroke-miterlimit:10;}
	.st47{opacity:0.2;fill-rule:evenodd;clip-rule:evenodd;fill:#EFEAEB;}
	.st48{fill-rule:evenodd;clip-rule:evenodd;fill:#F4B449;}
	.st49{fill-rule:evenodd;clip-rule:evenodd;fill:#E1022B;}
	.st50{fill-rule:evenodd;clip-rule:evenodd;fill:#E3598F;}
	.st51{fill:none;stroke:#22AD9A;stroke-width:2;stroke-miterlimit:10;}
</style>
<path class="st29" d="M15.44,14.65c-0.06-0.31-0.15-0.61-0.26-0.9v0c-0.04-0.09-0.07-0.17-0.11-0.25c-0.09-0.19-0.18-0.36-0.29-0.53
	c-0.15-0.24-0.32-0.46-0.51-0.66c-0.17-0.18-0.35-0.34-0.54-0.5c-0.01-0.01-0.02-0.02-0.04-0.03c-0.23-0.17-0.47-0.32-0.73-0.44
	c-0.28-0.13-0.57-0.23-0.88-0.31c-0.14-0.03-0.28-0.06-0.43-0.08c0.24-0.04,0.47-0.1,0.68-0.17l0,0c0.51-0.16,0.95-0.39,1.33-0.68
	c0.54-0.42,0.95-0.94,1.21-1.53c0.07-0.17,0.14-0.34,0.19-0.52c0.13-0.44,0.2-0.89,0.2-1.37V6.64c0-0.35-0.02-0.69-0.07-1.01
	C15.16,5.29,15.1,4.97,15,4.67c-0.09-0.3-0.2-0.58-0.34-0.84c-0.01-0.02-0.02-0.04-0.03-0.05c-0.12-0.23-0.27-0.45-0.43-0.66
	c-0.16-0.2-0.34-0.39-0.54-0.56c-0.21-0.18-0.43-0.34-0.68-0.48c-0.09-0.05-0.19-0.11-0.29-0.16c-0.16-0.08-0.34-0.16-0.52-0.23
	c-0.28-0.11-0.59-0.19-0.91-0.26c-0.31-0.06-0.63-0.11-0.97-0.14c-0.27-0.02-0.54-0.03-0.83-0.03H1.63v19.88H9.7
	c0.13,0,0.26,0,0.38-0.01c0.47-0.02,0.92-0.08,1.34-0.17c0.49-0.11,0.94-0.27,1.37-0.49c0.29-0.15,0.56-0.32,0.81-0.5l0,0
	c0.34-0.26,0.64-0.56,0.89-0.89l0,0c0.12-0.16,0.23-0.33,0.33-0.5c0.28-0.49,0.48-1.03,0.59-1.61c0.08-0.39,0.11-0.8,0.11-1.23
	v-0.05C15.53,15.32,15.5,14.98,15.44,14.65z M4.41,9.68V3.84h4.55c0.36,0,0.69,0.02,0.99,0.07c0.35,0.05,0.66,0.14,0.93,0.25
	c0.27,0.11,0.5,0.25,0.7,0.42c0.01,0.01,0.02,0.02,0.03,0.02c0.2,0.18,0.36,0.38,0.49,0.61c0.14,0.25,0.24,0.55,0.3,0.87
	c0.04,0.22,0.06,0.46,0.06,0.72c0,0.15-0.01,0.29-0.02,0.43v0l0,0c-0.07,0.74-0.32,1.31-0.76,1.72c-0.4,0.37-0.95,0.6-1.64,0.68
	C9.82,9.67,9.59,9.68,9.34,9.68H4.41z M9.21,18.54c-0.18,0.01-0.36,0.02-0.55,0.02H4.41V12.2h4.94c0.14,0,0.27,0,0.4,0.01
	c0.37,0.02,0.7,0.08,1,0.17c0.19,0.06,0.37,0.13,0.53,0.21c0.1,0.05,0.19,0.11,0.28,0.17c0.24,0.16,0.43,0.35,0.6,0.57
	c0.09,0.12,0.16,0.24,0.22,0.38c0.05,0.11,0.1,0.23,0.15,0.36c0.1,0.3,0.16,0.62,0.19,0.98c0.01,0.13,0.02,0.26,0.02,0.4v0.04
	c0,0.29-0.03,0.57-0.09,0.82c-0.13,0.59-0.43,1.07-0.88,1.45c-0.3,0.25-0.68,0.44-1.14,0.57C10.2,18.44,9.74,18.51,9.21,18.54z"/>
<line class="st8" x1="14.49" y1="19.07" x2="13.59" y2="19.96"/>
<path class="st30" d="M33.78,21.04l-0.41-0.78l-0.4-0.76l-0.37-0.71l-0.41-0.78l-0.4-0.76l-0.39-0.73L31,15.76l-0.41-0.78l-0.4-0.76
	L29.8,13.5l-0.4-0.76l-0.15-0.29c0.25-0.08,0.49-0.17,0.73-0.28c0.09-0.04,0.18-0.09,0.27-0.14c0.87-0.47,1.55-1.15,2.03-2.02
	c0.05-0.1,0.1-0.2,0.15-0.3c0.25-0.52,0.42-1.08,0.5-1.69C32.97,7.69,33,7.35,33,6.99c0-0.07,0-0.14,0-0.2
	c-0.01-0.35-0.04-0.69-0.1-1.02c-0.06-0.32-0.13-0.63-0.24-0.93c-0.1-0.29-0.22-0.56-0.36-0.82c-0.01-0.01-0.01-0.03-0.02-0.04
	C32.15,3.74,32,3.52,31.84,3.31c-0.16-0.21-0.33-0.4-0.52-0.58c-0.2-0.19-0.42-0.36-0.65-0.52c-0.13-0.09-0.27-0.17-0.41-0.25
	c-0.11-0.06-0.23-0.12-0.35-0.17h0c-0.27-0.12-0.56-0.23-0.86-0.31c-0.3-0.08-0.61-0.14-0.93-0.18c-0.29-0.03-0.58-0.05-0.89-0.05
	h-7.89v19.89h2.79v-8.41h4.15l0.26,0.51l0.39,0.78l0.4,0.79l0.39,0.78l0.37,0.74l0.39,0.78l0.4,0.79l0.39,0.78l0.37,0.74l0.39,0.78
	l0.4,0.79l0.09,0.18h3.31L33.78,21.04z M27.34,10.08h-5.21V3.9h5.21c0.15,0,0.29,0.01,0.43,0.03c0.32,0.04,0.62,0.14,0.89,0.29
	c0.03,0.02,0.07,0.04,0.1,0.06c0.2,0.13,0.39,0.28,0.54,0.47c0.16,0.18,0.29,0.39,0.4,0.62c0.01,0.02,0.02,0.04,0.03,0.06
	c0.13,0.28,0.21,0.58,0.26,0.9c0.03,0.21,0.05,0.43,0.05,0.66c0,0.18-0.01,0.35-0.03,0.51c-0.04,0.41-0.15,0.78-0.31,1.11
	c-0.22,0.47-0.54,0.83-0.95,1.09c-0.39,0.24-0.83,0.37-1.32,0.38C27.39,10.08,27.37,10.08,27.34,10.08z"/>
<polygon class="st31" points="91.44,1.26 91.44,3.91 81.46,3.91 81.46,9.94 89.94,9.94 89.94,12.59 81.46,12.59 81.46,18.48 
	91.44,18.48 91.44,21.14 78.67,21.14 78.67,1.26 "/>
<path class="st32" d="M40.14,21.14h-2.79V1.26h2.79V21.14z"/>
<path class="st33" d="M57.88,8.38v5.63c0,0.32-0.01,0.62-0.04,0.92c-0.04,0.5-0.12,0.96-0.24,1.41v0c-0.15,0.55-0.35,1.06-0.61,1.52
	c-0.16,0.29-0.34,0.55-0.53,0.8c-0.27,0.34-0.58,0.65-0.92,0.92c-0.34,0.27-0.72,0.51-1.14,0.71c-0.38,0.19-0.79,0.34-1.23,0.47
	c-0.46,0.13-0.94,0.23-1.45,0.29c-0.38,0.04-0.78,0.07-1.19,0.08c-0.07,0-0.15,0-0.22,0h-6.29v-8.5h2.79v5.85h3.6
	c0.15,0,0.3,0,0.44-0.01c0.52-0.03,1-0.11,1.43-0.25c0.6-0.19,1.12-0.48,1.54-0.88c0.47-0.45,0.81-1,1-1.66
	c0.12-0.42,0.19-0.88,0.2-1.39c0-0.06,0-0.11,0-0.17V8.27c0-0.29-0.02-0.57-0.05-0.83c-0.04-0.34-0.12-0.65-0.22-0.94
	c-0.1-0.29-0.23-0.55-0.39-0.8c-0.15-0.23-0.33-0.45-0.53-0.64c0,0-0.01-0.01-0.01-0.01c-0.19-0.18-0.39-0.33-0.61-0.47
	c-0.24-0.15-0.51-0.27-0.8-0.37c-0.3-0.11-0.61-0.18-0.95-0.23c-0.33-0.05-0.68-0.07-1.05-0.07h-3.6v6.03h-2.79V1.26h6.3
	c0.14,0,0.27,0,0.4,0.01c0.38,0.01,0.74,0.04,1.08,0.08c0.33,0.04,0.64,0.1,0.95,0.17c0.32,0.07,0.62,0.16,0.91,0.26
	c0.26,0.09,0.51,0.2,0.75,0.32c0.03,0.01,0.05,0.03,0.08,0.04c0.26,0.13,0.5,0.27,0.73,0.43c0.22,0.15,0.42,0.31,0.61,0.49
	c0.2,0.18,0.39,0.38,0.57,0.6c0.18,0.22,0.34,0.45,0.49,0.7c0.03,0.06,0.07,0.12,0.1,0.18c0.11,0.19,0.2,0.39,0.29,0.6
	c0.11,0.26,0.21,0.54,0.29,0.82c0.09,0.31,0.15,0.63,0.2,0.96c0.05,0.35,0.09,0.71,0.1,1.09C57.88,8.12,57.88,8.25,57.88,8.38z"/>
<path class="st34" d="M74.37,1.26v8.67h-2.79V3.91h-3.6c-0.24,0-0.47,0.01-0.7,0.03c-0.56,0.05-1.07,0.17-1.52,0.35
	c-0.46,0.18-0.86,0.44-1.2,0.76c-0.39,0.37-0.69,0.81-0.89,1.32c-0.17,0.44-0.28,0.93-0.31,1.48c-0.01,0.14-0.01,0.27-0.01,0.42
	v5.85c0,0.24,0.01,0.47,0.04,0.69c0.03,0.33,0.1,0.63,0.19,0.92c0.09,0.29,0.21,0.56,0.35,0.81c0.14,0.25,0.31,0.47,0.51,0.67
	c0.04,0.04,0.08,0.08,0.12,0.12c0.16,0.15,0.33,0.29,0.52,0.4c0.23,0.15,0.47,0.27,0.74,0.38c0.28,0.11,0.59,0.19,0.91,0.25
	c0.34,0.06,0.7,0.1,1.08,0.1c0.05,0,0.11,0,0.17,0h3.6v-5.85h2.79v8.51h-6.29c-0.21,0-0.42-0.01-0.63-0.02
	c-0.35-0.02-0.69-0.05-1.01-0.09c-0.34-0.05-0.66-0.11-0.98-0.19s-0.61-0.17-0.9-0.28c-0.2-0.08-0.39-0.16-0.58-0.25
	c-0.08-0.04-0.15-0.08-0.22-0.11c-0.24-0.13-0.47-0.27-0.68-0.43c-0.23-0.16-0.44-0.34-0.64-0.53c-0.2-0.19-0.39-0.4-0.56-0.62
	c-0.17-0.22-0.32-0.45-0.46-0.7c-0.01-0.01-0.01-0.02-0.02-0.03c-0.13-0.23-0.24-0.46-0.34-0.71c-0.11-0.28-0.21-0.57-0.29-0.88
	c-0.08-0.32-0.14-0.65-0.19-1c-0.04-0.35-0.07-0.71-0.08-1.09c0-0.06,0-0.11,0-0.17V8.38c0-0.4,0.02-0.79,0.06-1.16
	c0.06-0.53,0.16-1.03,0.31-1.5c0.13-0.43,0.31-0.83,0.51-1.2c0.59-1.07,1.45-1.88,2.58-2.43c0.29-0.14,0.59-0.26,0.91-0.37
	c0.48-0.16,0.99-0.28,1.54-0.35c0.4-0.06,0.83-0.09,1.27-0.11c0.12,0,0.25-0.01,0.37-0.01H74.37z"/>
</svg>
