<?xml version="1.0" encoding="utf-8"?>
<!-- Generator: Adobe Illustrator 24.3.0, SVG Export Plug-In . SVG Version: 6.00 Build 0)  -->
<svg version="1.1" id="Layer_1" xmlns="http://www.w3.org/2000/svg" xmlns:xlink="http://www.w3.org/1999/xlink" x="0px" y="0px"
	 viewBox="0 0 648.16 649.24" style="enable-background:new 0 0 648.16 649.24;" xml:space="preserve">
<style type="text/css">
	.st0{fill:#231F20;stroke:#231F20;stroke-miterlimit:10;}
	.st1{fill:none;}
	.st2{fill:none;stroke:#E1022B;stroke-width:2;}
	.st3{fill:none;stroke:#F4B449;stroke-width:2;}
	.st4{fill:none;stroke:#589D65;stroke-width:2;}
	.st5{fill:none;stroke:#E3598F;stroke-width:2;}
	.st6{fill:none;stroke:#22AD9A;stroke-width:2;}
	.st7{fill:none;stroke:#EE3A00;stroke-width:2;}
	.st8{fill:none;stroke:#E1022B;stroke-width:0.28;}
	.st9{fill:none;stroke:#F4B449;stroke-width:0.28;}
	.st10{fill:none;stroke:#589D65;stroke-width:0.28;}
	.st11{fill:none;stroke:#E3598F;stroke-width:0.28;}
	.st12{fill:none;stroke:#22AD9A;stroke-width:0.28;}
	.st13{fill:none;stroke:#EE3A00;stroke-width:0.28;}
	.st14{fill:none;stroke:#000000;}
	.st15{fill:#FFFFFF;stroke:#000000;}
	.st16{fill:#E1022B;}
	.st17{fill:#FFFFFF;}
	.st18{fill:#F4B449;}
	.st19{fill:none;stroke:#E1022B;}
	.st20{fill:#E3598F;}
	.st21{fill:#589D65;}
	.st22{fill:#EE3A00;}
	.st23{fill:#22AD9A;}
	.st24{fill:none;stroke:#E3598F;stroke-width:2;stroke-miterlimit:10;}
	.st25{fill:none;stroke:#E1022B;stroke-width:2;stroke-miterlimit:10;}
	.st26{fill:none;stroke:#F4B449;stroke-width:2;stroke-miterlimit:10;}
	.st27{fill:none;stroke:#589D65;stroke-width:2;stroke-miterlimit:10;}
	.st28{fill:#FFFFFF;stroke:#FFFFFF;stroke-miterlimit:10;}
	.st29{fill:#E1022B;stroke:#E1022B;stroke-width:0.28;}
	.st30{fill:#F4B449;stroke:#F4B449;stroke-width:0.28;}
	.st31{fill:#589D65;stroke:#589D65;stroke-width:0.28;}
	.st32{fill:#E3598F;stroke:#E3598F;stroke-width:0.28;}
	.st33{fill:#22AD9A;stroke:#22AD9A;stroke-width:0.28;}
	.st34{fill:#EE3A00;stroke:#EE3A00;stroke-width:0.28;}
	.st35{fill:#231F20;stroke:#F4B449;stroke-miterlimit:10;}
	.st36{fill:none;stroke:#F4B449;stroke-miterlimit:10;}
	.st37{fill:#231F20;stroke:#22AD9A;stroke-miterlimit:10;}
	.st38{fill:none;stroke:#22AD9A;stroke-miterlimit:10;}
	.st39{fill:#231F20;stroke:#EE3A00;stroke-miterlimit:10;}
	.st40{fill:none;stroke:#EE3A00;stroke-miterlimit:10;}
	.st41{fill:#231F20;stroke:#E3598F;stroke-miterlimit:10;}
	.st42{fill:none;stroke:#E3598F;stroke-miterlimit:10;}
	.st43{fill:#231F20;stroke:#589D65;stroke-miterlimit:10;}
	.st44{fill:none;stroke:#589D65;stroke-miterlimit:10;}
	.st45{fill:#231F20;stroke:#E1022B;stroke-miterlimit:10;}
	.st46{fill:none;stroke:#E1022B;stroke-miterlimit:10;}
	.st47{opacity:0.2;fill-rule:evenodd;clip-rule:evenodd;fill:#EFEAEB;}
	.st48{fill-rule:evenodd;clip-rule:evenodd;fill:#F4B449;}
	.st49{fill-rule:evenodd;clip-rule:evenodd;fill:#E1022B;}
	.st50{fill-rule:evenodd;clip-rule:evenodd;fill:#E3598F;}
	.st51{fill:none;stroke:#22AD9A;stroke-width:2;stroke-miterlimit:10;}
</style>
<path class="st1" d="M151.78,117.22l-40.24,0c-2.27,0-4.46-0.09-6.59-0.29c-3.54-0.31-6.89-0.88-10.04-1.71H94.9
	c-3.93-1.05-7.57-2.5-10.89-4.35c-2.04-1.13-3.95-2.4-5.73-3.82c-2.44-1.93-4.62-4.11-6.56-6.56c-1.94-2.45-3.64-5.15-5.1-8.12
	c-1.34-2.74-2.46-5.66-3.34-8.78c-0.93-3.25-1.61-6.71-2.04-10.37c-0.32-2.72-0.51-5.55-0.55-8.5c-0.02-0.53-0.02-1.06-0.02-1.6
	l0-44.92l60.71,0v19.92l-41.77,0V63.8c0,1.07,0.03,2.11,0.09,3.13c0.2,3.74,0.79,7.15,1.76,10.23c1.35,4.32,3.46,7.99,6.31,11.01
	c3.18,3.38,7.14,5.77,11.86,7.16c3,0.89,6.31,1.38,9.93,1.46c0.4,0.02,0.8,0.02,1.2,0.02l41.8,0c2.08,0,4.06-0.13,5.94-0.39
	c2.41-0.32,4.66-0.85,6.74-1.6c2.05-0.72,3.94-1.65,5.68-2.78c1.66-1.07,3.18-2.33,4.55-3.78c0.03-0.03,0.06-0.06,0.09-0.09
	c1.25-1.33,2.36-2.79,3.33-4.38c1.06-1.74,1.95-3.64,2.65-5.69c0.75-2.11,1.29-4.38,1.65-6.81c0.35-2.34,0.52-4.84,0.52-7.49
	l0-25.68l-43.06,0V18.2l62.01,0l0,45.02c0,0.97-0.01,1.93-0.05,2.87c-0.08,2.68-0.27,5.26-0.59,7.74c-0.29,2.34-0.68,4.59-1.19,6.76
	c-0.51,2.25-1.14,4.41-1.88,6.47c-0.65,1.86-1.41,3.65-2.25,5.36c-0.09,0.18-0.18,0.37-0.29,0.55c-0.93,1.85-1.96,3.6-3.1,5.24
	c-1.08,1.56-2.24,3.02-3.5,4.39c-1.32,1.46-2.74,2.81-4.27,4.06c-1.55,1.27-3.21,2.44-4.97,3.49c-0.41,0.25-0.83,0.49-1.25,0.72
	c-1.38,0.77-2.81,1.46-4.29,2.09c-1.88,0.8-3.84,1.49-5.89,2.06c-2.2,0.61-4.49,1.1-6.88,1.45c-2.48,0.38-5.07,0.61-7.76,0.7
	C153.61,117.2,152.7,117.22,151.78,117.22z"/>
<line class="st24" x1="202.66" y1="24.65" x2="196.21" y2="18.2"/>
<line class="st24" x1="202.66" y1="33.11" x2="187.75" y2="18.2"/>
<line class="st24" x1="202.66" y1="41.46" x2="179.4" y2="18.2"/>
<line class="st24" x1="202.66" y1="49.35" x2="171.51" y2="18.2"/>
<polyline class="st24" points="202.66,57.68 183.71,38.73 183.1,38.12 163.18,18.2 "/>
<line class="st24" x1="202.61" y1="66.09" x2="183.71" y2="47.19"/>
<line class="st24" x1="174.64" y1="38.12" x2="154.72" y2="18.2"/>
<line class="st24" x1="202.02" y1="73.83" x2="183.71" y2="55.52"/>
<line class="st24" x1="166.31" y1="38.12" x2="146.39" y2="18.2"/>
<line class="st24" x1="200.83" y1="80.59" x2="183.71" y2="63.47"/>
<line class="st24" x1="158.35" y1="38.12" x2="140.65" y2="20.42"/>
<line class="st24" x1="198.95" y1="87.06" x2="183.19" y2="71.29"/>
<line class="st24" x1="150.02" y1="38.12" x2="140.65" y2="28.75"/>
<line class="st24" x1="196.41" y1="92.97" x2="181.54" y2="78.1"/>
<line class="st24" x1="141.56" y1="38.12" x2="140.65" y2="37.21"/>
<line class="st24" x1="193.31" y1="98.21" x2="178.89" y2="83.79"/>
<line class="st24" x1="121.38" y1="26.28" x2="113.3" y2="18.2"/>
<line class="st24" x1="189.81" y1="102.6" x2="175.47" y2="88.26"/>
<line class="st24" x1="121.38" y1="34.17" x2="105.41" y2="18.2"/>
<line class="st24" x1="185.54" y1="106.66" x2="170.92" y2="92.04"/>
<polyline class="st24" points="116.99,38.12 97.07,18.2 96.43,17.56 "/>
<line class="st24" x1="180.57" y1="110.15" x2="165.24" y2="94.82"/>
<line class="st24" x1="108.53" y1="38.12" x2="88.61" y2="18.2"/>
<line class="st24" x1="175.03" y1="112.96" x2="158.5" y2="96.42"/>
<line class="st24" x1="100.2" y1="38.12" x2="80.28" y2="18.2"/>
<line class="st24" x1="169.14" y1="115.02" x2="150.94" y2="96.81"/>
<line class="st24" x1="92.24" y1="38.12" x2="72.32" y2="18.2"/>
<line class="st24" x1="162.26" y1="116.47" x2="142.6" y2="96.81"/>
<line class="st24" x1="83.91" y1="38.12" x2="63.99" y2="18.2"/>
<line class="st24" x1="154.5" y1="117.17" x2="134.14" y2="96.81"/>
<line class="st24" x1="79.61" y1="42.28" x2="60.67" y2="23.34"/>
<line class="st24" x1="146.22" y1="117.22" x2="125.81" y2="96.81"/>
<line class="st24" x1="79.61" y1="50.61" x2="60.67" y2="31.67"/>
<line class="st24" x1="138.32" y1="117.22" x2="117.91" y2="96.81"/>
<line class="st24" x1="79.61" y1="58.51" x2="60.67" y2="39.57"/>
<line class="st24" x1="129.99" y1="117.22" x2="109.56" y2="96.79"/>
<line class="st24" x1="79.7" y1="66.93" x2="60.67" y2="47.9"/>
<line class="st24" x1="81.46" y1="77.16" x2="60.67" y2="56.37"/>
<line class="st24" x1="121.53" y1="117.22" x2="99.63" y2="95.33"/>
<line class="st24" x1="113.19" y1="117.22" x2="60.69" y2="64.72"/>
<line class="st24" x1="104.95" y1="116.93" x2="61.24" y2="73.22"/>
<polyline class="st24" points="63.28,83.59 94.9,115.22 94.91,115.22 "/>
<line class="st24" x1="78.28" y1="107.05" x2="71.72" y2="100.49"/>
<path class="st1" d="M202.66,235.01l-61.96,0l0-19.92l43.01,0v-25.68c0-1.72-0.07-3.38-0.23-4.98c-0.36-4.02-1.2-7.64-2.51-10.85
	c-1.32-3.27-3.13-6.11-5.41-8.54c-2.63-2.79-5.78-4.9-9.46-6.33c-3.14-1.24-6.65-1.97-10.56-2.22c-0.97-0.06-1.96-0.09-2.98-0.09
	h-41.8c-1.71,0-3.35,0.09-4.92,0.26c-2.34,0.25-4.53,0.69-6.57,1.33c-2.09,0.64-4.03,1.49-5.81,2.53c-1.75,1.02-3.36,2.24-4.81,3.64
	c-0.3,0.28-0.6,0.58-0.88,0.88c-1.07,1.14-2.04,2.37-2.89,3.69c-1.07,1.61-1.96,3.36-2.7,5.25c-0.78,2.02-1.39,4.19-1.81,6.53
	c-0.45,2.4-0.69,4.97-0.74,7.71c-0.02,0.39-0.02,0.79-0.02,1.19v25.68h41.82v19.92H60.67l0-44.92c0-1.52,0.04-3.02,0.11-4.48
	c0.12-2.49,0.34-4.9,0.67-7.23c0.34-2.42,0.79-4.74,1.35-6.98s1.24-4.38,2.03-6.43c0.54-1.42,1.14-2.8,1.79-4.13
	c0.27-0.54,0.54-1.07,0.82-1.6c0.93-1.72,1.94-3.35,3.06-4.89c1.15-1.62,2.41-3.14,3.79-4.55c1.37-1.45,2.86-2.78,4.45-4
	c1.57-1.22,3.24-2.32,5.02-3.32c0.08-0.05,0.17-0.09,0.25-0.14c1.62-0.91,3.32-1.71,5.09-2.42c2-0.81,4.09-1.5,6.28-2.05
	c2.28-0.58,4.65-1.03,7.13-1.33c2.5-0.32,5.1-0.5,7.8-0.54c0.41-0.01,0.82-0.01,1.23-0.01h40.24c2.87,0,5.63,0.15,8.28,0.46
	c3.79,0.43,7.35,1.17,10.68,2.22c3.05,0.96,5.91,2.19,8.58,3.67c7.62,4.23,13.41,10.38,17.38,18.45c1.01,2.06,1.89,4.22,2.65,6.49
	c1.13,3.42,1.97,7.08,2.52,10.98c0.41,2.89,0.66,5.92,0.75,9.08c0.03,0.87,0.04,1.76,0.04,2.65L202.66,235.01z"/>
<line class="st7" x1="199.35" y1="167.28" x2="170.74" y2="138.67"/>
<line class="st7" x1="201.87" y1="178.26" x2="160.06" y2="136.45"/>
<line class="st7" x1="202.62" y1="187.34" x2="151.27" y2="135.99"/>
<line class="st7" x1="202.66" y1="195.27" x2="180.97" y2="173.58"/>
<line class="st7" x1="166.1" y1="158.71" x2="143.38" y2="135.99"/>
<line class="st7" x1="202.66" y1="203.61" x2="183.48" y2="184.43"/>
<line class="st7" x1="155.54" y1="156.49" x2="135.03" y2="135.99"/>
<line class="st7" x1="202.66" y1="212.07" x2="183.71" y2="193.12"/>
<line class="st7" x1="146.99" y1="156.4" x2="126.58" y2="135.99"/>
<line class="st7" x1="202.66" y1="220.41" x2="183.71" y2="201.46"/>
<line class="st7" x1="138.65" y1="156.4" x2="118.24" y2="135.99"/>
<line class="st7" x1="202.66" y1="228.36" x2="183.71" y2="209.41"/>
<line class="st7" x1="130.71" y1="156.4" x2="110.31" y2="136"/>
<line class="st7" x1="200.98" y1="235.01" x2="181.06" y2="215.09"/>
<line class="st7" x1="122.37" y1="156.4" x2="102.51" y2="136.54"/>
<line class="st7" x1="192.52" y1="235.01" x2="172.6" y2="215.09"/>
<line class="st7" x1="113.91" y1="156.4" x2="95.38" y2="137.87"/>
<line class="st7" x1="184.19" y1="235.01" x2="164.27" y2="215.09"/>
<line class="st7" x1="105.84" y1="156.66" x2="89.1" y2="139.92"/>
<line class="st7" x1="176.29" y1="235.01" x2="156.37" y2="215.09"/>
<line class="st7" x1="99.27" y1="157.99" x2="83.76" y2="142.48"/>
<line class="st7" x1="167.95" y1="235.01" x2="148.03" y2="215.09"/>
<line class="st7" x1="93.46" y1="160.52" x2="78.74" y2="145.8"/>
<line class="st7" x1="159.49" y1="235.01" x2="140.7" y2="216.22"/>
<line class="st7" x1="88.65" y1="164.16" x2="74.29" y2="149.8"/>
<line class="st7" x1="151.16" y1="235.01" x2="140.7" y2="224.55"/>
<line class="st7" x1="84.88" y1="168.73" x2="70.5" y2="154.35"/>
<line class="st7" x1="143.21" y1="235.01" x2="140.7" y2="232.5"/>
<line class="st7" x1="82.18" y1="173.98" x2="67.44" y2="159.24"/>
<line class="st7" x1="121.43" y1="221.56" x2="114.96" y2="215.09"/>
<line class="st7" x1="80.37" y1="180.51" x2="64.83" y2="164.97"/>
<line class="st7" x1="121.43" y1="230.03" x2="106.49" y2="215.09"/>
<line class="st7" x1="79.63" y1="188.22" x2="62.8" y2="171.4"/>
<line class="st7" x1="118.08" y1="235.01" x2="98.16" y2="215.09"/>
<line class="st7" x1="79.61" y1="196.54" x2="61.45" y2="178.38"/>
<line class="st7" x1="110.18" y1="235.01" x2="90.26" y2="215.09"/>
<line class="st7" x1="79.61" y1="204.44" x2="60.78" y2="185.61"/>
<polyline class="st7" points="101.84,235.01 81.92,215.09 79.61,212.78 60.67,193.83 "/>
<line class="st7" x1="93.39" y1="235.01" x2="60.67" y2="202.29"/>
<line class="st7" x1="85.05" y1="235.01" x2="60.67" y2="210.63"/>
<line class="st7" x1="77.11" y1="235.01" x2="60.67" y2="218.57"/>
<line class="st7" x1="68.77" y1="235.01" x2="60.67" y2="226.91"/>
<line class="st7" x1="192.52" y1="153.35" x2="184.19" y2="145.02"/>
<path class="st1" d="M319.81,106.17v40.24c0,2.27-0.09,4.46-0.29,6.59c-0.31,3.54-0.88,6.89-1.71,10.04v0.01
	c-1.05,3.93-2.5,7.57-4.35,10.89c-1.13,2.04-2.4,3.95-3.82,5.73c-1.93,2.44-4.11,4.62-6.56,6.56c-2.45,1.94-5.15,3.64-8.12,5.1
	c-2.74,1.34-5.66,2.46-8.78,3.34c-3.25,0.93-6.71,1.61-10.37,2.04c-2.72,0.32-5.55,0.51-8.5,0.55c-0.53,0.02-1.06,0.02-1.6,0.02
	h-44.92v-60.71h19.92v41.77h25.68c1.07,0,2.11-0.03,3.13-0.09c3.74-0.2,7.15-0.79,10.23-1.76c4.32-1.35,7.99-3.46,11.01-6.31
	c3.38-3.18,5.77-7.14,7.16-11.86c0.89-3,1.38-6.31,1.46-9.93c0.02-0.4,0.02-0.8,0.02-1.2v-41.8c0-2.08-0.13-4.06-0.39-5.94
	c-0.32-2.41-0.85-4.66-1.6-6.74c-0.72-2.05-1.65-3.94-2.78-5.68c-1.07-1.66-2.33-3.18-3.78-4.55c-0.03-0.03-0.06-0.06-0.09-0.09
	c-1.33-1.25-2.79-2.36-4.38-3.33c-1.74-1.06-3.64-1.95-5.69-2.65c-2.11-0.75-4.38-1.29-6.81-1.65c-2.34-0.35-4.84-0.52-7.49-0.52
	h-25.68v43.06h-19.92V55.29h45.02c0.97,0,1.93,0.01,2.87,0.05c2.68,0.08,5.26,0.27,7.74,0.59c2.34,0.29,4.59,0.68,6.76,1.19
	c2.25,0.51,4.41,1.14,6.47,1.88c1.86,0.65,3.65,1.41,5.36,2.25c0.18,0.09,0.37,0.18,0.55,0.29c1.85,0.93,3.6,1.96,5.24,3.1
	c1.56,1.08,3.02,2.24,4.39,3.5c1.46,1.32,2.81,2.74,4.06,4.27c1.27,1.55,2.44,3.21,3.49,4.97c0.25,0.41,0.49,0.83,0.72,1.25
	c0.77,1.38,1.46,2.81,2.09,4.29c0.8,1.88,1.49,3.84,2.06,5.89c0.61,2.2,1.1,4.49,1.45,6.88c0.38,2.48,0.61,5.07,0.7,7.76
	C319.79,104.34,319.81,105.25,319.81,106.17z"/>
<line class="st25" x1="227.24" y1="55.29" x2="220.79" y2="61.74"/>
<line class="st25" x1="235.7" y1="55.29" x2="220.79" y2="70.2"/>
<line class="st25" x1="244.05" y1="55.29" x2="220.79" y2="78.55"/>
<line class="st25" x1="251.94" y1="55.29" x2="220.79" y2="86.44"/>
<polyline class="st25" points="260.27,55.29 241.32,74.24 240.71,74.85 220.79,94.77 "/>
<line class="st25" x1="268.68" y1="55.34" x2="249.78" y2="74.24"/>
<line class="st25" x1="240.71" y1="83.31" x2="220.79" y2="103.23"/>
<line class="st25" x1="276.42" y1="55.93" x2="258.11" y2="74.24"/>
<line class="st25" x1="240.71" y1="91.64" x2="220.79" y2="111.56"/>
<line class="st25" x1="283.18" y1="57.12" x2="266.06" y2="74.24"/>
<line class="st25" x1="240.71" y1="99.6" x2="223.01" y2="117.3"/>
<line class="st25" x1="289.65" y1="59" x2="273.88" y2="74.76"/>
<line class="st25" x1="240.71" y1="107.93" x2="231.34" y2="117.3"/>
<line class="st25" x1="295.56" y1="61.54" x2="280.69" y2="76.41"/>
<line class="st25" x1="240.71" y1="116.39" x2="239.8" y2="117.3"/>
<line class="st25" x1="300.8" y1="64.64" x2="286.38" y2="79.06"/>
<line class="st25" x1="228.87" y1="136.57" x2="220.79" y2="144.65"/>
<line class="st25" x1="305.19" y1="68.14" x2="290.85" y2="82.48"/>
<line class="st25" x1="236.76" y1="136.57" x2="220.79" y2="152.54"/>
<line class="st25" x1="309.25" y1="72.41" x2="294.63" y2="87.03"/>
<polyline class="st25" points="240.71,140.96 220.79,160.88 220.15,161.52 "/>
<line class="st25" x1="312.74" y1="77.38" x2="297.41" y2="92.71"/>
<line class="st25" x1="240.71" y1="149.42" x2="220.79" y2="169.34"/>
<line class="st25" x1="315.55" y1="82.92" x2="299.01" y2="99.45"/>
<line class="st25" x1="240.71" y1="157.75" x2="220.79" y2="177.67"/>
<line class="st25" x1="317.61" y1="88.81" x2="299.4" y2="107.01"/>
<line class="st25" x1="240.71" y1="165.71" x2="220.79" y2="185.63"/>
<line class="st25" x1="319.06" y1="95.69" x2="299.4" y2="115.35"/>
<line class="st25" x1="240.71" y1="174.04" x2="220.79" y2="193.96"/>
<line class="st25" x1="319.76" y1="103.45" x2="299.4" y2="123.81"/>
<line class="st25" x1="244.87" y1="178.34" x2="225.93" y2="197.28"/>
<line class="st25" x1="319.81" y1="111.73" x2="299.4" y2="132.14"/>
<line class="st25" x1="253.2" y1="178.34" x2="234.26" y2="197.28"/>
<line class="st25" x1="319.81" y1="119.63" x2="299.4" y2="140.04"/>
<line class="st25" x1="261.1" y1="178.34" x2="242.16" y2="197.28"/>
<line class="st25" x1="319.81" y1="127.96" x2="299.38" y2="148.39"/>
<line class="st25" x1="269.52" y1="178.25" x2="250.49" y2="197.28"/>
<line class="st25" x1="279.75" y1="176.49" x2="258.96" y2="197.28"/>
<line class="st25" x1="319.81" y1="136.42" x2="297.92" y2="158.32"/>
<line class="st25" x1="319.81" y1="144.76" x2="267.31" y2="197.26"/>
<line class="st25" x1="319.52" y1="153" x2="275.81" y2="196.71"/>
<polyline class="st25" points="286.18,194.67 317.81,163.05 317.81,163.04 "/>
<line class="st25" x1="309.64" y1="179.67" x2="303.08" y2="186.23"/>
<path class="st1" d="M437.6,55.29v61.96h-19.92V74.24H392c-1.72,0-3.38,0.07-4.98,0.23c-4.02,0.36-7.64,1.2-10.85,2.51
	c-3.27,1.32-6.11,3.13-8.54,5.41c-2.79,2.63-4.9,5.78-6.33,9.46c-1.24,3.14-1.97,6.65-2.22,10.56c-0.06,0.97-0.09,1.96-0.09,2.98
	v41.8c0,1.71,0.09,3.35,0.26,4.92c0.25,2.34,0.69,4.53,1.33,6.57c0.64,2.09,1.49,4.03,2.53,5.81c1.02,1.75,2.24,3.36,3.64,4.81
	c0.28,0.3,0.58,0.6,0.88,0.88c1.14,1.07,2.37,2.04,3.69,2.89c1.61,1.07,3.36,1.96,5.25,2.7c2.02,0.78,4.19,1.39,6.53,1.81
	c2.4,0.45,4.97,0.69,7.71,0.74c0.39,0.02,0.79,0.02,1.19,0.02h25.68v-41.82h19.92v60.76h-44.92c-1.52,0-3.02-0.04-4.48-0.11
	c-2.49-0.12-4.9-0.34-7.23-0.67c-2.42-0.34-4.74-0.79-6.98-1.35s-4.38-1.24-6.43-2.03c-1.42-0.54-2.8-1.14-4.13-1.79
	c-0.54-0.27-1.07-0.54-1.6-0.82c-1.72-0.93-3.35-1.94-4.89-3.06c-1.62-1.15-3.14-2.41-4.55-3.79c-1.45-1.37-2.78-2.86-4-4.45
	c-1.22-1.57-2.32-3.24-3.32-5.02c-0.05-0.08-0.09-0.17-0.14-0.25c-0.91-1.62-1.71-3.32-2.42-5.09c-0.81-2-1.5-4.09-2.05-6.28
	c-0.58-2.28-1.03-4.65-1.33-7.13c-0.32-2.5-0.5-5.1-0.54-7.8c-0.01-0.41-0.01-0.82-0.01-1.23v-40.24c0-2.87,0.15-5.63,0.46-8.28
	c0.43-3.79,1.17-7.35,2.22-10.68c0.96-3.05,2.19-5.91,3.67-8.58c4.23-7.62,10.38-13.41,18.45-17.38c2.06-1.01,4.22-1.89,6.49-2.65
	c3.42-1.13,7.08-1.97,10.98-2.52c2.89-0.41,5.92-0.66,9.08-0.75c0.87-0.03,1.76-0.04,2.65-0.04H437.6z"/>
<line class="st26" x1="369.87" y1="58.6" x2="341.26" y2="87.21"/>
<line class="st26" x1="380.85" y1="56.08" x2="339.04" y2="97.89"/>
<line class="st26" x1="389.93" y1="55.33" x2="338.58" y2="106.68"/>
<line class="st26" x1="397.86" y1="55.29" x2="376.17" y2="76.98"/>
<line class="st26" x1="361.3" y1="91.85" x2="338.58" y2="114.57"/>
<line class="st26" x1="406.2" y1="55.29" x2="387.02" y2="74.47"/>
<line class="st26" x1="359.08" y1="102.41" x2="338.58" y2="122.92"/>
<line class="st26" x1="414.66" y1="55.29" x2="395.71" y2="74.24"/>
<line class="st26" x1="358.99" y1="110.96" x2="338.58" y2="131.37"/>
<line class="st26" x1="423" y1="55.29" x2="404.05" y2="74.24"/>
<line class="st26" x1="358.99" y1="119.3" x2="338.58" y2="139.71"/>
<line class="st26" x1="430.95" y1="55.29" x2="412" y2="74.24"/>
<line class="st26" x1="358.99" y1="127.24" x2="338.59" y2="147.64"/>
<line class="st26" x1="437.6" y1="56.97" x2="417.68" y2="76.89"/>
<line class="st26" x1="358.99" y1="135.58" x2="339.13" y2="155.44"/>
<line class="st26" x1="437.6" y1="65.43" x2="417.68" y2="85.35"/>
<line class="st26" x1="358.99" y1="144.04" x2="340.46" y2="162.57"/>
<line class="st26" x1="437.6" y1="73.76" x2="417.68" y2="93.68"/>
<line class="st26" x1="359.25" y1="152.11" x2="342.51" y2="168.85"/>
<line class="st26" x1="437.6" y1="81.66" x2="417.68" y2="101.58"/>
<line class="st26" x1="360.58" y1="158.68" x2="345.07" y2="174.19"/>
<line class="st26" x1="437.6" y1="90" x2="417.68" y2="109.92"/>
<line class="st26" x1="363.11" y1="164.49" x2="348.39" y2="179.21"/>
<line class="st26" x1="437.6" y1="98.46" x2="418.81" y2="117.25"/>
<line class="st26" x1="366.75" y1="169.3" x2="352.39" y2="183.66"/>
<line class="st26" x1="437.6" y1="106.79" x2="427.14" y2="117.25"/>
<line class="st26" x1="371.32" y1="173.07" x2="356.94" y2="187.45"/>
<line class="st26" x1="437.6" y1="114.74" x2="435.09" y2="117.25"/>
<line class="st26" x1="376.57" y1="175.77" x2="361.83" y2="190.51"/>
<line class="st26" x1="424.15" y1="136.52" x2="417.68" y2="142.99"/>
<line class="st26" x1="383.1" y1="177.58" x2="367.56" y2="193.12"/>
<line class="st26" x1="432.62" y1="136.52" x2="417.68" y2="151.46"/>
<line class="st26" x1="390.81" y1="178.32" x2="373.99" y2="195.15"/>
<line class="st26" x1="437.6" y1="139.87" x2="417.68" y2="159.79"/>
<line class="st26" x1="399.13" y1="178.34" x2="380.97" y2="196.5"/>
<line class="st26" x1="437.6" y1="147.77" x2="417.68" y2="167.69"/>
<line class="st26" x1="407.03" y1="178.34" x2="388.2" y2="197.17"/>
<polyline class="st26" points="437.6,156.11 417.68,176.03 415.37,178.34 396.42,197.28 "/>
<line class="st26" x1="437.6" y1="164.56" x2="404.88" y2="197.28"/>
<line class="st26" x1="437.6" y1="172.9" x2="413.22" y2="197.28"/>
<line class="st26" x1="437.6" y1="180.84" x2="421.16" y2="197.28"/>
<line class="st26" x1="437.6" y1="189.18" x2="429.5" y2="197.28"/>
<line class="st26" x1="355.94" y1="65.43" x2="347.61" y2="73.76"/>
<path class="st1" d="M546.49,117.22l-40.24,0c-2.27,0-4.46-0.09-6.59-0.29c-3.54-0.31-6.89-0.88-10.04-1.71h-0.01
	c-3.93-1.05-7.57-2.5-10.89-4.35c-2.04-1.13-3.95-2.4-5.73-3.82c-2.44-1.93-4.62-4.11-6.56-6.56c-1.94-2.45-3.64-5.15-5.1-8.12
	c-1.34-2.74-2.46-5.66-3.34-8.78c-0.93-3.25-1.61-6.71-2.04-10.37c-0.32-2.72-0.51-5.55-0.55-8.5c-0.02-0.53-0.02-1.06-0.02-1.6
	l0-44.92l60.71,0v19.92l-41.77,0l0,25.68c0,1.07,0.03,2.11,0.09,3.13c0.2,3.74,0.79,7.15,1.76,10.23c1.35,4.32,3.46,7.99,6.31,11.01
	c3.18,3.38,7.14,5.77,11.86,7.16c3,0.89,6.31,1.38,9.93,1.46c0.4,0.02,0.8,0.02,1.2,0.02l41.8,0c2.08,0,4.06-0.13,5.94-0.39
	c2.41-0.32,4.66-0.85,6.74-1.6c2.05-0.72,3.94-1.65,5.68-2.78c1.66-1.07,3.18-2.33,4.55-3.78c0.03-0.03,0.06-0.06,0.09-0.09
	c1.25-1.33,2.36-2.79,3.33-4.38c1.06-1.74,1.95-3.64,2.65-5.69c0.75-2.11,1.29-4.38,1.65-6.81c0.35-2.34,0.52-4.84,0.52-7.49V38.12
	l-43.06,0V18.2l62.01,0v45.02c0,0.97-0.01,1.93-0.05,2.87c-0.08,2.68-0.27,5.26-0.59,7.74c-0.29,2.34-0.68,4.59-1.19,6.76
	c-0.51,2.25-1.14,4.41-1.88,6.47c-0.65,1.86-1.41,3.65-2.25,5.36c-0.09,0.18-0.18,0.37-0.29,0.55c-0.93,1.85-1.96,3.6-3.1,5.24
	c-1.08,1.56-2.24,3.02-3.5,4.39c-1.32,1.46-2.74,2.81-4.27,4.06c-1.55,1.27-3.21,2.44-4.97,3.49c-0.41,0.25-0.83,0.49-1.25,0.72
	c-1.38,0.77-2.81,1.46-4.29,2.09c-1.88,0.8-3.84,1.49-5.89,2.06c-2.2,0.61-4.49,1.1-6.88,1.45c-2.48,0.38-5.07,0.61-7.76,0.7
	C548.32,117.2,547.41,117.22,546.49,117.22z"/>
<line class="st6" x1="597.37" y1="24.65" x2="590.92" y2="18.2"/>
<line class="st6" x1="597.37" y1="33.11" x2="582.46" y2="18.2"/>
<line class="st6" x1="597.37" y1="41.46" x2="574.11" y2="18.2"/>
<line class="st6" x1="597.37" y1="49.35" x2="566.22" y2="18.2"/>
<polyline class="st6" points="597.37,57.68 578.42,38.73 577.81,38.12 557.89,18.2 "/>
<line class="st6" x1="597.32" y1="66.09" x2="578.42" y2="47.19"/>
<line class="st6" x1="569.35" y1="38.12" x2="549.43" y2="18.2"/>
<line class="st6" x1="596.73" y1="73.83" x2="578.42" y2="55.52"/>
<line class="st6" x1="561.02" y1="38.12" x2="541.1" y2="18.2"/>
<line class="st6" x1="595.54" y1="80.59" x2="578.42" y2="63.47"/>
<line class="st6" x1="553.06" y1="38.12" x2="535.36" y2="20.42"/>
<line class="st6" x1="593.66" y1="87.06" x2="577.9" y2="71.29"/>
<line class="st6" x1="544.73" y1="38.12" x2="535.36" y2="28.75"/>
<line class="st6" x1="591.12" y1="92.97" x2="576.25" y2="78.1"/>
<line class="st6" x1="536.27" y1="38.12" x2="535.36" y2="37.21"/>
<line class="st6" x1="588.02" y1="98.21" x2="573.6" y2="83.79"/>
<line class="st6" x1="516.09" y1="26.28" x2="508.01" y2="18.2"/>
<line class="st6" x1="584.52" y1="102.6" x2="570.18" y2="88.26"/>
<line class="st6" x1="516.09" y1="34.17" x2="500.12" y2="18.2"/>
<line class="st6" x1="580.25" y1="106.66" x2="565.63" y2="92.04"/>
<polyline class="st6" points="511.7,38.12 491.78,18.2 491.14,17.56 "/>
<line class="st6" x1="575.28" y1="110.15" x2="559.95" y2="94.82"/>
<line class="st6" x1="503.24" y1="38.12" x2="483.32" y2="18.2"/>
<line class="st6" x1="569.74" y1="112.96" x2="553.21" y2="96.42"/>
<line class="st6" x1="494.91" y1="38.12" x2="474.99" y2="18.2"/>
<line class="st6" x1="563.85" y1="115.02" x2="545.65" y2="96.81"/>
<line class="st6" x1="486.95" y1="38.12" x2="467.03" y2="18.2"/>
<line class="st6" x1="556.97" y1="116.47" x2="537.31" y2="96.81"/>
<line class="st6" x1="478.62" y1="38.12" x2="458.7" y2="18.2"/>
<line class="st6" x1="549.21" y1="117.17" x2="528.85" y2="96.81"/>
<line class="st6" x1="474.32" y1="42.28" x2="455.38" y2="23.34"/>
<line class="st6" x1="540.93" y1="117.22" x2="520.52" y2="96.81"/>
<line class="st6" x1="474.32" y1="50.61" x2="455.38" y2="31.67"/>
<line class="st6" x1="533.03" y1="117.22" x2="512.62" y2="96.81"/>
<line class="st6" x1="474.32" y1="58.51" x2="455.38" y2="39.57"/>
<line class="st6" x1="524.7" y1="117.22" x2="504.27" y2="96.79"/>
<line class="st6" x1="474.41" y1="66.93" x2="455.38" y2="47.9"/>
<line class="st6" x1="476.17" y1="77.16" x2="455.38" y2="56.37"/>
<line class="st6" x1="516.24" y1="117.22" x2="494.34" y2="95.33"/>
<line class="st6" x1="507.9" y1="117.22" x2="455.4" y2="64.72"/>
<line class="st6" x1="499.66" y1="116.93" x2="455.95" y2="73.22"/>
<polyline class="st6" points="457.99,83.59 489.61,115.22 489.62,115.22 "/>
<line class="st6" x1="472.99" y1="107.05" x2="466.43" y2="100.49"/>
<path class="st1" d="M597.37,235.01l-61.96,0l0-19.92l43.01,0v-25.68c0-1.72-0.07-3.38-0.23-4.98c-0.36-4.02-1.2-7.64-2.51-10.85
	c-1.32-3.27-3.13-6.11-5.41-8.54c-2.63-2.79-5.78-4.9-9.46-6.33c-3.14-1.24-6.65-1.97-10.56-2.22c-0.97-0.06-1.96-0.09-2.98-0.09
	h-41.8c-1.71,0-3.35,0.09-4.92,0.26c-2.34,0.25-4.53,0.69-6.57,1.33c-2.09,0.64-4.03,1.49-5.81,2.53c-1.75,1.02-3.36,2.24-4.81,3.64
	c-0.3,0.28-0.6,0.58-0.88,0.88c-1.07,1.14-2.04,2.37-2.89,3.69c-1.07,1.61-1.96,3.36-2.7,5.25c-0.78,2.02-1.39,4.19-1.81,6.53
	c-0.45,2.4-0.69,4.97-0.74,7.71c-0.02,0.39-0.02,0.79-0.02,1.19v25.68h41.82l0,19.92h-60.76v-44.92c0-1.52,0.04-3.02,0.11-4.48
	c0.12-2.49,0.34-4.9,0.67-7.23c0.34-2.42,0.79-4.74,1.35-6.98s1.24-4.38,2.03-6.43c0.54-1.42,1.14-2.8,1.79-4.13
	c0.27-0.54,0.54-1.07,0.82-1.6c0.93-1.72,1.94-3.35,3.06-4.89c1.15-1.62,2.41-3.14,3.79-4.55c1.37-1.45,2.86-2.78,4.45-4
	c1.57-1.22,3.24-2.32,5.02-3.32c0.08-0.05,0.17-0.09,0.25-0.14c1.62-0.91,3.32-1.71,5.09-2.42c2-0.81,4.09-1.5,6.28-2.05
	c2.28-0.58,4.65-1.03,7.13-1.33c2.5-0.32,5.1-0.5,7.8-0.54c0.41-0.01,0.82-0.01,1.23-0.01h40.24c2.87,0,5.63,0.15,8.28,0.46
	c3.79,0.43,7.35,1.17,10.68,2.22c3.05,0.96,5.91,2.19,8.58,3.67c7.62,4.23,13.41,10.38,17.38,18.45c1.01,2.06,1.89,4.22,2.65,6.49
	c1.13,3.42,1.97,7.08,2.52,10.98c0.41,2.89,0.66,5.92,0.75,9.08c0.03,0.87,0.04,1.76,0.04,2.65L597.37,235.01z"/>
<line class="st27" x1="594.06" y1="167.28" x2="565.45" y2="138.67"/>
<line class="st27" x1="596.58" y1="178.26" x2="554.77" y2="136.45"/>
<line class="st27" x1="597.33" y1="187.34" x2="545.98" y2="135.99"/>
<line class="st27" x1="597.37" y1="195.27" x2="575.68" y2="173.58"/>
<line class="st27" x1="560.81" y1="158.71" x2="538.09" y2="135.99"/>
<line class="st27" x1="597.37" y1="203.61" x2="578.19" y2="184.43"/>
<line class="st27" x1="550.25" y1="156.49" x2="529.74" y2="135.99"/>
<line class="st27" x1="597.37" y1="212.07" x2="578.42" y2="193.12"/>
<line class="st27" x1="541.7" y1="156.4" x2="521.29" y2="135.99"/>
<line class="st27" x1="597.37" y1="220.41" x2="578.42" y2="201.46"/>
<line class="st27" x1="533.36" y1="156.4" x2="512.95" y2="135.99"/>
<line class="st27" x1="597.37" y1="228.36" x2="578.42" y2="209.41"/>
<line class="st27" x1="525.42" y1="156.4" x2="505.02" y2="136"/>
<line class="st27" x1="595.69" y1="235.01" x2="575.77" y2="215.09"/>
<line class="st27" x1="517.08" y1="156.4" x2="497.22" y2="136.54"/>
<line class="st27" x1="587.23" y1="235.01" x2="567.31" y2="215.09"/>
<line class="st27" x1="508.62" y1="156.4" x2="490.09" y2="137.87"/>
<line class="st27" x1="578.9" y1="235.01" x2="558.98" y2="215.09"/>
<line class="st27" x1="500.55" y1="156.66" x2="483.81" y2="139.92"/>
<line class="st27" x1="571" y1="235.01" x2="551.08" y2="215.09"/>
<line class="st27" x1="493.98" y1="157.99" x2="478.47" y2="142.48"/>
<line class="st27" x1="562.66" y1="235.01" x2="542.74" y2="215.09"/>
<line class="st27" x1="488.17" y1="160.52" x2="473.45" y2="145.8"/>
<line class="st27" x1="554.2" y1="235.01" x2="535.41" y2="216.22"/>
<line class="st27" x1="483.36" y1="164.16" x2="469" y2="149.8"/>
<line class="st27" x1="545.87" y1="235.01" x2="535.41" y2="224.55"/>
<line class="st27" x1="479.59" y1="168.73" x2="465.21" y2="154.35"/>
<line class="st27" x1="537.92" y1="235.01" x2="535.41" y2="232.5"/>
<line class="st27" x1="476.89" y1="173.98" x2="462.15" y2="159.24"/>
<line class="st27" x1="516.14" y1="221.56" x2="509.67" y2="215.09"/>
<line class="st27" x1="475.08" y1="180.51" x2="459.54" y2="164.97"/>
<line class="st27" x1="516.14" y1="230.03" x2="501.2" y2="215.09"/>
<line class="st27" x1="474.34" y1="188.22" x2="457.51" y2="171.4"/>
<line class="st27" x1="512.79" y1="235.01" x2="492.87" y2="215.09"/>
<line class="st27" x1="474.32" y1="196.54" x2="456.16" y2="178.38"/>
<line class="st27" x1="504.89" y1="235.01" x2="484.97" y2="215.09"/>
<line class="st27" x1="474.32" y1="204.44" x2="455.49" y2="185.61"/>
<polyline class="st27" points="496.55,235.01 476.63,215.09 474.32,212.78 455.38,193.83 "/>
<line class="st27" x1="488.1" y1="235.01" x2="455.38" y2="202.29"/>
<line class="st27" x1="479.76" y1="235.01" x2="455.38" y2="210.63"/>
<line class="st27" x1="471.82" y1="235.01" x2="455.38" y2="218.57"/>
<line class="st27" x1="463.48" y1="235.01" x2="455.38" y2="226.91"/>
<line class="st27" x1="587.23" y1="153.35" x2="578.9" y2="145.02"/>
<path class="st1" d="M117.24,304.17v40.24c0,2.27-0.09,4.46-0.29,6.59c-0.31,3.54-0.88,6.89-1.71,10.04v0.01
	c-1.05,3.93-2.5,7.57-4.35,10.89c-1.13,2.04-2.4,3.95-3.82,5.73c-1.93,2.44-4.11,4.62-6.56,6.56c-2.45,1.94-5.15,3.64-8.12,5.1
	c-2.74,1.34-5.66,2.46-8.78,3.34c-3.25,0.93-6.71,1.61-10.37,2.04c-2.72,0.32-5.55,0.51-8.5,0.55c-0.53,0.02-1.06,0.02-1.6,0.02
	H18.22v-60.71h19.92v41.77h25.68c1.07,0,2.11-0.03,3.13-0.09c3.74-0.2,7.15-0.79,10.23-1.76c4.32-1.35,7.99-3.46,11.01-6.31
	c3.38-3.18,5.77-7.14,7.16-11.86c0.89-3,1.38-6.31,1.46-9.93c0.02-0.4,0.02-0.8,0.02-1.2v-41.8c0-2.08-0.13-4.06-0.39-5.94
	c-0.32-2.41-0.85-4.66-1.6-6.74c-0.72-2.05-1.65-3.94-2.78-5.68c-1.07-1.66-2.33-3.18-3.78-4.55c-0.03-0.03-0.06-0.06-0.09-0.09
	c-1.33-1.25-2.79-2.36-4.38-3.33c-1.74-1.06-3.64-1.95-5.69-2.65c-2.11-0.75-4.38-1.29-6.81-1.65c-2.34-0.35-4.84-0.52-7.49-0.52
	H38.14v43.06H18.22v-62.01h45.02c0.97,0,1.93,0.01,2.87,0.05c2.68,0.08,5.26,0.27,7.74,0.59c2.34,0.29,4.59,0.68,6.76,1.19
	c2.25,0.51,4.41,1.14,6.47,1.88c1.86,0.65,3.65,1.41,5.36,2.25c0.18,0.09,0.37,0.18,0.55,0.29c1.85,0.93,3.6,1.96,5.24,3.1
	c1.56,1.08,3.02,2.24,4.39,3.5c1.46,1.32,2.81,2.74,4.06,4.27c1.27,1.55,2.44,3.21,3.49,4.97c0.25,0.41,0.49,0.83,0.72,1.25
	c0.77,1.38,1.46,2.81,2.09,4.29c0.8,1.88,1.49,3.84,2.06,5.89c0.61,2.2,1.1,4.49,1.45,6.88c0.38,2.48,0.61,5.07,0.7,7.76
	C117.22,302.34,117.24,303.25,117.24,304.17z"/>
<line class="st6" x1="24.67" y1="253.29" x2="18.22" y2="259.74"/>
<line class="st6" x1="33.13" y1="253.29" x2="18.22" y2="268.2"/>
<line class="st6" x1="41.48" y1="253.29" x2="18.22" y2="276.55"/>
<line class="st6" x1="49.37" y1="253.29" x2="18.22" y2="284.44"/>
<polyline class="st6" points="57.7,253.29 38.75,272.24 38.14,272.85 18.22,292.77 "/>
<line class="st6" x1="66.11" y1="253.34" x2="47.21" y2="272.24"/>
<line class="st6" x1="38.14" y1="281.31" x2="18.22" y2="301.23"/>
<line class="st6" x1="73.85" y1="253.93" x2="55.54" y2="272.24"/>
<line class="st6" x1="38.14" y1="289.64" x2="18.22" y2="309.56"/>
<line class="st6" x1="80.61" y1="255.12" x2="63.49" y2="272.24"/>
<line class="st6" x1="38.14" y1="297.6" x2="20.44" y2="315.3"/>
<line class="st6" x1="87.08" y1="257" x2="71.31" y2="272.76"/>
<line class="st6" x1="38.14" y1="305.93" x2="28.77" y2="315.3"/>
<line class="st6" x1="92.99" y1="259.54" x2="78.12" y2="274.41"/>
<line class="st6" x1="38.14" y1="314.39" x2="37.23" y2="315.3"/>
<line class="st6" x1="98.23" y1="262.64" x2="83.81" y2="277.06"/>
<line class="st6" x1="26.3" y1="334.57" x2="18.22" y2="342.65"/>
<line class="st6" x1="102.62" y1="266.14" x2="88.28" y2="280.48"/>
<line class="st6" x1="34.19" y1="334.57" x2="18.22" y2="350.54"/>
<line class="st6" x1="106.68" y1="270.41" x2="92.06" y2="285.03"/>
<polyline class="st6" points="38.14,338.96 18.22,358.88 17.58,359.52 "/>
<line class="st6" x1="110.17" y1="275.38" x2="94.84" y2="290.71"/>
<line class="st6" x1="38.14" y1="347.42" x2="18.22" y2="367.34"/>
<line class="st6" x1="112.98" y1="280.92" x2="96.44" y2="297.45"/>
<line class="st6" x1="38.14" y1="355.75" x2="18.22" y2="375.67"/>
<line class="st6" x1="115.04" y1="286.81" x2="96.83" y2="305.01"/>
<line class="st6" x1="38.14" y1="363.71" x2="18.22" y2="383.63"/>
<line class="st6" x1="116.49" y1="293.69" x2="96.83" y2="313.35"/>
<line class="st6" x1="38.14" y1="372.04" x2="18.22" y2="391.96"/>
<line class="st6" x1="117.19" y1="301.45" x2="96.83" y2="321.81"/>
<line class="st6" x1="42.3" y1="376.34" x2="23.36" y2="395.28"/>
<line class="st6" x1="117.24" y1="309.73" x2="96.83" y2="330.14"/>
<line class="st6" x1="50.63" y1="376.34" x2="31.69" y2="395.28"/>
<line class="st6" x1="117.24" y1="317.63" x2="96.83" y2="338.04"/>
<line class="st6" x1="58.53" y1="376.34" x2="39.59" y2="395.28"/>
<line class="st6" x1="117.24" y1="325.96" x2="96.81" y2="346.39"/>
<line class="st6" x1="66.95" y1="376.25" x2="47.92" y2="395.28"/>
<line class="st6" x1="77.18" y1="374.49" x2="56.39" y2="395.28"/>
<line class="st6" x1="117.24" y1="334.42" x2="95.35" y2="356.32"/>
<line class="st6" x1="117.24" y1="342.76" x2="64.74" y2="395.26"/>
<line class="st6" x1="116.95" y1="351" x2="73.24" y2="394.71"/>
<polyline class="st6" points="83.61,392.67 115.24,361.05 115.24,361.04 "/>
<line class="st6" x1="107.07" y1="377.67" x2="100.51" y2="384.23"/>
<path class="st1" d="M235.04,253.29v61.96h-19.92v-43.01h-25.68c-1.72,0-3.38,0.07-4.98,0.23c-4.02,0.36-7.64,1.2-10.85,2.51
	c-3.27,1.32-6.11,3.13-8.54,5.41c-2.79,2.63-4.9,5.78-6.33,9.46c-1.24,3.14-1.97,6.65-2.22,10.56c-0.06,0.97-0.09,1.96-0.09,2.98
	v41.8c0,1.71,0.09,3.35,0.26,4.92c0.25,2.34,0.69,4.53,1.33,6.57c0.64,2.09,1.49,4.03,2.53,5.81c1.02,1.75,2.24,3.36,3.64,4.81
	c0.28,0.3,0.58,0.6,0.88,0.88c1.14,1.07,2.37,2.04,3.69,2.89c1.61,1.07,3.36,1.96,5.25,2.7c2.02,0.78,4.19,1.39,6.53,1.81
	c2.4,0.45,4.97,0.69,7.71,0.74c0.39,0.02,0.79,0.02,1.19,0.02h25.68v-41.82h19.92v60.76h-44.92c-1.52,0-3.02-0.04-4.48-0.11
	c-2.49-0.12-4.9-0.34-7.23-0.67c-2.42-0.34-4.74-0.79-6.98-1.35s-4.38-1.24-6.43-2.03c-1.42-0.54-2.8-1.14-4.13-1.79
	c-0.54-0.27-1.07-0.54-1.6-0.82c-1.72-0.93-3.35-1.94-4.89-3.06c-1.62-1.15-3.14-2.41-4.55-3.79c-1.45-1.37-2.78-2.86-4-4.45
	c-1.22-1.57-2.32-3.24-3.32-5.02c-0.05-0.08-0.09-0.17-0.14-0.25c-0.91-1.62-1.71-3.32-2.42-5.09c-0.81-2-1.5-4.09-2.05-6.28
	c-0.58-2.28-1.03-4.65-1.33-7.13c-0.32-2.5-0.5-5.1-0.54-7.8c-0.01-0.41-0.01-0.82-0.01-1.23v-40.24c0-2.87,0.15-5.63,0.46-8.28
	c0.43-3.79,1.17-7.35,2.22-10.68c0.96-3.05,2.19-5.91,3.67-8.58c4.23-7.62,10.38-13.41,18.45-17.38c2.06-1.01,4.22-1.89,6.49-2.65
	c3.42-1.13,7.08-1.97,10.98-2.52c2.89-0.41,5.92-0.66,9.08-0.75c0.87-0.03,1.76-0.04,2.65-0.04H235.04z"/>
<line class="st27" x1="167.31" y1="256.6" x2="138.7" y2="285.21"/>
<line class="st27" x1="178.29" y1="254.08" x2="136.48" y2="295.89"/>
<line class="st27" x1="187.37" y1="253.33" x2="136.02" y2="304.68"/>
<line class="st27" x1="195.3" y1="253.29" x2="173.61" y2="274.98"/>
<line class="st27" x1="158.74" y1="289.85" x2="136.02" y2="312.57"/>
<line class="st27" x1="203.64" y1="253.29" x2="184.46" y2="272.47"/>
<line class="st27" x1="156.52" y1="300.41" x2="136.02" y2="320.92"/>
<line class="st27" x1="212.1" y1="253.29" x2="193.15" y2="272.24"/>
<line class="st27" x1="156.43" y1="308.96" x2="136.02" y2="329.37"/>
<line class="st27" x1="220.44" y1="253.29" x2="201.49" y2="272.24"/>
<line class="st27" x1="156.43" y1="317.3" x2="136.02" y2="337.71"/>
<line class="st27" x1="228.39" y1="253.29" x2="209.44" y2="272.24"/>
<line class="st27" x1="156.43" y1="325.24" x2="136.03" y2="345.64"/>
<line class="st27" x1="235.04" y1="254.97" x2="215.12" y2="274.89"/>
<line class="st27" x1="156.43" y1="333.58" x2="136.57" y2="353.44"/>
<line class="st27" x1="235.04" y1="263.43" x2="215.12" y2="283.35"/>
<line class="st27" x1="156.43" y1="342.04" x2="137.9" y2="360.57"/>
<line class="st27" x1="235.04" y1="271.76" x2="215.12" y2="291.68"/>
<line class="st27" x1="156.69" y1="350.11" x2="139.95" y2="366.85"/>
<line class="st27" x1="235.04" y1="279.66" x2="215.12" y2="299.58"/>
<line class="st27" x1="158.02" y1="356.68" x2="142.51" y2="372.19"/>
<line class="st27" x1="235.04" y1="288" x2="215.12" y2="307.92"/>
<line class="st27" x1="160.55" y1="362.49" x2="145.83" y2="377.21"/>
<line class="st27" x1="235.04" y1="296.46" x2="216.25" y2="315.25"/>
<line class="st27" x1="164.19" y1="367.3" x2="149.83" y2="381.66"/>
<line class="st27" x1="235.04" y1="304.79" x2="224.58" y2="315.25"/>
<line class="st27" x1="168.76" y1="371.07" x2="154.38" y2="385.45"/>
<line class="st27" x1="235.04" y1="312.74" x2="232.53" y2="315.25"/>
<line class="st27" x1="174.01" y1="373.77" x2="159.27" y2="388.51"/>
<line class="st27" x1="221.59" y1="334.52" x2="215.12" y2="340.99"/>
<line class="st27" x1="180.54" y1="375.58" x2="165" y2="391.12"/>
<line class="st27" x1="230.06" y1="334.52" x2="215.12" y2="349.46"/>
<line class="st27" x1="188.25" y1="376.32" x2="171.43" y2="393.15"/>
<line class="st27" x1="235.04" y1="337.87" x2="215.12" y2="357.79"/>
<line class="st27" x1="196.57" y1="376.34" x2="178.41" y2="394.5"/>
<line class="st27" x1="235.04" y1="345.77" x2="215.12" y2="365.69"/>
<line class="st27" x1="204.47" y1="376.34" x2="185.64" y2="395.17"/>
<polyline class="st27" points="235.04,354.11 215.12,374.03 212.81,376.34 193.86,395.28 "/>
<line class="st27" x1="235.04" y1="362.56" x2="202.32" y2="395.28"/>
<line class="st27" x1="235.04" y1="370.9" x2="210.66" y2="395.28"/>
<line class="st27" x1="235.04" y1="378.84" x2="218.6" y2="395.28"/>
<line class="st27" x1="235.04" y1="387.18" x2="226.94" y2="395.28"/>
<line class="st27" x1="153.38" y1="263.43" x2="145.05" y2="271.76"/>
<path class="st1" d="M344.1,315.22l-40.24,0c-2.27,0-4.46-0.09-6.59-0.29c-3.54-0.31-6.89-0.88-10.04-1.71h-0.01
	c-3.93-1.05-7.57-2.5-10.89-4.35c-2.04-1.13-3.95-2.4-5.73-3.82c-2.44-1.93-4.62-4.11-6.56-6.56c-1.94-2.45-3.64-5.15-5.1-8.12
	c-1.34-2.74-2.46-5.66-3.34-8.78c-0.93-3.25-1.61-6.71-2.04-10.37c-0.32-2.72-0.51-5.55-0.55-8.5c-0.02-0.53-0.02-1.06-0.02-1.6
	l0-44.92l60.71,0v19.92l-41.77,0l0,25.68c0,1.07,0.03,2.11,0.09,3.13c0.2,3.74,0.79,7.15,1.76,10.23c1.35,4.32,3.46,7.99,6.31,11.01
	c3.18,3.38,7.14,5.77,11.86,7.16c3,0.89,6.31,1.38,9.93,1.46c0.4,0.02,0.8,0.02,1.2,0.02l41.8,0c2.08,0,4.06-0.13,5.94-0.39
	c2.41-0.32,4.66-0.85,6.74-1.6c2.05-0.72,3.94-1.65,5.68-2.78c1.66-1.07,3.18-2.33,4.55-3.78c0.03-0.03,0.06-0.06,0.09-0.09
	c1.25-1.33,2.36-2.79,3.33-4.38c1.06-1.74,1.95-3.64,2.65-5.69c0.75-2.11,1.29-4.38,1.65-6.81c0.35-2.34,0.52-4.84,0.52-7.49
	l0-25.68l-43.06,0V216.2l62.01,0l0,45.02c0,0.97-0.01,1.93-0.05,2.87c-0.08,2.68-0.27,5.26-0.59,7.74
	c-0.29,2.34-0.68,4.59-1.19,6.76c-0.51,2.25-1.14,4.41-1.88,6.47c-0.65,1.86-1.41,3.65-2.25,5.36c-0.09,0.18-0.18,0.37-0.29,0.55
	c-0.93,1.85-1.96,3.6-3.1,5.24c-1.08,1.56-2.24,3.02-3.5,4.39c-1.32,1.46-2.74,2.81-4.27,4.06c-1.55,1.27-3.21,2.44-4.97,3.49
	c-0.41,0.25-0.83,0.49-1.25,0.72c-1.38,0.77-2.81,1.46-4.29,2.09c-1.88,0.8-3.84,1.49-5.89,2.06c-2.2,0.61-4.49,1.1-6.88,1.45
	c-2.48,0.38-5.07,0.61-7.76,0.7C345.93,315.2,345.02,315.22,344.1,315.22z"/>
<line class="st24" x1="394.98" y1="222.65" x2="388.53" y2="216.2"/>
<line class="st24" x1="394.98" y1="231.11" x2="380.07" y2="216.2"/>
<line class="st24" x1="394.98" y1="239.46" x2="371.72" y2="216.2"/>
<line class="st24" x1="394.98" y1="247.35" x2="363.83" y2="216.2"/>
<polyline class="st24" points="394.98,255.68 376.03,236.73 375.42,236.12 355.5,216.2 "/>
<line class="st24" x1="394.93" y1="264.09" x2="376.03" y2="245.19"/>
<line class="st24" x1="366.96" y1="236.12" x2="347.04" y2="216.2"/>
<line class="st24" x1="394.34" y1="271.83" x2="376.03" y2="253.52"/>
<line class="st24" x1="358.63" y1="236.12" x2="338.71" y2="216.2"/>
<line class="st24" x1="393.15" y1="278.59" x2="376.03" y2="261.47"/>
<line class="st24" x1="350.67" y1="236.12" x2="332.97" y2="218.42"/>
<line class="st24" x1="391.27" y1="285.06" x2="375.51" y2="269.29"/>
<line class="st24" x1="342.34" y1="236.12" x2="332.97" y2="226.75"/>
<line class="st24" x1="388.73" y1="290.97" x2="373.86" y2="276.1"/>
<line class="st24" x1="333.88" y1="236.12" x2="332.97" y2="235.21"/>
<line class="st24" x1="385.63" y1="296.21" x2="371.21" y2="281.79"/>
<line class="st24" x1="313.7" y1="224.28" x2="305.62" y2="216.2"/>
<line class="st24" x1="382.13" y1="300.6" x2="367.79" y2="286.26"/>
<line class="st24" x1="313.7" y1="232.17" x2="297.73" y2="216.2"/>
<line class="st24" x1="377.86" y1="304.66" x2="363.24" y2="290.04"/>
<polyline class="st24" points="309.31,236.12 289.39,216.2 288.75,215.56 "/>
<line class="st24" x1="372.89" y1="308.15" x2="357.56" y2="292.82"/>
<line class="st24" x1="300.85" y1="236.12" x2="280.93" y2="216.2"/>
<line class="st24" x1="367.35" y1="310.96" x2="350.82" y2="294.42"/>
<line class="st24" x1="292.52" y1="236.12" x2="272.6" y2="216.2"/>
<line class="st24" x1="361.46" y1="313.02" x2="343.26" y2="294.81"/>
<line class="st24" x1="284.56" y1="236.12" x2="264.64" y2="216.2"/>
<line class="st24" x1="354.58" y1="314.47" x2="334.92" y2="294.81"/>
<line class="st24" x1="276.23" y1="236.12" x2="256.31" y2="216.2"/>
<line class="st24" x1="346.82" y1="315.17" x2="326.46" y2="294.81"/>
<line class="st24" x1="271.93" y1="240.28" x2="252.99" y2="221.34"/>
<line class="st24" x1="338.54" y1="315.22" x2="318.13" y2="294.81"/>
<line class="st24" x1="271.93" y1="248.61" x2="252.99" y2="229.67"/>
<line class="st24" x1="330.64" y1="315.22" x2="310.23" y2="294.81"/>
<line class="st24" x1="271.93" y1="256.51" x2="252.99" y2="237.57"/>
<line class="st24" x1="322.31" y1="315.22" x2="301.88" y2="294.79"/>
<line class="st24" x1="272.02" y1="264.93" x2="252.99" y2="245.9"/>
<line class="st24" x1="273.78" y1="275.16" x2="252.99" y2="254.37"/>
<line class="st24" x1="313.85" y1="315.22" x2="291.95" y2="293.33"/>
<line class="st24" x1="305.51" y1="315.22" x2="253.01" y2="262.72"/>
<line class="st24" x1="297.27" y1="314.93" x2="253.56" y2="271.22"/>
<polyline class="st24" points="255.6,281.59 287.22,313.22 287.23,313.22 "/>
<line class="st24" x1="270.6" y1="305.05" x2="264.04" y2="298.49"/>
<path class="st1" d="M394.98,433.01l-61.96,0l0-19.92l43.01,0l0-25.68c0-1.72-0.07-3.38-0.23-4.98c-0.36-4.02-1.2-7.64-2.51-10.85
	c-1.32-3.27-3.13-6.11-5.41-8.54c-2.63-2.79-5.78-4.9-9.46-6.33c-3.14-1.24-6.65-1.97-10.56-2.22c-0.97-0.06-1.96-0.09-2.98-0.09
	l-41.8,0c-1.71,0-3.35,0.09-4.92,0.26c-2.34,0.25-4.53,0.69-6.57,1.33c-2.09,0.64-4.03,1.49-5.81,2.53
	c-1.75,1.02-3.36,2.24-4.81,3.64c-0.3,0.28-0.6,0.58-0.88,0.88c-1.07,1.14-2.04,2.37-2.89,3.69c-1.07,1.61-1.96,3.36-2.7,5.25
	c-0.78,2.02-1.39,4.19-1.81,6.53c-0.45,2.4-0.69,4.97-0.74,7.71c-0.02,0.39-0.02,0.79-0.02,1.19l0,25.68l41.82,0l0,19.92l-60.76,0
	l0-44.92c0-1.52,0.04-3.02,0.11-4.48c0.12-2.49,0.34-4.9,0.67-7.23c0.34-2.42,0.79-4.74,1.35-6.98c0.56-2.24,1.24-4.38,2.03-6.43
	c0.54-1.42,1.14-2.8,1.79-4.13c0.27-0.54,0.54-1.07,0.82-1.6c0.93-1.72,1.94-3.35,3.06-4.89c1.15-1.62,2.41-3.14,3.79-4.55
	c1.37-1.45,2.86-2.78,4.45-4c1.57-1.22,3.24-2.32,5.02-3.32c0.08-0.05,0.17-0.09,0.25-0.14c1.62-0.91,3.32-1.71,5.09-2.42
	c2-0.81,4.09-1.5,6.28-2.05c2.28-0.58,4.65-1.03,7.13-1.33c2.5-0.32,5.1-0.5,7.8-0.54c0.41-0.01,0.82-0.01,1.23-0.01l40.24,0
	c2.87,0,5.63,0.15,8.28,0.46c3.79,0.43,7.35,1.17,10.68,2.22c3.05,0.96,5.91,2.19,8.58,3.67c7.62,4.23,13.41,10.38,17.38,18.45
	c1.01,2.06,1.89,4.22,2.65,6.49c1.13,3.42,1.97,7.08,2.52,10.98c0.41,2.89,0.66,5.92,0.75,9.08c0.03,0.87,0.04,1.76,0.04,2.65
	L394.98,433.01z"/>
<line class="st25" x1="391.67" y1="365.28" x2="363.06" y2="336.67"/>
<line class="st25" x1="394.19" y1="376.26" x2="352.38" y2="334.45"/>
<line class="st25" x1="394.94" y1="385.34" x2="343.59" y2="333.99"/>
<line class="st25" x1="394.98" y1="393.27" x2="373.29" y2="371.58"/>
<line class="st25" x1="358.42" y1="356.71" x2="335.7" y2="333.99"/>
<line class="st25" x1="394.98" y1="401.61" x2="375.8" y2="382.43"/>
<line class="st25" x1="347.86" y1="354.49" x2="327.35" y2="333.99"/>
<line class="st25" x1="394.98" y1="410.07" x2="376.03" y2="391.12"/>
<line class="st25" x1="339.31" y1="354.4" x2="318.9" y2="333.99"/>
<line class="st25" x1="394.98" y1="418.41" x2="376.03" y2="399.46"/>
<line class="st25" x1="330.97" y1="354.4" x2="310.56" y2="333.99"/>
<line class="st25" x1="394.98" y1="426.36" x2="376.03" y2="407.41"/>
<line class="st25" x1="323.03" y1="354.4" x2="302.63" y2="334"/>
<line class="st25" x1="393.3" y1="433.01" x2="373.38" y2="413.09"/>
<line class="st25" x1="314.69" y1="354.4" x2="294.83" y2="334.54"/>
<line class="st25" x1="384.84" y1="433.01" x2="364.92" y2="413.09"/>
<line class="st25" x1="306.23" y1="354.4" x2="287.7" y2="335.87"/>
<line class="st25" x1="376.51" y1="433.01" x2="356.59" y2="413.09"/>
<line class="st25" x1="298.16" y1="354.66" x2="281.42" y2="337.92"/>
<line class="st25" x1="368.61" y1="433.01" x2="348.69" y2="413.09"/>
<line class="st25" x1="291.59" y1="355.99" x2="276.08" y2="340.48"/>
<line class="st25" x1="360.27" y1="433.01" x2="340.35" y2="413.09"/>
<line class="st25" x1="285.78" y1="358.52" x2="271.06" y2="343.8"/>
<line class="st25" x1="351.81" y1="433.01" x2="333.02" y2="414.22"/>
<line class="st25" x1="280.97" y1="362.16" x2="266.61" y2="347.8"/>
<line class="st25" x1="343.48" y1="433.01" x2="333.02" y2="422.55"/>
<line class="st25" x1="277.2" y1="366.73" x2="262.82" y2="352.35"/>
<line class="st25" x1="335.53" y1="433.01" x2="333.02" y2="430.5"/>
<line class="st25" x1="274.5" y1="371.98" x2="259.76" y2="357.24"/>
<line class="st25" x1="313.75" y1="419.56" x2="307.28" y2="413.09"/>
<line class="st25" x1="272.69" y1="378.51" x2="257.15" y2="362.97"/>
<line class="st25" x1="313.75" y1="428.03" x2="298.81" y2="413.09"/>
<line class="st25" x1="271.95" y1="386.22" x2="255.12" y2="369.4"/>
<line class="st25" x1="310.4" y1="433.01" x2="290.48" y2="413.09"/>
<line class="st25" x1="271.93" y1="394.54" x2="253.77" y2="376.38"/>
<line class="st25" x1="302.5" y1="433.01" x2="282.58" y2="413.09"/>
<line class="st25" x1="271.93" y1="402.44" x2="253.1" y2="383.61"/>
<polyline class="st25" points="294.16,433.01 274.24,413.09 271.93,410.78 252.99,391.83 "/>
<line class="st25" x1="285.71" y1="433.01" x2="252.99" y2="400.29"/>
<line class="st25" x1="277.37" y1="433.01" x2="252.99" y2="408.63"/>
<line class="st25" x1="269.43" y1="433.01" x2="252.99" y2="416.57"/>
<line class="st25" x1="261.09" y1="433.01" x2="252.99" y2="424.91"/>
<line class="st25" x1="384.84" y1="351.35" x2="376.51" y2="343.02"/>
<path class="st1" d="M512.85,304.17v40.24c0,2.27-0.09,4.46-0.29,6.59c-0.31,3.54-0.88,6.89-1.71,10.04v0.01
	c-1.05,3.93-2.5,7.57-4.35,10.89c-1.13,2.04-2.4,3.95-3.82,5.73c-1.93,2.44-4.11,4.62-6.56,6.56c-2.45,1.94-5.15,3.64-8.12,5.1
	c-2.74,1.34-5.66,2.46-8.78,3.34c-3.25,0.93-6.71,1.61-10.37,2.04c-2.72,0.32-5.55,0.51-8.5,0.55c-0.53,0.02-1.06,0.02-1.6,0.02
	h-44.92v-60.71h19.92v41.77h25.68c1.07,0,2.11-0.03,3.13-0.09c3.74-0.2,7.15-0.79,10.23-1.76c4.32-1.35,7.99-3.46,11.01-6.31
	c3.38-3.18,5.77-7.14,7.16-11.86c0.89-3,1.38-6.31,1.46-9.93c0.02-0.4,0.02-0.8,0.02-1.2v-41.8c0-2.08-0.13-4.06-0.39-5.94
	c-0.32-2.41-0.85-4.66-1.6-6.74c-0.72-2.05-1.65-3.94-2.78-5.68c-1.07-1.66-2.33-3.18-3.78-4.55c-0.03-0.03-0.06-0.06-0.09-0.09
	c-1.33-1.25-2.79-2.36-4.38-3.33c-1.74-1.06-3.64-1.95-5.69-2.65c-2.11-0.75-4.38-1.29-6.81-1.65c-2.34-0.35-4.84-0.52-7.49-0.52
	h-25.68v43.06h-19.92v-62.01h45.02c0.97,0,1.93,0.01,2.87,0.05c2.68,0.08,5.26,0.27,7.74,0.59c2.34,0.29,4.59,0.68,6.76,1.19
	c2.25,0.51,4.41,1.14,6.47,1.88c1.86,0.65,3.65,1.41,5.36,2.25c0.18,0.09,0.37,0.18,0.55,0.29c1.85,0.93,3.6,1.96,5.24,3.1
	c1.56,1.08,3.02,2.24,4.39,3.5c1.46,1.32,2.81,2.74,4.06,4.27c1.27,1.55,2.44,3.21,3.49,4.97c0.25,0.41,0.49,0.83,0.72,1.25
	c0.77,1.38,1.46,2.81,2.09,4.29c0.8,1.88,1.49,3.84,2.06,5.89c0.61,2.2,1.1,4.49,1.45,6.88c0.38,2.48,0.61,5.07,0.7,7.76
	C512.83,302.34,512.85,303.25,512.85,304.17z"/>
<line class="st26" x1="420.28" y1="253.29" x2="413.83" y2="259.74"/>
<line class="st26" x1="428.74" y1="253.29" x2="413.83" y2="268.2"/>
<line class="st26" x1="437.09" y1="253.29" x2="413.83" y2="276.55"/>
<line class="st26" x1="444.98" y1="253.29" x2="413.83" y2="284.44"/>
<polyline class="st26" points="453.31,253.29 434.36,272.24 433.75,272.85 413.83,292.77 "/>
<line class="st26" x1="461.72" y1="253.34" x2="442.82" y2="272.24"/>
<line class="st26" x1="433.75" y1="281.31" x2="413.83" y2="301.23"/>
<line class="st26" x1="469.46" y1="253.93" x2="451.15" y2="272.24"/>
<line class="st26" x1="433.75" y1="289.64" x2="413.83" y2="309.56"/>
<line class="st26" x1="476.22" y1="255.12" x2="459.1" y2="272.24"/>
<line class="st26" x1="433.75" y1="297.6" x2="416.05" y2="315.3"/>
<line class="st26" x1="482.69" y1="257" x2="466.92" y2="272.76"/>
<line class="st26" x1="433.75" y1="305.93" x2="424.38" y2="315.3"/>
<line class="st26" x1="488.6" y1="259.54" x2="473.73" y2="274.41"/>
<line class="st26" x1="433.75" y1="314.39" x2="432.84" y2="315.3"/>
<line class="st26" x1="493.84" y1="262.64" x2="479.42" y2="277.06"/>
<line class="st26" x1="421.91" y1="334.57" x2="413.83" y2="342.65"/>
<line class="st26" x1="498.23" y1="266.14" x2="483.89" y2="280.48"/>
<line class="st26" x1="429.8" y1="334.57" x2="413.83" y2="350.54"/>
<line class="st26" x1="502.29" y1="270.41" x2="487.67" y2="285.03"/>
<polyline class="st26" points="433.75,338.96 413.83,358.88 413.19,359.52 "/>
<line class="st26" x1="505.78" y1="275.38" x2="490.45" y2="290.71"/>
<line class="st26" x1="433.75" y1="347.42" x2="413.83" y2="367.34"/>
<line class="st26" x1="508.59" y1="280.92" x2="492.05" y2="297.45"/>
<line class="st26" x1="433.75" y1="355.75" x2="413.83" y2="375.67"/>
<line class="st26" x1="510.65" y1="286.81" x2="492.44" y2="305.01"/>
<line class="st26" x1="433.75" y1="363.71" x2="413.83" y2="383.63"/>
<line class="st26" x1="512.1" y1="293.69" x2="492.44" y2="313.35"/>
<line class="st26" x1="433.75" y1="372.04" x2="413.83" y2="391.96"/>
<line class="st26" x1="512.8" y1="301.45" x2="492.44" y2="321.81"/>
<line class="st26" x1="437.91" y1="376.34" x2="418.97" y2="395.28"/>
<line class="st26" x1="512.85" y1="309.73" x2="492.44" y2="330.14"/>
<line class="st26" x1="446.24" y1="376.34" x2="427.3" y2="395.28"/>
<line class="st26" x1="512.85" y1="317.63" x2="492.44" y2="338.04"/>
<line class="st26" x1="454.14" y1="376.34" x2="435.2" y2="395.28"/>
<line class="st26" x1="512.85" y1="325.96" x2="492.42" y2="346.39"/>
<line class="st26" x1="462.56" y1="376.25" x2="443.53" y2="395.28"/>
<line class="st26" x1="472.79" y1="374.49" x2="452" y2="395.28"/>
<line class="st26" x1="512.85" y1="334.42" x2="490.96" y2="356.32"/>
<line class="st26" x1="512.85" y1="342.76" x2="460.35" y2="395.26"/>
<line class="st26" x1="512.56" y1="351" x2="468.85" y2="394.71"/>
<polyline class="st26" points="479.22,392.67 510.85,361.05 510.85,361.04 "/>
<line class="st26" x1="502.68" y1="377.67" x2="496.12" y2="384.23"/>
<path class="st1" d="M630.64,253.29v61.96h-19.92v-43.01h-25.68c-1.72,0-3.38,0.07-4.98,0.23c-4.02,0.36-7.64,1.2-10.85,2.51
	c-3.27,1.32-6.11,3.13-8.54,5.41c-2.79,2.63-4.9,5.78-6.33,9.46c-1.24,3.14-1.97,6.65-2.22,10.56c-0.06,0.97-0.09,1.96-0.09,2.98
	v41.8c0,1.71,0.09,3.35,0.26,4.92c0.25,2.34,0.69,4.53,1.33,6.57c0.64,2.09,1.49,4.03,2.53,5.81c1.02,1.75,2.24,3.36,3.64,4.81
	c0.28,0.3,0.58,0.6,0.88,0.88c1.14,1.07,2.37,2.04,3.69,2.89c1.61,1.07,3.36,1.96,5.25,2.7c2.02,0.78,4.19,1.39,6.53,1.81
	c2.4,0.45,4.97,0.69,7.71,0.74c0.39,0.02,0.79,0.02,1.19,0.02h25.68v-41.82h19.92v60.76h-44.92c-1.52,0-3.02-0.04-4.48-0.11
	c-2.49-0.12-4.9-0.34-7.23-0.67c-2.42-0.34-4.74-0.79-6.98-1.35s-4.38-1.24-6.43-2.03c-1.42-0.54-2.8-1.14-4.13-1.79
	c-0.54-0.27-1.07-0.54-1.6-0.82c-1.72-0.93-3.35-1.94-4.89-3.06c-1.62-1.15-3.14-2.41-4.55-3.79c-1.45-1.37-2.78-2.86-4-4.45
	c-1.22-1.57-2.32-3.24-3.32-5.02c-0.05-0.08-0.09-0.17-0.14-0.25c-0.91-1.62-1.71-3.32-2.42-5.09c-0.81-2-1.5-4.09-2.05-6.28
	c-0.58-2.28-1.03-4.65-1.33-7.13c-0.32-2.5-0.5-5.1-0.54-7.8c-0.01-0.41-0.01-0.82-0.01-1.23v-40.24c0-2.87,0.15-5.63,0.46-8.28
	c0.43-3.79,1.17-7.35,2.22-10.68c0.96-3.05,2.19-5.91,3.67-8.58c4.23-7.62,10.38-13.41,18.45-17.38c2.06-1.01,4.22-1.89,6.49-2.65
	c3.42-1.13,7.08-1.97,10.98-2.52c2.89-0.41,5.92-0.66,9.08-0.75c0.87-0.03,1.76-0.04,2.65-0.04H630.64z"/>
<line class="st7" x1="562.91" y1="256.6" x2="534.3" y2="285.21"/>
<line class="st7" x1="573.89" y1="254.08" x2="532.08" y2="295.89"/>
<line class="st7" x1="582.97" y1="253.33" x2="531.62" y2="304.68"/>
<line class="st7" x1="590.9" y1="253.29" x2="569.21" y2="274.98"/>
<line class="st7" x1="554.34" y1="289.85" x2="531.62" y2="312.57"/>
<line class="st7" x1="599.24" y1="253.29" x2="580.06" y2="272.47"/>
<line class="st7" x1="552.12" y1="300.41" x2="531.62" y2="320.92"/>
<line class="st7" x1="607.7" y1="253.29" x2="588.75" y2="272.24"/>
<line class="st7" x1="552.03" y1="308.96" x2="531.62" y2="329.37"/>
<line class="st7" x1="616.04" y1="253.29" x2="597.09" y2="272.24"/>
<line class="st7" x1="552.03" y1="317.3" x2="531.62" y2="337.71"/>
<line class="st7" x1="623.99" y1="253.29" x2="605.04" y2="272.24"/>
<line class="st7" x1="552.03" y1="325.24" x2="531.63" y2="345.64"/>
<line class="st7" x1="630.64" y1="254.97" x2="610.72" y2="274.89"/>
<line class="st7" x1="552.03" y1="333.58" x2="532.17" y2="353.44"/>
<line class="st7" x1="630.64" y1="263.43" x2="610.72" y2="283.35"/>
<line class="st7" x1="552.03" y1="342.04" x2="533.5" y2="360.57"/>
<line class="st7" x1="630.64" y1="271.76" x2="610.72" y2="291.68"/>
<line class="st7" x1="552.29" y1="350.11" x2="535.55" y2="366.85"/>
<line class="st7" x1="630.64" y1="279.66" x2="610.72" y2="299.58"/>
<line class="st7" x1="553.62" y1="356.68" x2="538.11" y2="372.19"/>
<line class="st7" x1="630.64" y1="288" x2="610.72" y2="307.92"/>
<line class="st7" x1="556.15" y1="362.49" x2="541.43" y2="377.21"/>
<line class="st7" x1="630.64" y1="296.46" x2="611.85" y2="315.25"/>
<line class="st7" x1="559.79" y1="367.3" x2="545.43" y2="381.66"/>
<line class="st7" x1="630.64" y1="304.79" x2="620.18" y2="315.25"/>
<line class="st7" x1="564.36" y1="371.07" x2="549.98" y2="385.45"/>
<line class="st7" x1="630.64" y1="312.74" x2="628.13" y2="315.25"/>
<line class="st7" x1="569.61" y1="373.77" x2="554.87" y2="388.51"/>
<line class="st7" x1="617.19" y1="334.52" x2="610.72" y2="340.99"/>
<line class="st7" x1="576.14" y1="375.58" x2="560.6" y2="391.12"/>
<line class="st7" x1="625.66" y1="334.52" x2="610.72" y2="349.46"/>
<line class="st7" x1="583.85" y1="376.32" x2="567.03" y2="393.15"/>
<line class="st7" x1="630.64" y1="337.87" x2="610.72" y2="357.79"/>
<line class="st7" x1="592.17" y1="376.34" x2="574.01" y2="394.5"/>
<line class="st7" x1="630.64" y1="345.77" x2="610.72" y2="365.69"/>
<line class="st7" x1="600.07" y1="376.34" x2="581.24" y2="395.17"/>
<polyline class="st7" points="630.64,354.11 610.72,374.03 608.41,376.34 589.46,395.28 "/>
<line class="st7" x1="630.64" y1="362.56" x2="597.92" y2="395.28"/>
<line class="st7" x1="630.64" y1="370.9" x2="606.26" y2="395.28"/>
<line class="st7" x1="630.64" y1="378.84" x2="614.2" y2="395.28"/>
<line class="st7" x1="630.64" y1="387.18" x2="622.54" y2="395.28"/>
<line class="st7" x1="548.99" y1="263.43" x2="540.66" y2="271.76"/>
<path class="st1" d="M146.87,512.39h-40.24c-2.27,0-4.46-0.09-6.59-0.29c-3.54-0.31-6.89-0.88-10.04-1.71h-0.01
	c-3.93-1.05-7.57-2.5-10.89-4.35c-2.04-1.13-3.95-2.4-5.73-3.82c-2.44-1.93-4.62-4.11-6.56-6.56c-1.94-2.45-3.64-5.15-5.1-8.12
	c-1.34-2.74-2.46-5.66-3.34-8.78c-0.93-3.25-1.61-6.71-2.04-10.37c-0.32-2.72-0.51-5.55-0.55-8.5c-0.02-0.53-0.02-1.06-0.02-1.6
	l0-44.92h60.71l0,19.92H74.7v25.68c0,1.07,0.03,2.11,0.09,3.13c0.2,3.74,0.79,7.15,1.76,10.23c1.35,4.32,3.46,7.99,6.31,11.01
	c3.18,3.38,7.14,5.77,11.86,7.16c3,0.89,6.31,1.38,9.93,1.46c0.4,0.02,0.8,0.02,1.2,0.02l41.8,0c2.08,0,4.06-0.13,5.94-0.39
	c2.41-0.32,4.66-0.85,6.74-1.6c2.05-0.72,3.94-1.65,5.68-2.78c1.66-1.07,3.18-2.33,4.55-3.78c0.03-0.03,0.06-0.06,0.09-0.09
	c1.25-1.33,2.36-2.79,3.33-4.38c1.06-1.74,1.95-3.64,2.65-5.69c0.75-2.11,1.29-4.38,1.65-6.81c0.35-2.34,0.52-4.84,0.52-7.49v-25.68
	l-43.06,0v-19.92l62.01,0v45.02c0,0.97-0.01,1.93-0.05,2.87c-0.08,2.68-0.27,5.26-0.59,7.74c-0.29,2.34-0.68,4.59-1.19,6.76
	c-0.51,2.25-1.14,4.41-1.88,6.47c-0.65,1.86-1.41,3.65-2.25,5.36c-0.09,0.18-0.18,0.37-0.29,0.55c-0.93,1.85-1.96,3.6-3.1,5.24
	c-1.08,1.56-2.24,3.02-3.5,4.39c-1.32,1.46-2.74,2.81-4.27,4.06c-1.55,1.27-3.21,2.44-4.97,3.49c-0.41,0.25-0.83,0.49-1.25,0.72
	c-1.38,0.77-2.81,1.46-4.29,2.09c-1.88,0.8-3.84,1.49-5.89,2.06c-2.2,0.61-4.49,1.1-6.88,1.45c-2.48,0.38-5.07,0.61-7.76,0.7
	C148.7,512.37,147.79,512.39,146.87,512.39z"/>
<line class="st6" x1="197.75" y1="419.82" x2="191.3" y2="413.37"/>
<line class="st6" x1="197.75" y1="428.28" x2="182.84" y2="413.37"/>
<line class="st6" x1="197.75" y1="436.63" x2="174.49" y2="413.37"/>
<line class="st6" x1="197.75" y1="444.52" x2="166.6" y2="413.37"/>
<polyline class="st6" points="197.75,452.85 178.8,433.9 178.19,433.29 158.27,413.37 "/>
<line class="st6" x1="197.7" y1="461.26" x2="178.8" y2="442.36"/>
<line class="st6" x1="169.73" y1="433.29" x2="149.81" y2="413.37"/>
<line class="st6" x1="197.11" y1="469" x2="178.8" y2="450.69"/>
<line class="st6" x1="161.4" y1="433.29" x2="141.48" y2="413.37"/>
<line class="st6" x1="195.92" y1="475.76" x2="178.8" y2="458.64"/>
<line class="st6" x1="153.44" y1="433.29" x2="135.74" y2="415.59"/>
<line class="st6" x1="194.04" y1="482.23" x2="178.28" y2="466.46"/>
<line class="st6" x1="145.11" y1="433.29" x2="135.74" y2="423.92"/>
<line class="st6" x1="191.5" y1="488.14" x2="176.63" y2="473.27"/>
<line class="st6" x1="136.65" y1="433.29" x2="135.74" y2="432.38"/>
<line class="st6" x1="188.4" y1="493.38" x2="173.98" y2="478.96"/>
<line class="st6" x1="116.47" y1="421.45" x2="108.39" y2="413.37"/>
<line class="st6" x1="184.9" y1="497.77" x2="170.56" y2="483.43"/>
<line class="st6" x1="116.47" y1="429.34" x2="100.5" y2="413.37"/>
<line class="st6" x1="180.63" y1="501.83" x2="166.01" y2="487.21"/>
<polyline class="st6" points="112.08,433.29 92.16,413.37 91.52,412.73 "/>
<line class="st6" x1="175.66" y1="505.32" x2="160.33" y2="489.99"/>
<line class="st6" x1="103.62" y1="433.29" x2="83.7" y2="413.37"/>
<line class="st6" x1="170.12" y1="508.13" x2="153.59" y2="491.59"/>
<line class="st6" x1="95.29" y1="433.29" x2="75.37" y2="413.37"/>
<line class="st6" x1="164.23" y1="510.19" x2="146.03" y2="491.98"/>
<line class="st6" x1="87.33" y1="433.29" x2="67.41" y2="413.37"/>
<line class="st6" x1="157.35" y1="511.64" x2="137.69" y2="491.98"/>
<line class="st6" x1="79" y1="433.29" x2="59.08" y2="413.37"/>
<line class="st6" x1="149.59" y1="512.34" x2="129.23" y2="491.98"/>
<line class="st6" x1="74.7" y1="437.45" x2="55.76" y2="418.51"/>
<line class="st6" x1="141.31" y1="512.39" x2="120.9" y2="491.98"/>
<line class="st6" x1="74.7" y1="445.78" x2="55.76" y2="426.84"/>
<line class="st6" x1="133.41" y1="512.39" x2="113" y2="491.98"/>
<line class="st6" x1="74.7" y1="453.68" x2="55.76" y2="434.74"/>
<line class="st6" x1="125.08" y1="512.39" x2="104.65" y2="491.96"/>
<line class="st6" x1="74.79" y1="462.1" x2="55.76" y2="443.07"/>
<line class="st6" x1="76.55" y1="472.33" x2="55.76" y2="451.54"/>
<line class="st6" x1="116.62" y1="512.39" x2="94.72" y2="490.5"/>
<line class="st6" x1="108.28" y1="512.39" x2="55.78" y2="459.89"/>
<line class="st6" x1="100.04" y1="512.1" x2="56.33" y2="468.39"/>
<polyline class="st6" points="58.37,478.76 89.99,510.39 90,510.39 "/>
<line class="st6" x1="73.37" y1="502.22" x2="66.81" y2="495.66"/>
<path class="st1" d="M197.75,630.18h-61.96v-19.92h43.01v-25.68c0-1.72-0.07-3.38-0.23-4.98c-0.36-4.02-1.2-7.64-2.51-10.85
	c-1.32-3.27-3.13-6.11-5.41-8.54c-2.63-2.79-5.78-4.9-9.46-6.33c-3.14-1.24-6.65-1.97-10.56-2.22c-0.97-0.06-1.96-0.09-2.98-0.09
	h-41.8c-1.71,0-3.35,0.09-4.92,0.26c-2.34,0.25-4.53,0.69-6.57,1.33c-2.09,0.64-4.03,1.49-5.81,2.53c-1.75,1.02-3.36,2.24-4.81,3.64
	c-0.3,0.28-0.6,0.58-0.88,0.88c-1.07,1.14-2.04,2.37-2.89,3.69c-1.07,1.61-1.96,3.36-2.7,5.25c-0.78,2.02-1.39,4.19-1.81,6.53
	c-0.45,2.4-0.69,4.97-0.74,7.71c-0.02,0.39-0.02,0.79-0.02,1.19l0,25.68h41.82v19.92H55.76l0-44.92c0-1.52,0.04-3.02,0.11-4.48
	c0.12-2.49,0.34-4.9,0.67-7.23c0.34-2.42,0.79-4.74,1.35-6.98c0.56-2.24,1.24-4.38,2.03-6.43c0.54-1.42,1.14-2.8,1.79-4.13
	c0.27-0.54,0.54-1.07,0.82-1.6c0.93-1.72,1.94-3.35,3.06-4.89c1.15-1.62,2.41-3.14,3.79-4.55c1.37-1.45,2.86-2.78,4.45-4
	c1.57-1.22,3.24-2.32,5.02-3.32c0.08-0.05,0.17-0.09,0.25-0.14c1.62-0.91,3.32-1.71,5.09-2.42c2-0.81,4.09-1.5,6.28-2.05
	c2.28-0.58,4.65-1.03,7.13-1.33c2.5-0.32,5.1-0.5,7.8-0.54c0.41-0.01,0.82-0.01,1.23-0.01h40.24c2.87,0,5.63,0.15,8.28,0.46
	c3.79,0.43,7.35,1.17,10.68,2.22c3.05,0.96,5.91,2.19,8.58,3.67c7.62,4.23,13.41,10.38,17.38,18.45c1.01,2.06,1.89,4.22,2.65,6.49
	c1.13,3.42,1.97,7.08,2.52,10.98c0.41,2.89,0.66,5.92,0.75,9.08c0.03,0.87,0.04,1.76,0.04,2.65V630.18z"/>
<line class="st7" x1="194.44" y1="562.45" x2="165.83" y2="533.84"/>
<line class="st7" x1="196.96" y1="573.43" x2="155.15" y2="531.62"/>
<line class="st7" x1="197.71" y1="582.51" x2="146.36" y2="531.16"/>
<line class="st7" x1="197.75" y1="590.44" x2="176.06" y2="568.75"/>
<line class="st7" x1="161.19" y1="553.88" x2="138.47" y2="531.16"/>
<line class="st7" x1="197.75" y1="598.78" x2="178.57" y2="579.6"/>
<line class="st7" x1="150.63" y1="551.66" x2="130.12" y2="531.16"/>
<line class="st7" x1="197.75" y1="607.24" x2="178.8" y2="588.29"/>
<line class="st7" x1="142.08" y1="551.57" x2="121.67" y2="531.16"/>
<line class="st7" x1="197.75" y1="615.58" x2="178.8" y2="596.63"/>
<line class="st7" x1="133.74" y1="551.57" x2="113.33" y2="531.16"/>
<line class="st7" x1="197.75" y1="623.53" x2="178.8" y2="604.58"/>
<line class="st7" x1="125.8" y1="551.57" x2="105.4" y2="531.17"/>
<line class="st7" x1="196.07" y1="630.18" x2="176.15" y2="610.26"/>
<line class="st7" x1="117.46" y1="551.57" x2="97.6" y2="531.71"/>
<line class="st7" x1="187.61" y1="630.18" x2="167.69" y2="610.26"/>
<line class="st7" x1="109" y1="551.57" x2="90.47" y2="533.04"/>
<line class="st7" x1="179.28" y1="630.18" x2="159.36" y2="610.26"/>
<line class="st7" x1="100.93" y1="551.83" x2="84.19" y2="535.09"/>
<line class="st7" x1="171.38" y1="630.18" x2="151.46" y2="610.26"/>
<line class="st7" x1="94.36" y1="553.16" x2="78.85" y2="537.65"/>
<line class="st7" x1="163.04" y1="630.18" x2="143.12" y2="610.26"/>
<line class="st7" x1="88.55" y1="555.69" x2="73.83" y2="540.97"/>
<line class="st7" x1="154.58" y1="630.18" x2="135.79" y2="611.39"/>
<line class="st7" x1="83.74" y1="559.33" x2="69.38" y2="544.97"/>
<line class="st7" x1="146.25" y1="630.18" x2="135.79" y2="619.72"/>
<line class="st7" x1="79.97" y1="563.9" x2="65.59" y2="549.52"/>
<line class="st7" x1="138.3" y1="630.18" x2="135.79" y2="627.67"/>
<line class="st7" x1="77.27" y1="569.15" x2="62.53" y2="554.41"/>
<line class="st7" x1="116.52" y1="616.73" x2="110.05" y2="610.26"/>
<line class="st7" x1="75.46" y1="575.68" x2="59.92" y2="560.14"/>
<line class="st7" x1="116.52" y1="625.2" x2="101.58" y2="610.26"/>
<line class="st7" x1="74.72" y1="583.39" x2="57.89" y2="566.57"/>
<line class="st7" x1="113.17" y1="630.18" x2="93.25" y2="610.26"/>
<line class="st7" x1="74.7" y1="591.71" x2="56.54" y2="573.55"/>
<line class="st7" x1="105.27" y1="630.18" x2="85.35" y2="610.26"/>
<line class="st7" x1="74.7" y1="599.61" x2="55.87" y2="580.78"/>
<polyline class="st7" points="96.93,630.18 77.01,610.26 74.7,607.95 55.76,589 "/>
<line class="st7" x1="88.48" y1="630.18" x2="55.76" y2="597.46"/>
<line class="st7" x1="80.14" y1="630.18" x2="55.76" y2="605.8"/>
<line class="st7" x1="72.2" y1="630.18" x2="55.76" y2="613.74"/>
<line class="st7" x1="63.86" y1="630.18" x2="55.76" y2="622.08"/>
<line class="st7" x1="187.61" y1="548.52" x2="179.28" y2="540.19"/>
<path class="st1" d="M314.9,501.34v40.24c0,2.27-0.09,4.46-0.29,6.59c-0.31,3.54-0.88,6.89-1.71,10.04v0.01
	c-1.05,3.93-2.5,7.57-4.35,10.89c-1.13,2.04-2.4,3.95-3.82,5.73c-1.93,2.44-4.11,4.62-6.56,6.56c-2.45,1.94-5.15,3.64-8.12,5.1
	c-2.74,1.34-5.66,2.46-8.78,3.34c-3.25,0.93-6.71,1.61-10.37,2.04c-2.72,0.32-5.55,0.51-8.5,0.55c-0.53,0.02-1.06,0.02-1.6,0.02
	h-44.92v-60.71h19.92v41.77h25.68c1.07,0,2.11-0.03,3.13-0.09c3.74-0.2,7.15-0.79,10.23-1.76c4.32-1.35,7.99-3.46,11.01-6.31
	c3.38-3.18,5.77-7.14,7.16-11.86c0.89-3,1.38-6.31,1.46-9.93c0.02-0.4,0.02-0.8,0.02-1.2v-41.8c0-2.08-0.13-4.06-0.39-5.94
	c-0.32-2.41-0.85-4.66-1.6-6.74c-0.72-2.05-1.65-3.94-2.78-5.68c-1.07-1.66-2.33-3.18-3.78-4.55c-0.03-0.03-0.06-0.06-0.09-0.09
	c-1.33-1.25-2.79-2.36-4.38-3.33c-1.74-1.06-3.64-1.95-5.69-2.65c-2.11-0.75-4.38-1.29-6.81-1.65c-2.34-0.35-4.84-0.52-7.49-0.52
	H235.8v43.06h-19.92v-62.01h45.02c0.97,0,1.93,0.01,2.87,0.05c2.68,0.08,5.26,0.27,7.74,0.59c2.34,0.29,4.59,0.68,6.76,1.19
	c2.25,0.51,4.41,1.14,6.47,1.88c1.86,0.65,3.65,1.41,5.36,2.25c0.18,0.09,0.37,0.18,0.55,0.29c1.85,0.93,3.6,1.96,5.24,3.1
	c1.56,1.08,3.02,2.24,4.39,3.5c1.46,1.32,2.81,2.74,4.06,4.27c1.27,1.55,2.44,3.21,3.49,4.97c0.25,0.41,0.49,0.83,0.72,1.25
	c0.77,1.38,1.46,2.81,2.09,4.29c0.8,1.88,1.49,3.84,2.06,5.89c0.61,2.2,1.1,4.49,1.45,6.88c0.38,2.48,0.61,5.07,0.7,7.76
	C314.88,499.51,314.9,500.42,314.9,501.34z"/>
<line class="st26" x1="222.33" y1="450.46" x2="215.88" y2="456.91"/>
<line class="st26" x1="230.79" y1="450.46" x2="215.88" y2="465.37"/>
<line class="st26" x1="239.14" y1="450.46" x2="215.88" y2="473.72"/>
<line class="st26" x1="247.03" y1="450.46" x2="215.88" y2="481.61"/>
<polyline class="st26" points="255.36,450.46 236.41,469.41 235.8,470.02 215.88,489.94 "/>
<line class="st26" x1="263.77" y1="450.51" x2="244.87" y2="469.41"/>
<line class="st26" x1="235.8" y1="478.48" x2="215.88" y2="498.4"/>
<line class="st26" x1="271.51" y1="451.1" x2="253.2" y2="469.41"/>
<line class="st26" x1="235.8" y1="486.81" x2="215.88" y2="506.73"/>
<line class="st26" x1="278.27" y1="452.29" x2="261.15" y2="469.41"/>
<line class="st26" x1="235.8" y1="494.77" x2="218.1" y2="512.47"/>
<line class="st26" x1="284.74" y1="454.17" x2="268.97" y2="469.93"/>
<line class="st26" x1="235.8" y1="503.1" x2="226.43" y2="512.47"/>
<line class="st26" x1="290.65" y1="456.71" x2="275.78" y2="471.58"/>
<line class="st26" x1="235.8" y1="511.56" x2="234.89" y2="512.47"/>
<line class="st26" x1="295.89" y1="459.81" x2="281.47" y2="474.23"/>
<line class="st26" x1="223.96" y1="531.74" x2="215.88" y2="539.82"/>
<line class="st26" x1="300.28" y1="463.31" x2="285.94" y2="477.65"/>
<line class="st26" x1="231.85" y1="531.74" x2="215.88" y2="547.71"/>
<line class="st26" x1="304.34" y1="467.58" x2="289.72" y2="482.2"/>
<polyline class="st26" points="235.8,536.13 215.88,556.05 215.24,556.69 "/>
<line class="st26" x1="307.83" y1="472.55" x2="292.5" y2="487.88"/>
<line class="st26" x1="235.8" y1="544.59" x2="215.88" y2="564.51"/>
<line class="st26" x1="310.64" y1="478.09" x2="294.1" y2="494.62"/>
<line class="st26" x1="235.8" y1="552.92" x2="215.88" y2="572.84"/>
<line class="st26" x1="312.7" y1="483.98" x2="294.49" y2="502.18"/>
<line class="st26" x1="235.8" y1="560.88" x2="215.88" y2="580.8"/>
<line class="st26" x1="314.15" y1="490.86" x2="294.49" y2="510.52"/>
<line class="st26" x1="235.8" y1="569.21" x2="215.88" y2="589.13"/>
<line class="st26" x1="314.85" y1="498.62" x2="294.49" y2="518.98"/>
<line class="st26" x1="239.96" y1="573.51" x2="221.02" y2="592.45"/>
<line class="st26" x1="314.9" y1="506.9" x2="294.49" y2="527.31"/>
<line class="st26" x1="248.29" y1="573.51" x2="229.35" y2="592.45"/>
<line class="st26" x1="314.9" y1="514.8" x2="294.49" y2="535.21"/>
<line class="st26" x1="256.19" y1="573.51" x2="237.25" y2="592.45"/>
<line class="st26" x1="314.9" y1="523.13" x2="294.47" y2="543.56"/>
<line class="st26" x1="264.61" y1="573.42" x2="245.58" y2="592.45"/>
<line class="st26" x1="274.84" y1="571.66" x2="254.05" y2="592.45"/>
<line class="st26" x1="314.9" y1="531.59" x2="293.01" y2="553.49"/>
<line class="st26" x1="314.9" y1="539.93" x2="262.4" y2="592.43"/>
<line class="st26" x1="314.61" y1="548.17" x2="270.9" y2="591.88"/>
<polyline class="st26" points="281.27,589.84 312.9,558.22 312.9,558.21 "/>
<line class="st26" x1="304.73" y1="574.84" x2="298.17" y2="581.4"/>
<path class="st1" d="M432.69,450.46v61.96h-19.92v-43.01h-25.68c-1.72,0-3.38,0.07-4.98,0.23c-4.02,0.36-7.64,1.2-10.85,2.51
	c-3.27,1.32-6.11,3.13-8.54,5.41c-2.79,2.63-4.9,5.78-6.33,9.46c-1.24,3.14-1.97,6.65-2.22,10.56c-0.06,0.97-0.09,1.96-0.09,2.98
	v41.8c0,1.71,0.09,3.35,0.26,4.92c0.25,2.34,0.69,4.53,1.33,6.57c0.64,2.09,1.49,4.03,2.53,5.81c1.02,1.75,2.24,3.36,3.64,4.81
	c0.28,0.3,0.58,0.6,0.88,0.88c1.14,1.07,2.37,2.04,3.69,2.89c1.61,1.07,3.36,1.96,5.25,2.7c2.02,0.78,4.19,1.39,6.53,1.81
	c2.4,0.45,4.97,0.69,7.71,0.74c0.39,0.02,0.79,0.02,1.19,0.02h25.68v-41.82h19.92v60.76h-44.92c-1.52,0-3.02-0.04-4.48-0.11
	c-2.49-0.12-4.9-0.34-7.23-0.67c-2.42-0.34-4.74-0.79-6.98-1.35s-4.38-1.24-6.43-2.03c-1.42-0.54-2.8-1.14-4.13-1.79
	c-0.54-0.27-1.07-0.54-1.6-0.82c-1.72-0.93-3.35-1.94-4.89-3.06c-1.62-1.15-3.14-2.41-4.55-3.79c-1.45-1.37-2.78-2.86-4-4.45
	c-1.22-1.57-2.32-3.24-3.32-5.02c-0.05-0.08-0.09-0.17-0.14-0.25c-0.91-1.62-1.71-3.32-2.42-5.09c-0.81-2-1.5-4.09-2.05-6.28
	c-0.58-2.28-1.03-4.65-1.33-7.13c-0.32-2.5-0.5-5.1-0.54-7.8c-0.01-0.41-0.01-0.82-0.01-1.23v-40.24c0-2.87,0.15-5.63,0.46-8.28
	c0.43-3.79,1.17-7.35,2.22-10.68c0.96-3.05,2.19-5.91,3.67-8.58c4.23-7.62,10.38-13.41,18.45-17.38c2.06-1.01,4.22-1.89,6.49-2.65
	c3.42-1.13,7.08-1.97,10.98-2.52c2.89-0.41,5.92-0.66,9.08-0.75c0.87-0.03,1.76-0.04,2.65-0.04H432.69z"/>
<line class="st27" x1="364.96" y1="453.77" x2="336.35" y2="482.38"/>
<line class="st27" x1="375.94" y1="451.25" x2="334.13" y2="493.06"/>
<line class="st27" x1="385.02" y1="450.5" x2="333.67" y2="501.85"/>
<line class="st27" x1="392.95" y1="450.46" x2="371.26" y2="472.15"/>
<line class="st27" x1="356.39" y1="487.02" x2="333.67" y2="509.74"/>
<line class="st27" x1="401.29" y1="450.46" x2="382.11" y2="469.64"/>
<line class="st27" x1="354.17" y1="497.58" x2="333.67" y2="518.09"/>
<line class="st27" x1="409.75" y1="450.46" x2="390.8" y2="469.41"/>
<line class="st27" x1="354.08" y1="506.13" x2="333.67" y2="526.54"/>
<line class="st27" x1="418.09" y1="450.46" x2="399.14" y2="469.41"/>
<line class="st27" x1="354.08" y1="514.47" x2="333.67" y2="534.88"/>
<line class="st27" x1="426.04" y1="450.46" x2="407.09" y2="469.41"/>
<line class="st27" x1="354.08" y1="522.41" x2="333.68" y2="542.81"/>
<line class="st27" x1="432.69" y1="452.14" x2="412.77" y2="472.06"/>
<line class="st27" x1="354.08" y1="530.75" x2="334.22" y2="550.61"/>
<line class="st27" x1="432.69" y1="460.6" x2="412.77" y2="480.52"/>
<line class="st27" x1="354.08" y1="539.21" x2="335.55" y2="557.74"/>
<line class="st27" x1="432.69" y1="468.93" x2="412.77" y2="488.85"/>
<line class="st27" x1="354.34" y1="547.28" x2="337.6" y2="564.02"/>
<line class="st27" x1="432.69" y1="476.83" x2="412.77" y2="496.75"/>
<line class="st27" x1="355.67" y1="553.85" x2="340.16" y2="569.36"/>
<line class="st27" x1="432.69" y1="485.17" x2="412.77" y2="505.09"/>
<line class="st27" x1="358.2" y1="559.66" x2="343.48" y2="574.38"/>
<line class="st27" x1="432.69" y1="493.63" x2="413.9" y2="512.42"/>
<line class="st27" x1="361.84" y1="564.47" x2="347.48" y2="578.83"/>
<line class="st27" x1="432.69" y1="501.96" x2="422.23" y2="512.42"/>
<line class="st27" x1="366.41" y1="568.24" x2="352.03" y2="582.62"/>
<line class="st27" x1="432.69" y1="509.91" x2="430.18" y2="512.42"/>
<line class="st27" x1="371.66" y1="570.94" x2="356.92" y2="585.68"/>
<line class="st27" x1="419.24" y1="531.69" x2="412.77" y2="538.16"/>
<line class="st27" x1="378.19" y1="572.75" x2="362.65" y2="588.29"/>
<line class="st27" x1="427.71" y1="531.69" x2="412.77" y2="546.63"/>
<line class="st27" x1="385.9" y1="573.49" x2="369.08" y2="590.32"/>
<line class="st27" x1="432.69" y1="535.04" x2="412.77" y2="554.96"/>
<line class="st27" x1="394.22" y1="573.51" x2="376.06" y2="591.67"/>
<line class="st27" x1="432.69" y1="542.94" x2="412.77" y2="562.86"/>
<line class="st27" x1="402.12" y1="573.51" x2="383.29" y2="592.34"/>
<polyline class="st27" points="432.69,551.28 412.77,571.2 410.46,573.51 391.51,592.45 "/>
<line class="st27" x1="432.69" y1="559.73" x2="399.97" y2="592.45"/>
<line class="st27" x1="432.69" y1="568.07" x2="408.31" y2="592.45"/>
<line class="st27" x1="432.69" y1="576.01" x2="416.25" y2="592.45"/>
<line class="st27" x1="432.69" y1="584.35" x2="424.59" y2="592.45"/>
<line class="st27" x1="351.04" y1="460.6" x2="342.71" y2="468.93"/>
<path class="st1" d="M541.58,512.39h-40.24c-2.27,0-4.46-0.09-6.59-0.29c-3.54-0.31-6.89-0.88-10.04-1.71h-0.01
	c-3.93-1.05-7.57-2.5-10.89-4.35c-2.04-1.13-3.95-2.4-5.73-3.82c-2.44-1.93-4.62-4.11-6.56-6.56c-1.94-2.45-3.64-5.15-5.1-8.12
	c-1.34-2.74-2.46-5.66-3.34-8.78c-0.93-3.25-1.61-6.71-2.04-10.37c-0.32-2.72-0.51-5.55-0.55-8.5c-0.02-0.53-0.02-1.06-0.02-1.6
	v-44.92h60.71v19.92h-41.77v25.68c0,1.07,0.03,2.11,0.09,3.13c0.2,3.74,0.79,7.15,1.76,10.23c1.35,4.32,3.46,7.99,6.31,11.01
	c3.18,3.38,7.14,5.77,11.86,7.16c3,0.89,6.31,1.38,9.93,1.46c0.4,0.02,0.8,0.02,1.2,0.02l41.8,0c2.08,0,4.06-0.13,5.94-0.39
	c2.41-0.32,4.66-0.85,6.74-1.6c2.05-0.72,3.94-1.65,5.68-2.78c1.66-1.07,3.18-2.33,4.55-3.78c0.03-0.03,0.06-0.06,0.09-0.09
	c1.25-1.33,2.36-2.79,3.33-4.38c1.06-1.74,1.95-3.64,2.65-5.69c0.75-2.11,1.29-4.38,1.65-6.81c0.35-2.34,0.52-4.84,0.52-7.49v-25.68
	l-43.06,0v-19.92l62.01,0v45.02c0,0.97-0.01,1.93-0.05,2.87c-0.08,2.68-0.27,5.26-0.59,7.74c-0.29,2.34-0.68,4.59-1.19,6.76
	c-0.51,2.25-1.14,4.41-1.88,6.47c-0.65,1.86-1.41,3.65-2.25,5.36c-0.09,0.18-0.18,0.37-0.29,0.55c-0.93,1.85-1.96,3.6-3.1,5.24
	c-1.08,1.56-2.24,3.02-3.5,4.39c-1.32,1.46-2.74,2.81-4.27,4.06c-1.55,1.27-3.21,2.44-4.97,3.49c-0.41,0.25-0.83,0.49-1.25,0.72
	c-1.38,0.77-2.81,1.46-4.29,2.09c-1.88,0.8-3.84,1.49-5.89,2.06c-2.2,0.61-4.49,1.1-6.88,1.45c-2.48,0.38-5.07,0.61-7.76,0.7
	C543.41,512.37,542.5,512.39,541.58,512.39z"/>
<line class="st24" x1="592.46" y1="419.82" x2="586.01" y2="413.37"/>
<line class="st24" x1="592.46" y1="428.28" x2="577.55" y2="413.37"/>
<line class="st24" x1="592.46" y1="436.63" x2="569.2" y2="413.37"/>
<line class="st24" x1="592.46" y1="444.52" x2="561.31" y2="413.37"/>
<polyline class="st24" points="592.46,452.85 573.51,433.9 572.9,433.29 552.98,413.37 "/>
<line class="st24" x1="592.41" y1="461.26" x2="573.51" y2="442.36"/>
<line class="st24" x1="564.44" y1="433.29" x2="544.52" y2="413.37"/>
<line class="st24" x1="591.82" y1="469" x2="573.51" y2="450.69"/>
<line class="st24" x1="556.11" y1="433.29" x2="536.19" y2="413.37"/>
<line class="st24" x1="590.63" y1="475.76" x2="573.51" y2="458.64"/>
<line class="st24" x1="548.15" y1="433.29" x2="530.45" y2="415.59"/>
<line class="st24" x1="588.75" y1="482.23" x2="572.99" y2="466.46"/>
<line class="st24" x1="539.82" y1="433.29" x2="530.45" y2="423.92"/>
<line class="st24" x1="586.21" y1="488.14" x2="571.34" y2="473.27"/>
<line class="st24" x1="531.36" y1="433.29" x2="530.45" y2="432.38"/>
<line class="st24" x1="583.11" y1="493.38" x2="568.69" y2="478.96"/>
<line class="st24" x1="511.18" y1="421.45" x2="503.1" y2="413.37"/>
<line class="st24" x1="579.61" y1="497.77" x2="565.27" y2="483.43"/>
<line class="st24" x1="511.18" y1="429.34" x2="495.21" y2="413.37"/>
<line class="st24" x1="575.34" y1="501.83" x2="560.72" y2="487.21"/>
<polyline class="st24" points="506.79,433.29 486.87,413.37 486.23,412.73 "/>
<line class="st24" x1="570.37" y1="505.32" x2="555.04" y2="489.99"/>
<line class="st24" x1="498.33" y1="433.29" x2="478.41" y2="413.37"/>
<line class="st24" x1="564.83" y1="508.13" x2="548.3" y2="491.59"/>
<line class="st24" x1="490" y1="433.29" x2="470.08" y2="413.37"/>
<line class="st24" x1="558.94" y1="510.19" x2="540.74" y2="491.98"/>
<line class="st24" x1="482.04" y1="433.29" x2="462.12" y2="413.37"/>
<line class="st24" x1="552.06" y1="511.64" x2="532.4" y2="491.98"/>
<line class="st24" x1="473.71" y1="433.29" x2="453.79" y2="413.37"/>
<line class="st24" x1="544.3" y1="512.34" x2="523.94" y2="491.98"/>
<line class="st24" x1="469.41" y1="437.45" x2="450.47" y2="418.51"/>
<line class="st24" x1="536.02" y1="512.39" x2="515.61" y2="491.98"/>
<line class="st24" x1="469.41" y1="445.78" x2="450.47" y2="426.84"/>
<line class="st24" x1="528.12" y1="512.39" x2="507.71" y2="491.98"/>
<line class="st24" x1="469.41" y1="453.68" x2="450.47" y2="434.74"/>
<line class="st24" x1="519.79" y1="512.39" x2="499.36" y2="491.96"/>
<line class="st24" x1="469.5" y1="462.1" x2="450.47" y2="443.07"/>
<line class="st24" x1="471.26" y1="472.33" x2="450.47" y2="451.54"/>
<line class="st24" x1="511.33" y1="512.39" x2="489.43" y2="490.5"/>
<line class="st24" x1="502.99" y1="512.39" x2="450.49" y2="459.89"/>
<line class="st24" x1="494.75" y1="512.1" x2="451.04" y2="468.39"/>
<polyline class="st24" points="453.08,478.76 484.7,510.39 484.71,510.39 "/>
<line class="st24" x1="468.08" y1="502.22" x2="461.52" y2="495.66"/>
<path class="st1" d="M592.46,630.18H530.5v-19.92h43.01v-25.68c0-1.72-0.07-3.38-0.23-4.98c-0.36-4.02-1.2-7.64-2.51-10.85
	c-1.32-3.27-3.13-6.11-5.41-8.54c-2.63-2.79-5.78-4.9-9.46-6.33c-3.14-1.24-6.65-1.97-10.56-2.22c-0.97-0.06-1.96-0.09-2.98-0.09
	h-41.8c-1.71,0-3.35,0.09-4.92,0.26c-2.34,0.25-4.53,0.69-6.57,1.33c-2.09,0.64-4.03,1.49-5.81,2.53c-1.75,1.02-3.36,2.24-4.81,3.64
	c-0.3,0.28-0.6,0.58-0.88,0.88c-1.07,1.14-2.04,2.37-2.89,3.69c-1.07,1.61-1.96,3.36-2.7,5.25c-0.78,2.02-1.39,4.19-1.81,6.53
	c-0.45,2.4-0.69,4.97-0.74,7.71c-0.02,0.39-0.02,0.79-0.02,1.19v25.68h41.82v19.92h-60.76v-44.92c0-1.52,0.04-3.02,0.11-4.48
	c0.12-2.49,0.34-4.9,0.67-7.23c0.34-2.42,0.79-4.74,1.35-6.98s1.24-4.38,2.03-6.43c0.54-1.42,1.14-2.8,1.79-4.13
	c0.27-0.54,0.54-1.07,0.82-1.6c0.93-1.72,1.94-3.35,3.06-4.89c1.15-1.62,2.41-3.14,3.79-4.55c1.37-1.45,2.86-2.78,4.45-4
	c1.57-1.22,3.24-2.32,5.02-3.32c0.08-0.05,0.17-0.09,0.25-0.14c1.62-0.91,3.32-1.71,5.09-2.42c2-0.81,4.09-1.5,6.28-2.05
	c2.28-0.58,4.65-1.03,7.13-1.33c2.5-0.32,5.1-0.5,7.8-0.54c0.41-0.01,0.82-0.01,1.23-0.01h40.24c2.87,0,5.63,0.15,8.28,0.46
	c3.79,0.43,7.35,1.17,10.68,2.22c3.05,0.96,5.91,2.19,8.58,3.67c7.62,4.23,13.41,10.38,17.38,18.45c1.01,2.06,1.89,4.22,2.65,6.49
	c1.13,3.42,1.97,7.08,2.52,10.98c0.41,2.89,0.66,5.92,0.75,9.08c0.03,0.87,0.04,1.76,0.04,2.65V630.18z"/>
<line class="st25" x1="589.15" y1="562.45" x2="560.54" y2="533.84"/>
<line class="st25" x1="591.67" y1="573.43" x2="549.86" y2="531.62"/>
<line class="st25" x1="592.42" y1="582.51" x2="541.07" y2="531.16"/>
<line class="st25" x1="592.46" y1="590.44" x2="570.77" y2="568.75"/>
<line class="st25" x1="555.9" y1="553.88" x2="533.18" y2="531.16"/>
<line class="st25" x1="592.46" y1="598.78" x2="573.28" y2="579.6"/>
<line class="st25" x1="545.34" y1="551.66" x2="524.83" y2="531.16"/>
<line class="st25" x1="592.46" y1="607.24" x2="573.51" y2="588.29"/>
<line class="st25" x1="536.79" y1="551.57" x2="516.38" y2="531.16"/>
<line class="st25" x1="592.46" y1="615.58" x2="573.51" y2="596.63"/>
<line class="st25" x1="528.45" y1="551.57" x2="508.04" y2="531.16"/>
<line class="st25" x1="592.46" y1="623.53" x2="573.51" y2="604.58"/>
<line class="st25" x1="520.51" y1="551.57" x2="500.11" y2="531.17"/>
<line class="st25" x1="590.78" y1="630.18" x2="570.86" y2="610.26"/>
<line class="st25" x1="512.17" y1="551.57" x2="492.31" y2="531.71"/>
<line class="st25" x1="582.32" y1="630.18" x2="562.4" y2="610.26"/>
<line class="st25" x1="503.71" y1="551.57" x2="485.18" y2="533.04"/>
<line class="st25" x1="573.99" y1="630.18" x2="554.07" y2="610.26"/>
<line class="st25" x1="495.64" y1="551.83" x2="478.9" y2="535.09"/>
<line class="st25" x1="566.09" y1="630.18" x2="546.17" y2="610.26"/>
<line class="st25" x1="489.07" y1="553.16" x2="473.56" y2="537.65"/>
<line class="st25" x1="557.75" y1="630.18" x2="537.83" y2="610.26"/>
<line class="st25" x1="483.26" y1="555.69" x2="468.54" y2="540.97"/>
<line class="st25" x1="549.29" y1="630.18" x2="530.5" y2="611.39"/>
<line class="st25" x1="478.45" y1="559.33" x2="464.09" y2="544.97"/>
<line class="st25" x1="540.96" y1="630.18" x2="530.5" y2="619.72"/>
<line class="st25" x1="474.68" y1="563.9" x2="460.3" y2="549.52"/>
<line class="st25" x1="533.01" y1="630.18" x2="530.5" y2="627.67"/>
<line class="st25" x1="471.98" y1="569.15" x2="457.24" y2="554.41"/>
<line class="st25" x1="511.23" y1="616.73" x2="504.76" y2="610.26"/>
<line class="st25" x1="470.17" y1="575.68" x2="454.63" y2="560.14"/>
<line class="st25" x1="511.23" y1="625.2" x2="496.29" y2="610.26"/>
<line class="st25" x1="469.43" y1="583.39" x2="452.6" y2="566.57"/>
<line class="st25" x1="507.88" y1="630.18" x2="487.96" y2="610.26"/>
<line class="st25" x1="469.41" y1="591.71" x2="451.25" y2="573.55"/>
<line class="st25" x1="499.98" y1="630.18" x2="480.06" y2="610.26"/>
<line class="st25" x1="469.41" y1="599.61" x2="450.58" y2="580.78"/>
<polyline class="st25" points="491.64,630.18 471.72,610.26 469.41,607.95 450.47,589 "/>
<line class="st25" x1="483.19" y1="630.18" x2="450.47" y2="597.46"/>
<line class="st25" x1="474.85" y1="630.18" x2="450.47" y2="605.8"/>
<line class="st25" x1="466.91" y1="630.18" x2="450.47" y2="613.74"/>
<line class="st25" x1="458.57" y1="630.18" x2="450.47" y2="622.08"/>
<line class="st25" x1="582.32" y1="548.52" x2="573.99" y2="540.19"/>
</svg>
