<?xml version="1.0" encoding="utf-8"?>
<!-- Generator: Adobe Illustrator 24.3.0, SVG Export Plug-In . SVG Version: 6.00 Build 0)  -->
<svg version="1.1" id="Layer_1" xmlns="http://www.w3.org/2000/svg" xmlns:xlink="http://www.w3.org/1999/xlink" x="0px" y="0px"
	 viewBox="0 0 559 320" style="enable-background:new 0 0 559 320;" xml:space="preserve">
<style type="text/css">
	.st0{fill:none;stroke:#E1E4E5;stroke-width:4;}
	.st1{opacity:0.5;fill:#F4B449;}
	.st2{fill-rule:evenodd;clip-rule:evenodd;fill:#F4B449;}
	.st3{fill:none;stroke:#E1E4E5;stroke-width:5.5;stroke-linecap:round;stroke-linejoin:round;}
	.st4{fill:#F4B449;}
</style>
<g>
	<path class="st0" d="M493.6,15.1H87.4C75.6,15.1,66,24.6,66,36.4v253.4c0,11.8,9.6,21.3,21.4,21.3h406.2c11.8,0,21.4-9.5,21.4-21.3
		V36.4C515,24.6,505.4,15.1,493.6,15.1z"/>
	<polyline class="st0" points="87.4,15.1 250,15.1 329,15.1 493.6,15.1 	"/>
	<line class="st0" x1="514.6" y1="32.1" x2="66.4" y2="32.1"/>
	<path class="st0" d="M329,15.1c0-0.2,0-0.3,0-0.5c0-4.1-3.4-7.5-7.5-7.5h-64c-2.1,0-3.9,0.8-5.3,2.2c-1.4,1.3-2.2,3.2-2.2,5.3
		c0,0.2,0,0.3,0,0.5"/>
	<path class="st1" d="M30.1,147.3C21.7,155,7,152.5,7,152.5s-1.2-14.9,7.1-22.6c8.4-7.7,23.1-5.2,23.1-5.2S38.4,139.6,30.1,147.3
		L30.1,147.3z"/>
	<circle class="st1" cx="26" cy="213.1" r="7"/>
	<ellipse class="st1" cx="33" cy="51.6" rx="8" ry="8.5"/>
	<circle class="st1" cx="517" cy="251.1" r="10"/>
	
		<ellipse transform="matrix(0.2588 -0.9659 0.9659 0.2588 319.0375 572.0643)" class="st1" cx="532.3" cy="78.1" rx="3.3" ry="3.3"/>
	<circle class="st1" cx="548" cy="135.1" r="5"/>
	<g>
		<path class="st2" d="M223.4,119.6l-59,34.1c-0.2,0.1-0.4,0.2-0.5,0.3c0.1,0.2,0.3,0.3,0.4,0.5l3.1,3.1l45.1,45.1
			c12.1-12.8,19.6-30.1,19.6-49.1C232,141.3,228.8,129.7,223.4,119.6z"/>
		<path class="st2" d="M162.5,150.1l58.9-34c-12.3-19.9-34-33.3-58.9-34V150.1z"/>
		<path class="st2" d="M164.1,160l-2.6-2.6l-17.6,65.7c5.3,1.3,10.9,1.9,16.6,1.9c19,0,36.3-7.4,49.1-19.5L164.1,160z"/>
		<path class="st2" d="M157.7,156.2c0.3-1,0.7-2,1.3-2.9c-0.3-1-0.5-2-0.5-3.1V82.2C119.9,83.2,89,114.8,89,153.6
			c0,32.4,21.5,59.7,51.1,68.5L157.7,156.2z"/>
	</g>
	<path class="st3" d="M264.6,189.7h51 M379.4,189.7h57.7 M379.4,227.3h57.7 M264.6,206.1h84.8 M379.4,206.1h84.5 M379.4,243.6h84.5
		 M264.6,228h51 M264.6,244.4h84.8"/>
	<path class="st4" d="M314.7,82.1h10.1c5.5,0,10,4.5,10,10v69.3c0,5.5-4.5,10-10,10h-10.1c-5.5,0-10-4.5-10-10V92.1
		C304.7,86.6,309.1,82.1,314.7,82.1z"/>
	<path class="st4" d="M404,82.1h10.1c5.5,0,10,4.5,10,10v69.3c0,5.5-4.5,10-10,10H404c-5.5,0-10-4.5-10-10V92.1
		C394,86.6,398.5,82.1,404,82.1z"/>
	<path class="st1" d="M270,118.6h10.1c5.5,0,10,4.5,10,10v32.9c0,5.5-4.5,10-10,10H270c-5.5,0-10-4.5-10-10v-32.9
		C260,123.1,264.5,118.6,270,118.6z"/>
	<path class="st1" d="M359.3,118.6h10.1c5.5,0,10,4.5,10,10v32.9c0,5.5-4.5,10-10,10h-10.1c-5.5,0-10-4.5-10-10v-32.9
		C349.3,123.1,353.8,118.6,359.3,118.6z"/>
	<path class="st1" d="M448.7,118.6h10.1c5.5,0,10,4.5,10,10v32.9c0,5.5-4.5,10-10,10h-10.1c-5.5,0-10-4.5-10-10v-32.9
		C438.7,123.1,443.2,118.6,448.7,118.6z"/>
</g>
</svg>
