<?xml version="1.0" encoding="utf-8"?>
<!-- Generator: Adobe Illustrator 24.3.0, SVG Export Plug-In . SVG Version: 6.00 Build 0)  -->
<svg version="1.1" id="Layer_1" xmlns="http://www.w3.org/2000/svg" xmlns:xlink="http://www.w3.org/1999/xlink" x="0px" y="0px"
	 viewBox="0 0 93.54 23.46" style="enable-background:new 0 0 93.54 23.46;" xml:space="preserve">
<style type="text/css">
	.st0{fill:#231F20;stroke:#231F20;stroke-miterlimit:10;}
	.st1{fill:none;}
	.st2{fill:none;stroke:#E1022B;stroke-width:2;}
	.st3{fill:none;stroke:#F4B449;stroke-width:2;}
	.st4{fill:none;stroke:#589D65;stroke-width:2;}
	.st5{fill:none;stroke:#E3598F;stroke-width:2;}
	.st6{fill:none;stroke:#22AD9A;stroke-width:2;}
	.st7{fill:none;stroke:#EE3A00;stroke-width:2;}
	.st8{fill:none;stroke:#E1022B;stroke-width:0.28;}
	.st9{fill:none;stroke:#F4B449;stroke-width:0.28;}
	.st10{fill:none;stroke:#589D65;stroke-width:0.28;}
	.st11{fill:none;stroke:#E3598F;stroke-width:0.28;}
	.st12{fill:none;stroke:#22AD9A;stroke-width:0.28;}
	.st13{fill:none;stroke:#EE3A00;stroke-width:0.28;}
	.st14{fill:none;stroke:#000000;}
	.st15{fill:#FFFFFF;stroke:#000000;}
	.st16{fill:#E1022B;}
	.st17{fill:#FFFFFF;}
	.st18{fill:#F4B449;}
	.st19{fill:none;stroke:#E1022B;}
	.st20{fill:#E3598F;}
	.st21{fill:#589D65;}
	.st22{fill:#EE3A00;}
	.st23{fill:#22AD9A;}
	.st24{fill:none;stroke:#E3598F;stroke-width:2;stroke-miterlimit:10;}
	.st25{fill:none;stroke:#E1022B;stroke-width:2;stroke-miterlimit:10;}
	.st26{fill:none;stroke:#F4B449;stroke-width:2;stroke-miterlimit:10;}
	.st27{fill:none;stroke:#589D65;stroke-width:2;stroke-miterlimit:10;}
	.st28{fill:#FFFFFF;stroke:#FFFFFF;stroke-miterlimit:10;}
	.st29{fill:#E1022B;stroke:#E1022B;stroke-width:0.28;}
	.st30{fill:#F4B449;stroke:#F4B449;stroke-width:0.28;}
	.st31{fill:#589D65;stroke:#589D65;stroke-width:0.28;}
	.st32{fill:#E3598F;stroke:#E3598F;stroke-width:0.28;}
	.st33{fill:#22AD9A;stroke:#22AD9A;stroke-width:0.28;}
	.st34{fill:#EE3A00;stroke:#EE3A00;stroke-width:0.28;}
	.st35{fill:#231F20;stroke:#F4B449;stroke-miterlimit:10;}
	.st36{fill:none;stroke:#F4B449;stroke-miterlimit:10;}
	.st37{fill:#231F20;stroke:#22AD9A;stroke-miterlimit:10;}
	.st38{fill:none;stroke:#22AD9A;stroke-miterlimit:10;}
	.st39{fill:#231F20;stroke:#EE3A00;stroke-miterlimit:10;}
	.st40{fill:none;stroke:#EE3A00;stroke-miterlimit:10;}
	.st41{fill:#231F20;stroke:#E3598F;stroke-miterlimit:10;}
	.st42{fill:none;stroke:#E3598F;stroke-miterlimit:10;}
	.st43{fill:#231F20;stroke:#589D65;stroke-miterlimit:10;}
	.st44{fill:none;stroke:#589D65;stroke-miterlimit:10;}
	.st45{fill:#231F20;stroke:#E1022B;stroke-miterlimit:10;}
	.st46{fill:none;stroke:#E1022B;stroke-miterlimit:10;}
	.st47{opacity:0.2;fill-rule:evenodd;clip-rule:evenodd;fill:#EFEAEB;}
	.st48{fill-rule:evenodd;clip-rule:evenodd;fill:#F4B449;}
	.st49{fill-rule:evenodd;clip-rule:evenodd;fill:#E1022B;}
	.st50{fill-rule:evenodd;clip-rule:evenodd;fill:#E3598F;}
	.st51{fill:none;stroke:#22AD9A;stroke-width:2;stroke-miterlimit:10;}
</style>
<path class="st1" d="M15.3,15.02c-0.06-0.31-0.15-0.61-0.26-0.9v0c-0.03-0.09-0.07-0.17-0.11-0.25c-0.09-0.19-0.18-0.36-0.29-0.53
	c-0.15-0.24-0.32-0.46-0.51-0.66c-0.17-0.18-0.35-0.34-0.54-0.5c-0.01-0.01-0.02-0.02-0.04-0.03c-0.23-0.17-0.47-0.32-0.73-0.44
	c-0.28-0.13-0.57-0.23-0.88-0.31c-0.14-0.03-0.28-0.06-0.43-0.08c0.24-0.04,0.47-0.1,0.68-0.17l0,0c0.51-0.16,0.95-0.39,1.33-0.68
	c0.54-0.42,0.95-0.94,1.21-1.53c0.07-0.17,0.14-0.34,0.19-0.52c0.13-0.44,0.2-0.89,0.2-1.37V7.01c0-0.35-0.02-0.69-0.07-1.01
	c-0.04-0.34-0.11-0.66-0.21-0.96c-0.09-0.3-0.2-0.58-0.34-0.84c-0.01-0.02-0.02-0.04-0.03-0.05c-0.12-0.23-0.27-0.45-0.43-0.66
	c-0.16-0.2-0.34-0.39-0.54-0.56c-0.21-0.18-0.43-0.34-0.68-0.48c-0.09-0.05-0.19-0.11-0.29-0.16c-0.16-0.08-0.34-0.16-0.52-0.23
	c-0.28-0.11-0.59-0.19-0.91-0.26c-0.31-0.06-0.63-0.11-0.97-0.14C9.89,1.64,9.61,1.63,9.32,1.63H1.49v19.88h8.07
	c0.13,0,0.26,0,0.38-0.01c0.47-0.02,0.92-0.08,1.34-0.18c0.49-0.11,0.94-0.27,1.37-0.49c0.29-0.15,0.56-0.31,0.81-0.5l0,0
	c0.34-0.26,0.64-0.56,0.89-0.89l0,0c0.12-0.16,0.23-0.33,0.33-0.5c0.28-0.49,0.48-1.03,0.6-1.61c0.08-0.39,0.11-0.8,0.11-1.23v-0.05
	C15.39,15.69,15.36,15.35,15.3,15.02z M4.26,10.05V4.21h4.55c0.36,0,0.69,0.02,0.99,0.07c0.35,0.05,0.66,0.14,0.93,0.25
	c0.27,0.11,0.5,0.25,0.7,0.42c0.01,0.01,0.02,0.02,0.03,0.02c0.2,0.17,0.36,0.38,0.49,0.61c0.14,0.25,0.24,0.55,0.3,0.87
	c0.04,0.22,0.06,0.46,0.06,0.72c0,0.15-0.01,0.29-0.02,0.43v0l0,0c-0.07,0.74-0.32,1.31-0.76,1.72c-0.4,0.37-0.95,0.6-1.64,0.68
	c-0.22,0.03-0.45,0.04-0.69,0.04H4.26z M9.06,18.91c-0.18,0.01-0.36,0.02-0.55,0.02H4.26v-6.36H9.2c0.14,0,0.27,0,0.4,0.01
	c0.37,0.02,0.7,0.08,1,0.17c0.19,0.06,0.37,0.13,0.53,0.21c0.1,0.05,0.19,0.11,0.28,0.17c0.24,0.16,0.43,0.35,0.6,0.57
	c0.09,0.12,0.16,0.24,0.22,0.38c0.05,0.11,0.1,0.23,0.15,0.36c0.1,0.3,0.16,0.62,0.19,0.98c0.01,0.13,0.02,0.26,0.02,0.4v0.04
	c0,0.29-0.03,0.57-0.09,0.82c-0.13,0.59-0.43,1.07-0.88,1.45c-0.3,0.25-0.68,0.44-1.14,0.57C10.06,18.81,9.59,18.88,9.06,18.91z"/>
<line class="st8" x1="2.04" y1="1.63" x2="1.49" y2="2.18"/>
<line class="st8" x1="3.21" y1="1.63" x2="1.49" y2="3.35"/>
<line class="st8" x1="4.39" y1="1.63" x2="1.49" y2="4.53"/>
<line class="st8" x1="5.56" y1="1.63" x2="1.49" y2="5.7"/>
<line class="st8" x1="6.67" y1="1.63" x2="1.49" y2="6.8"/>
<line class="st8" x1="7.83" y1="1.63" x2="5.25" y2="4.21"/>
<line class="st8" x1="4.26" y1="5.2" x2="1.49" y2="7.97"/>
<line class="st8" x1="9.02" y1="1.63" x2="6.43" y2="4.21"/>
<line class="st8" x1="4.26" y1="6.38" x2="1.49" y2="9.16"/>
<line class="st8" x1="10.15" y1="1.66" x2="7.6" y2="4.21"/>
<line class="st8" x1="4.26" y1="7.55" x2="1.49" y2="10.32"/>
<line class="st8" x1="11.13" y1="1.8" x2="8.72" y2="4.21"/>
<line class="st8" x1="4.26" y1="8.66" x2="1.49" y2="11.44"/>
<line class="st8" x1="12.03" y1="2.06" x2="9.81" y2="4.28"/>
<line class="st8" x1="4.26" y1="9.83" x2="1.49" y2="12.6"/>
<line class="st8" x1="12.84" y1="2.44" x2="10.74" y2="4.53"/>
<line class="st8" x1="5.23" y1="10.05" x2="1.49" y2="13.79"/>
<line class="st8" x1="13.52" y1="2.93" x2="11.47" y2="4.97"/>
<line class="st8" x1="6.39" y1="10.05" x2="1.49" y2="14.95"/>
<line class="st8" x1="14.06" y1="3.49" x2="11.96" y2="5.59"/>
<line class="st8" x1="7.5" y1="10.05" x2="4.98" y2="12.57"/>
<line class="st8" x1="4.26" y1="13.29" x2="1.49" y2="16.06"/>
<line class="st8" x1="14.52" y1="4.2" x2="12.26" y2="6.46"/>
<line class="st8" x1="4.26" y1="14.45" x2="1.49" y2="17.23"/>
<line class="st8" x1="8.67" y1="10.05" x2="6.15" y2="12.57"/>
<polyline class="st8" points="14.86,5.04 12.3,7.6 12.3,7.61 12.3,7.61 "/>
<line class="st8" x1="4.26" y1="15.64" x2="1.49" y2="18.41"/>
<line class="st8" x1="9.89" y1="10.01" x2="7.33" y2="12.57"/>
<line class="st8" x1="15.07" y1="6" x2="8.5" y2="12.57"/>
<line class="st8" x1="4.26" y1="16.8" x2="1.49" y2="19.58"/>
<line class="st8" x1="15.13" y1="7.05" x2="9.6" y2="12.58"/>
<line class="st8" x1="4.26" y1="17.92" x2="1.49" y2="20.69"/>
<polyline class="st8" points="14.93,8.42 12.2,11.15 12.2,11.15 11.94,11.4 10.6,12.74 "/>
<line class="st8" x1="4.43" y1="18.92" x2="1.84" y2="21.51"/>
<line class="st8" x1="5.61" y1="18.92" x2="3.03" y2="21.51"/>
<line class="st8" x1="12.82" y1="11.71" x2="11.41" y2="13.12"/>
<line class="st8" x1="6.78" y1="18.92" x2="4.19" y2="21.51"/>
<line class="st8" x1="13.55" y1="12.15" x2="12.01" y2="13.69"/>
<line class="st8" x1="7.88" y1="18.92" x2="5.3" y2="21.51"/>
<line class="st8" x1="14.13" y1="12.67" x2="12.37" y2="14.43"/>
<line class="st8" x1="9.06" y1="18.91" x2="6.47" y2="21.51"/>
<line class="st8" x1="14.64" y1="13.33" x2="12.56" y2="15.41"/>
<polyline class="st8" points="15.04,14.12 15.04,14.12 12.49,16.67 "/>
<line class="st8" x1="10.47" y1="18.69" x2="7.65" y2="21.51"/>
<line class="st8" x1="15.3" y1="15.02" x2="8.82" y2="21.51"/>
<line class="st8" x1="15.39" y1="16.04" x2="9.94" y2="21.5"/>
<line class="st8" x1="15.28" y1="17.32" x2="11.28" y2="21.32"/>
<line class="st8" x1="14.35" y1="19.44" x2="13.45" y2="20.33"/>
<path class="st1" d="M33.64,21.41l-0.41-0.78l-0.4-0.76l-0.37-0.71l-0.41-0.78l-0.4-0.76l-0.39-0.73l-0.4-0.76l-0.41-0.78l-0.4-0.76
	l-0.38-0.72l-0.4-0.76l-0.15-0.29c0.25-0.08,0.49-0.17,0.73-0.28c0.09-0.04,0.18-0.09,0.27-0.14c0.87-0.47,1.55-1.15,2.03-2.02
	c0.05-0.1,0.1-0.2,0.15-0.3c0.25-0.52,0.42-1.08,0.5-1.69c0.05-0.33,0.07-0.67,0.07-1.03c0-0.07,0-0.14,0-0.2
	c-0.01-0.35-0.04-0.69-0.1-1.02c-0.06-0.32-0.13-0.63-0.24-0.93c-0.1-0.29-0.22-0.56-0.36-0.82c-0.01-0.01-0.01-0.03-0.02-0.04
	c-0.13-0.24-0.28-0.46-0.44-0.67c-0.16-0.21-0.33-0.4-0.52-0.58c-0.2-0.19-0.42-0.36-0.65-0.52c-0.13-0.09-0.27-0.17-0.41-0.25
	C30,2.27,29.89,2.21,29.77,2.16h0c-0.27-0.12-0.56-0.23-0.86-0.31c-0.3-0.08-0.61-0.14-0.93-0.18c-0.29-0.03-0.58-0.05-0.89-0.05
	H19.2v19.89h2.79v-8.41h4.15l0.26,0.51l0.39,0.78l0.4,0.79l0.39,0.78l0.37,0.73l0.39,0.78l0.4,0.79l0.39,0.78l0.37,0.74l0.39,0.78
	l0.4,0.79l0.09,0.18h3.31L33.64,21.41z M27.2,10.45h-5.21V4.27h5.21c0.15,0,0.29,0.01,0.43,0.03c0.32,0.04,0.62,0.14,0.89,0.29
	c0.03,0.02,0.07,0.04,0.1,0.06c0.2,0.13,0.39,0.28,0.54,0.47c0.16,0.18,0.29,0.39,0.4,0.62c0.01,0.02,0.02,0.04,0.03,0.06
	c0.13,0.28,0.21,0.58,0.26,0.9c0.03,0.21,0.05,0.43,0.05,0.66c0,0.18-0.01,0.35-0.03,0.51c-0.04,0.41-0.15,0.78-0.31,1.11
	c-0.22,0.47-0.54,0.83-0.95,1.09c-0.39,0.24-0.83,0.37-1.32,0.38C27.25,10.45,27.22,10.45,27.2,10.45z"/>
<line class="st9" x1="19.88" y1="1.62" x2="19.2" y2="2.31"/>
<line class="st9" x1="21.05" y1="1.62" x2="19.2" y2="3.47"/>
<line class="st9" x1="22.23" y1="1.62" x2="19.2" y2="4.66"/>
<line class="st9" x1="23.4" y1="1.62" x2="19.2" y2="5.82"/>
<line class="st9" x1="24.51" y1="1.62" x2="19.2" y2="6.93"/>
<line class="st9" x1="25.67" y1="1.62" x2="23.02" y2="4.27"/>
<line class="st9" x1="21.99" y1="5.31" x2="19.2" y2="8.1"/>
<line class="st9" x1="26.86" y1="1.62" x2="24.2" y2="4.27"/>
<line class="st9" x1="21.99" y1="6.49" x2="19.2" y2="9.28"/>
<line class="st9" x1="27.97" y1="1.67" x2="25.37" y2="4.27"/>
<line class="st9" x1="21.99" y1="7.66" x2="19.2" y2="10.45"/>
<line class="st9" x1="28.91" y1="1.85" x2="26.48" y2="4.27"/>
<line class="st9" x1="21.99" y1="8.77" x2="19.2" y2="11.56"/>
<polyline class="st9" points="29.77,2.16 29.77,2.16 27.62,4.3 "/>
<line class="st9" x1="21.99" y1="9.94" x2="19.2" y2="12.73"/>
<line class="st9" x1="30.53" y1="2.58" x2="28.51" y2="4.6"/>
<line class="st9" x1="22.65" y1="10.45" x2="19.2" y2="13.91"/>
<line class="st9" x1="31.18" y1="3.1" x2="29.15" y2="5.12"/>
<line class="st9" x1="23.82" y1="10.45" x2="19.2" y2="15.08"/>
<line class="st9" x1="31.7" y1="3.68" x2="29.58" y2="5.8"/>
<polyline class="st9" points="24.93,10.45 22.28,13.11 21.99,13.4 19.2,16.18 "/>
<line class="st9" x1="32.16" y1="4.39" x2="29.84" y2="6.71"/>
<line class="st9" x1="26.09" y1="10.45" x2="23.44" y2="13.11"/>
<line class="st9" x1="21.99" y1="14.56" x2="19.2" y2="17.35"/>
<line class="st9" x1="32.52" y1="5.21" x2="29.86" y2="7.87"/>
<line class="st9" x1="27.28" y1="10.45" x2="24.63" y2="13.11"/>
<line class="st9" x1="21.99" y1="15.75" x2="19.2" y2="18.54"/>
<line class="st9" x1="32.76" y1="6.14" x2="25.79" y2="13.11"/>
<line class="st9" x1="21.99" y1="16.91" x2="19.2" y2="19.7"/>
<line class="st9" x1="32.85" y1="7.16" x2="26.4" y2="13.62"/>
<line class="st9" x1="21.99" y1="18.03" x2="19.2" y2="20.82"/>
<line class="st9" x1="32.78" y1="8.39" x2="26.79" y2="14.39"/>
<line class="st9" x1="21.99" y1="19.19" x2="19.67" y2="21.51"/>
<line class="st9" x1="29.26" y1="13.1" x2="27.18" y2="15.18"/>
<polyline class="st9" points="29.83,12.53 32.28,10.08 32.32,10.04 "/>
<line class="st9" x1="21.99" y1="20.38" x2="20.85" y2="21.51"/>
<line class="st9" x1="29.66" y1="13.87" x2="27.58" y2="15.95"/>
<line class="st9" x1="30.04" y1="14.59" x2="27.95" y2="16.69"/>
<line class="st9" x1="30.45" y1="15.36" x2="28.34" y2="17.47"/>
<line class="st9" x1="30.85" y1="16.13" x2="28.74" y2="18.25"/>
<line class="st9" x1="31.26" y1="16.9" x2="29.13" y2="19.03"/>
<line class="st9" x1="31.64" y1="17.63" x2="29.5" y2="19.77"/>
<line class="st9" x1="32.04" y1="18.39" x2="29.89" y2="20.54"/>
<line class="st9" x1="32.45" y1="19.17" x2="30.29" y2="21.33"/>
<line class="st9" x1="32.83" y1="19.87" x2="31.19" y2="21.51"/>
<line class="st9" x1="33.23" y1="20.64" x2="32.35" y2="21.51"/>
<line class="st9" x1="33.64" y1="21.41" x2="33.54" y2="21.51"/>
<polygon class="st1" points="91.3,1.63 91.3,4.28 81.32,4.28 81.32,10.31 89.8,10.31 89.8,12.96 81.32,12.96 81.32,18.85 
	91.3,18.85 91.3,21.51 78.53,21.51 78.53,1.63 "/>
<line class="st10" x1="79.69" y1="1.63" x2="78.53" y2="2.79"/>
<line class="st10" x1="80.87" y1="1.63" x2="78.53" y2="3.97"/>
<line class="st10" x1="82.04" y1="1.63" x2="78.53" y2="5.14"/>
<line class="st10" x1="83.15" y1="1.63" x2="78.53" y2="6.24"/>
<polyline class="st10" points="78.53,7.41 81.32,4.62 81.66,4.28 84.31,1.63 "/>
<line class="st10" x1="81.32" y1="5.81" x2="78.53" y2="8.6"/>
<line class="st10" x1="85.5" y1="1.63" x2="82.84" y2="4.28"/>
<line class="st10" x1="81.32" y1="6.97" x2="78.53" y2="9.76"/>
<line class="st10" x1="86.66" y1="1.63" x2="84.01" y2="4.28"/>
<line class="st10" x1="81.32" y1="8.09" x2="78.53" y2="10.87"/>
<line class="st10" x1="87.78" y1="1.63" x2="85.12" y2="4.28"/>
<line class="st10" x1="81.32" y1="9.25" x2="78.53" y2="12.04"/>
<line class="st10" x1="88.94" y1="1.63" x2="86.29" y2="4.28"/>
<line class="st10" x1="81.45" y1="10.31" x2="78.53" y2="13.22"/>
<line class="st10" x1="90.13" y1="1.63" x2="87.47" y2="4.28"/>
<line class="st10" x1="82.61" y1="10.31" x2="78.53" y2="14.39"/>
<line class="st10" x1="91.29" y1="1.63" x2="88.64" y2="4.28"/>
<line class="st10" x1="83.72" y1="10.31" x2="78.53" y2="15.5"/>
<line class="st10" x1="91.3" y1="2.73" x2="89.75" y2="4.28"/>
<line class="st10" x1="84.89" y1="10.31" x2="82.23" y2="12.96"/>
<line class="st10" x1="81.32" y1="13.88" x2="78.53" y2="16.66"/>
<line class="st10" x1="91.3" y1="3.9" x2="90.91" y2="4.28"/>
<line class="st10" x1="81.32" y1="15.06" x2="78.53" y2="17.85"/>
<line class="st10" x1="86.07" y1="10.31" x2="83.42" y2="12.96"/>
<line class="st10" x1="81.32" y1="16.23" x2="78.53" y2="19.02"/>
<line class="st10" x1="87.24" y1="10.31" x2="84.58" y2="12.96"/>
<line class="st10" x1="81.32" y1="17.34" x2="78.53" y2="20.13"/>
<line class="st10" x1="88.35" y1="10.31" x2="85.7" y2="12.96"/>
<line class="st10" x1="81.32" y1="18.51" x2="78.53" y2="21.3"/>
<line class="st10" x1="89.52" y1="10.31" x2="86.86" y2="12.96"/>
<line class="st10" x1="82.16" y1="18.85" x2="79.5" y2="21.51"/>
<line class="st10" x1="89.8" y1="11.21" x2="88.05" y2="12.96"/>
<line class="st10" x1="83.32" y1="18.85" x2="80.67" y2="21.51"/>
<line class="st10" x1="89.8" y1="12.38" x2="89.21" y2="12.96"/>
<line class="st10" x1="84.43" y1="18.85" x2="81.78" y2="21.51"/>
<line class="st10" x1="85.6" y1="18.85" x2="82.94" y2="21.51"/>
<line class="st10" x1="86.78" y1="18.85" x2="84.13" y2="21.51"/>
<line class="st10" x1="87.95" y1="18.85" x2="85.29" y2="21.51"/>
<line class="st10" x1="89.06" y1="18.85" x2="86.41" y2="21.51"/>
<line class="st10" x1="90.23" y1="18.85" x2="87.57" y2="21.51"/>
<line class="st10" x1="91.3" y1="18.96" x2="88.76" y2="21.51"/>
<line class="st10" x1="91.3" y1="20.21" x2="90" y2="21.51"/>
<line class="st10" x1="91.3" y1="21.37" x2="91.17" y2="21.51"/>
<path class="st1" d="M40,21.51h-2.79V1.63H40V21.51z"/>
<line class="st11" x1="37.25" y1="1.63" x2="37.21" y2="1.67"/>
<line class="st11" x1="38.42" y1="1.63" x2="37.21" y2="2.84"/>
<line class="st11" x1="39.52" y1="1.63" x2="37.21" y2="3.94"/>
<line class="st11" x1="40" y1="2.32" x2="37.21" y2="5.11"/>
<line class="st11" x1="40" y1="3.5" x2="37.21" y2="6.29"/>
<line class="st11" x1="40" y1="4.67" x2="37.21" y2="7.46"/>
<line class="st11" x1="40" y1="5.79" x2="37.21" y2="8.57"/>
<line class="st11" x1="40" y1="6.95" x2="37.21" y2="9.74"/>
<line class="st11" x1="40" y1="8.14" x2="37.21" y2="10.92"/>
<line class="st11" x1="40" y1="9.3" x2="37.21" y2="12.09"/>
<line class="st11" x1="40" y1="10.41" x2="37.21" y2="13.2"/>
<line class="st11" x1="40" y1="11.58" x2="37.21" y2="14.36"/>
<line class="st11" x1="40" y1="12.76" x2="37.21" y2="15.55"/>
<line class="st11" x1="40" y1="13.93" x2="37.21" y2="16.72"/>
<line class="st11" x1="40" y1="15.04" x2="37.21" y2="17.83"/>
<line class="st11" x1="40" y1="16.21" x2="37.21" y2="19"/>
<line class="st11" x1="40" y1="17.39" x2="37.21" y2="20.18"/>
<line class="st11" x1="40" y1="18.56" x2="37.21" y2="21.35"/>
<line class="st11" x1="40" y1="19.66" x2="38.15" y2="21.51"/>
<line class="st11" x1="40" y1="20.83" x2="39.32" y2="21.51"/>
<path class="st1" d="M57.74,8.75v5.63c0,0.32-0.01,0.62-0.04,0.92c-0.04,0.5-0.12,0.96-0.24,1.41v0c-0.15,0.55-0.35,1.06-0.61,1.52
	c-0.16,0.29-0.34,0.55-0.53,0.8c-0.27,0.34-0.58,0.65-0.92,0.92c-0.34,0.27-0.72,0.51-1.14,0.71c-0.38,0.19-0.79,0.34-1.23,0.47
	c-0.45,0.13-0.94,0.23-1.45,0.29c-0.38,0.04-0.78,0.07-1.19,0.08c-0.07,0-0.15,0-0.22,0h-6.29v-8.5h2.79v5.85h3.6
	c0.15,0,0.3,0,0.44-0.01c0.52-0.03,1-0.11,1.43-0.25c0.6-0.19,1.12-0.48,1.54-0.88c0.47-0.45,0.81-1,1-1.66
	c0.12-0.42,0.19-0.88,0.2-1.39c0-0.06,0-0.11,0-0.17V8.64c0-0.29-0.02-0.57-0.05-0.83c-0.04-0.34-0.12-0.65-0.22-0.94
	c-0.1-0.29-0.23-0.55-0.39-0.8c-0.15-0.23-0.33-0.45-0.53-0.64c0,0-0.01-0.01-0.01-0.01c-0.19-0.18-0.39-0.33-0.61-0.47
	c-0.24-0.15-0.51-0.27-0.8-0.37c-0.3-0.11-0.61-0.18-0.95-0.23c-0.33-0.05-0.68-0.07-1.05-0.07h-3.6v6.03h-2.79V1.63h6.3
	c0.14,0,0.27,0,0.4,0.01c0.38,0.01,0.74,0.04,1.08,0.08c0.33,0.04,0.64,0.1,0.95,0.17c0.31,0.07,0.62,0.16,0.91,0.26
	c0.26,0.09,0.51,0.2,0.75,0.32c0.03,0.01,0.05,0.03,0.08,0.04c0.26,0.13,0.5,0.27,0.73,0.43c0.22,0.15,0.42,0.31,0.61,0.49
	c0.2,0.18,0.39,0.38,0.57,0.6c0.18,0.22,0.34,0.45,0.49,0.7c0.03,0.06,0.07,0.12,0.1,0.17c0.11,0.19,0.2,0.39,0.29,0.6
	c0.11,0.26,0.21,0.54,0.29,0.82c0.09,0.31,0.15,0.63,0.2,0.96c0.05,0.35,0.09,0.71,0.1,1.09C57.74,8.49,57.74,8.62,57.74,8.75z"/>
<line class="st12" x1="44.78" y1="1.63" x2="43.88" y2="2.53"/>
<line class="st12" x1="45.97" y1="1.63" x2="43.88" y2="3.71"/>
<line class="st12" x1="47.13" y1="1.63" x2="43.88" y2="4.88"/>
<line class="st12" x1="48.24" y1="1.63" x2="43.88" y2="5.99"/>
<polyline class="st12" points="49.41,1.63 46.75,4.28 46.67,4.37 43.88,7.15 "/>
<line class="st12" x1="50.58" y1="1.63" x2="47.94" y2="4.28"/>
<line class="st12" x1="46.67" y1="5.55" x2="43.88" y2="8.34"/>
<line class="st12" x1="51.67" y1="1.72" x2="49.1" y2="4.28"/>
<line class="st12" x1="46.67" y1="6.72" x2="43.88" y2="9.51"/>
<line class="st12" x1="52.61" y1="1.88" x2="50.22" y2="4.28"/>
<line class="st12" x1="46.67" y1="7.83" x2="44.19" y2="10.31"/>
<line class="st12" x1="53.52" y1="2.15" x2="51.31" y2="4.35"/>
<line class="st12" x1="46.67" y1="9" x2="45.35" y2="10.31"/>
<line class="st12" x1="54.35" y1="2.5" x2="52.26" y2="4.58"/>
<line class="st12" x1="46.67" y1="10.18" x2="46.54" y2="10.31"/>
<line class="st12" x1="55.08" y1="2.94" x2="53.06" y2="4.96"/>
<line class="st12" x1="45.01" y1="13.01" x2="43.88" y2="14.14"/>
<line class="st12" x1="55.69" y1="3.43" x2="53.69" y2="5.43"/>
<line class="st12" x1="46.11" y1="13.01" x2="43.88" y2="15.24"/>
<line class="st12" x1="56.26" y1="4.02" x2="54.22" y2="6.07"/>
<polyline class="st12" points="46.67,13.62 43.88,16.41 43.79,16.5 "/>
<line class="st12" x1="56.75" y1="4.72" x2="54.6" y2="6.87"/>
<line class="st12" x1="46.67" y1="14.81" x2="43.88" y2="17.59"/>
<line class="st12" x1="57.14" y1="5.5" x2="54.83" y2="7.81"/>
<line class="st12" x1="46.67" y1="15.97" x2="43.88" y2="18.76"/>
<line class="st12" x1="57.43" y1="6.32" x2="54.88" y2="8.87"/>
<line class="st12" x1="46.67" y1="17.09" x2="43.88" y2="19.87"/>
<line class="st12" x1="57.64" y1="7.28" x2="54.88" y2="10.04"/>
<line class="st12" x1="46.67" y1="18.25" x2="43.88" y2="21.04"/>
<line class="st12" x1="57.73" y1="8.37" x2="54.88" y2="11.22"/>
<line class="st12" x1="47.25" y1="18.85" x2="44.6" y2="21.51"/>
<line class="st12" x1="57.74" y1="9.53" x2="54.88" y2="12.39"/>
<line class="st12" x1="48.42" y1="18.85" x2="45.76" y2="21.51"/>
<line class="st12" x1="57.74" y1="10.63" x2="54.88" y2="13.49"/>
<line class="st12" x1="49.52" y1="18.85" x2="46.87" y2="21.51"/>
<line class="st12" x1="57.74" y1="11.8" x2="54.88" y2="14.66"/>
<line class="st12" x1="50.7" y1="18.84" x2="48.04" y2="21.51"/>
<line class="st12" x1="52.13" y1="18.6" x2="49.22" y2="21.51"/>
<line class="st12" x1="57.74" y1="12.99" x2="54.68" y2="16.05"/>
<line class="st12" x1="57.74" y1="14.15" x2="50.39" y2="21.5"/>
<line class="st12" x1="57.7" y1="15.31" x2="51.58" y2="21.43"/>
<polyline class="st12" points="53.03,21.14 57.46,16.71 57.46,16.71 "/>
<line class="st12" x1="56.32" y1="19.04" x2="55.4" y2="19.96"/>
<path class="st1" d="M74.23,1.63v8.67h-2.79V4.28h-3.6c-0.24,0-0.47,0.01-0.7,0.03c-0.56,0.05-1.07,0.17-1.52,0.35
	c-0.46,0.18-0.86,0.44-1.2,0.76c-0.39,0.37-0.69,0.81-0.89,1.32c-0.17,0.44-0.28,0.93-0.31,1.48c-0.01,0.14-0.01,0.27-0.01,0.42
	v5.85c0,0.24,0.01,0.47,0.04,0.69c0.03,0.33,0.1,0.63,0.19,0.92c0.09,0.29,0.21,0.56,0.35,0.81c0.14,0.24,0.31,0.47,0.51,0.67
	c0.04,0.04,0.08,0.08,0.12,0.12c0.16,0.15,0.33,0.29,0.52,0.4c0.23,0.15,0.47,0.27,0.74,0.38c0.28,0.11,0.59,0.19,0.91,0.25
	c0.34,0.06,0.7,0.1,1.08,0.1c0.05,0,0.11,0,0.17,0h3.6V13h2.79v8.51h-6.29c-0.21,0-0.42-0.01-0.63-0.02
	c-0.35-0.02-0.69-0.05-1.01-0.09c-0.34-0.05-0.66-0.11-0.98-0.19s-0.61-0.17-0.9-0.28c-0.2-0.08-0.39-0.16-0.58-0.25
	c-0.08-0.04-0.15-0.08-0.22-0.11c-0.24-0.13-0.47-0.27-0.68-0.43c-0.23-0.16-0.44-0.34-0.64-0.53c-0.2-0.19-0.39-0.4-0.56-0.62
	c-0.17-0.22-0.32-0.45-0.46-0.7c-0.01-0.01-0.01-0.02-0.02-0.03c-0.13-0.23-0.24-0.46-0.34-0.71c-0.11-0.28-0.21-0.57-0.29-0.88
	c-0.08-0.32-0.14-0.65-0.19-1c-0.04-0.35-0.07-0.71-0.08-1.09c0-0.06,0-0.11,0-0.17V8.75c0-0.4,0.02-0.79,0.06-1.16
	c0.06-0.53,0.16-1.03,0.31-1.5c0.13-0.43,0.31-0.83,0.51-1.2c0.59-1.07,1.45-1.88,2.58-2.43c0.29-0.14,0.59-0.26,0.91-0.37
	c0.48-0.16,0.99-0.28,1.54-0.35c0.4-0.06,0.83-0.09,1.27-0.11c0.12,0,0.25-0.01,0.37-0.01H74.23z"/>
<line class="st13" x1="64.75" y1="2.09" x2="60.74" y2="6.1"/>
<line class="st13" x1="66.29" y1="1.74" x2="60.43" y2="7.59"/>
<line class="st13" x1="67.56" y1="1.63" x2="60.37" y2="8.82"/>
<line class="st13" x1="68.67" y1="1.63" x2="65.63" y2="4.66"/>
<line class="st13" x1="63.55" y1="6.75" x2="60.37" y2="9.93"/>
<line class="st13" x1="69.84" y1="1.63" x2="67.15" y2="4.31"/>
<line class="st13" x1="63.24" y1="8.22" x2="60.37" y2="11.1"/>
<line class="st13" x1="71.02" y1="1.63" x2="68.37" y2="4.28"/>
<line class="st13" x1="63.23" y1="9.42" x2="60.37" y2="12.28"/>
<line class="st13" x1="72.19" y1="1.63" x2="69.53" y2="4.28"/>
<line class="st13" x1="63.23" y1="10.59" x2="60.37" y2="13.45"/>
<line class="st13" x1="73.3" y1="1.63" x2="70.65" y2="4.28"/>
<line class="st13" x1="63.23" y1="11.7" x2="60.37" y2="14.56"/>
<line class="st13" x1="74.23" y1="1.86" x2="71.44" y2="4.65"/>
<line class="st13" x1="63.23" y1="12.87" x2="60.45" y2="15.65"/>
<line class="st13" x1="74.23" y1="3.05" x2="71.44" y2="5.84"/>
<line class="st13" x1="63.23" y1="14.05" x2="60.63" y2="16.65"/>
<line class="st13" x1="74.23" y1="4.21" x2="71.44" y2="7"/>
<line class="st13" x1="63.26" y1="15.18" x2="60.92" y2="17.53"/>
<line class="st13" x1="74.23" y1="5.32" x2="71.44" y2="8.11"/>
<line class="st13" x1="63.45" y1="16.1" x2="61.28" y2="18.27"/>
<line class="st13" x1="74.23" y1="6.49" x2="71.44" y2="9.28"/>
<line class="st13" x1="63.8" y1="16.92" x2="61.74" y2="18.98"/>
<line class="st13" x1="74.23" y1="7.67" x2="71.6" y2="10.3"/>
<line class="st13" x1="64.31" y1="17.59" x2="62.3" y2="19.6"/>
<line class="st13" x1="74.23" y1="8.84" x2="72.77" y2="10.3"/>
<line class="st13" x1="64.95" y1="18.12" x2="62.94" y2="20.13"/>
<line class="st13" x1="74.23" y1="9.95" x2="73.88" y2="10.3"/>
<line class="st13" x1="65.69" y1="18.49" x2="63.62" y2="20.56"/>
<line class="st13" x1="72.35" y1="13" x2="71.44" y2="13.91"/>
<line class="st13" x1="66.6" y1="18.75" x2="64.43" y2="20.92"/>
<line class="st13" x1="73.53" y1="13" x2="71.44" y2="15.09"/>
<line class="st13" x1="67.68" y1="18.85" x2="65.33" y2="21.21"/>
<line class="st13" x1="74.23" y1="13.47" x2="71.44" y2="16.26"/>
<line class="st13" x1="68.85" y1="18.85" x2="66.3" y2="21.4"/>
<line class="st13" x1="74.23" y1="14.57" x2="71.44" y2="17.36"/>
<line class="st13" x1="69.95" y1="18.85" x2="67.32" y2="21.49"/>
<polyline class="st13" points="74.23,15.74 71.44,18.53 71.12,18.85 68.47,21.51 "/>
<line class="st13" x1="74.23" y1="16.93" x2="69.65" y2="21.51"/>
<line class="st13" x1="74.23" y1="18.09" x2="70.82" y2="21.51"/>
<line class="st13" x1="74.23" y1="19.2" x2="71.93" y2="21.51"/>
<line class="st13" x1="74.23" y1="20.37" x2="73.1" y2="21.51"/>
<line class="st13" x1="62.8" y1="3.05" x2="61.63" y2="4.21"/>
</svg>
