<?xml version="1.0" encoding="utf-8"?>
<!-- Generator: Adobe Illustrator 24.3.0, SVG Export Plug-In . SVG Version: 6.00 Build 0)  -->
<svg version="1.1" id="Layer_1" xmlns="http://www.w3.org/2000/svg" xmlns:xlink="http://www.w3.org/1999/xlink" x="0px" y="0px"
	 viewBox="0 0 543 393" style="enable-background:new 0 0 543 393;" xml:space="preserve">
<style type="text/css">
	.st0{fill:#E3598F;}
	.st1{opacity:0.5;fill-rule:evenodd;clip-rule:evenodd;fill:#E3598F;}
	.st2{opacity:0.5;fill:#E3598F;}
</style>
<g>
	<path class="st0" d="M110,267.7l8.5,8.5c4.6,4.6,4.6,12,0,16.6l-8.5,8.5c-4.6,4.6-12,4.6-16.6,0l-8.5-8.5c-4.6-4.6-4.6-12,0-16.6
		l8.5-8.5C98,263.1,105.5,263.1,110,267.7z"/>
	<path class="st0" d="M152.7,127.1H52.1c-18.5,0-33.6,15-33.6,33.6v96.6c0,18.5,15,33.6,33.6,33.6h100.6c18.5,0,33.6-15,33.6-33.6
		v-96.6C186.2,142.1,171.2,127.1,152.7,127.1z M86.1,166.7c8.6-8.9,22.5-8.9,31,0c8.6,8.9,8.6,23.3,0,32.1c-8.6,8.9-22.5,8.9-31,0
		C77.5,189.9,77.5,175.5,86.1,166.7z M146.3,245.2v6.4c0,3.5-2.8,6.4-6.3,6.4H64.1c-3.5,0-6.3-2.9-6.3-6.4v-6.5
		c0-19.3,21.9-31.8,44.3-31.8c22.4,0,44.3,12.5,44.3,31.8V245.2z"/>
	<path class="st0" d="M285.4,148.6l8.5,8.5c4.6,4.6,4.6,12,0,16.6l-8.5,8.5c-4.6,4.6-12,4.6-16.6,0l-8.5-8.5c-4.6-4.6-4.6-12,0-16.6
		l8.5-8.5C273.4,144,280.8,144,285.4,148.6z"/>
	<path class="st0" d="M328.1,8.1H227.5c-18.5,0-33.6,15-33.6,33.6v96.6c0,18.5,15,33.6,33.6,33.6h100.6c18.5,0,33.6-15,33.6-33.6
		V41.6C361.6,23.1,346.6,8.1,328.1,8.1z M261.5,47.6c8.6-8.9,22.5-8.9,31,0c8.6,8.9,8.6,23.3,0,32.1c-8.6,8.9-22.5,8.9-31,0
		C252.9,70.9,252.9,56.5,261.5,47.6z M321.7,126.2v6.4c0,3.5-2.8,6.4-6.3,6.4h-75.9c-3.5,0-6.3-2.9-6.3-6.4v-6.5
		c0-19.3,21.9-31.8,44.3-31.8s44.3,12.5,44.3,31.8V126.2z"/>
	<path class="st0" d="M285.4,345.9l8.5,8.5c4.6,4.6,4.6,12,0,16.6l-8.5,8.5c-4.6,4.6-12,4.6-16.6,0l-8.5-8.5c-4.6-4.6-4.6-12,0-16.6
		l8.5-8.5C273.4,341.3,280.8,341.3,285.4,345.9z"/>
	<path class="st0" d="M328.1,205.4H227.5c-18.5,0-33.6,15-33.6,33.6v96.6c0,18.5,15,33.6,33.6,33.6h100.6c18.5,0,33.6-15,33.6-33.6
		v-96.6C361.6,220.4,346.6,205.4,328.1,205.4z M261.5,244.9c8.6-8.9,22.5-8.9,31,0c8.6,8.9,8.6,23.3,0,32.1c-8.6,8.9-22.5,8.9-31,0
		S252.9,253.8,261.5,244.9z M321.7,323.5v6.4c0,3.5-2.8,6.4-6.3,6.4h-75.9c-3.5,0-6.3-2.9-6.3-6.4v-6.5c0-19.3,21.9-31.8,44.3-31.8
		s44.3,12.5,44.3,31.8V323.5z"/>
	<path class="st0" d="M460.8,228.1l8.5,8.5c4.6,4.6,4.6,12,0,16.6l-8.5,8.5c-4.6,4.6-12,4.6-16.6,0l-8.5-8.5c-4.6-4.6-4.6-12,0-16.6
		l8.5-8.5C448.8,223.5,456.2,223.5,460.8,228.1z"/>
	<path class="st0" d="M503.4,87.5H402.9c-18.5,0-33.6,15-33.6,33.6v96.6c0,18.5,15,33.6,33.6,33.6h100.6c18.5,0,33.6-15,33.6-33.6
		v-96.6C537,102.5,522,87.5,503.4,87.5z M436.9,127.1c8.6-8.9,22.5-8.9,31,0v0c8.6,8.9,8.6,23.3,0,32.1c-8.6,8.9-22.5,8.9-31,0
		C428.3,150.3,428.3,135.9,436.9,127.1z M497,205.6v6.4c0,3.5-2.8,6.4-6.3,6.4h-75.9c-3.5,0-6.3-2.9-6.3-6.4v-6.5
		c0-19.3,21.9-31.8,44.3-31.8c22.4,0,44.3,12.5,44.3,31.8L497,205.6z"/>
	<path class="st1" d="M119.7,24.4H83.6c-3.3,0-6,2.7-6,6v32.2h0c0,2.2,1.2,4.2,3.1,5.3l18.1,10.1c1.8,1,4,1,5.8,0l18.1-10.1
		c1.9-1.1,3.1-3.1,3.1-5.3V30.4C125.8,27.1,123.1,24.4,119.7,24.4z M111.7,61.6h-20c-0.9,0-1.5-0.7-1.5-1.5s0.7-1.5,1.5-1.5h20
		c0.9,0,1.5,0.7,1.5,1.5S112.5,61.6,111.7,61.6z M111.7,52.5h-20c-0.9,0-1.5-0.7-1.5-1.5s0.7-1.5,1.5-1.5h20c0.9,0,1.5,0.7,1.5,1.5
		S112.5,52.5,111.7,52.5z M111.7,43.1h-20c-0.9,0-1.5-0.7-1.5-1.5s0.7-1.5,1.5-1.5h20c0.9,0,1.5,0.7,1.5,1.5S112.5,43.1,111.7,43.1z
		"/>
	<circle class="st2" cx="146.8" cy="325.9" r="5.9"/>
	<circle class="st2" cx="153.3" cy="103.3" r="5.9"/>
	<circle class="st2" cx="14.3" cy="115.2" r="5.9"/>
	<circle class="st2" cx="393.3" cy="69.6" r="5.9"/>
	<circle class="st2" cx="397.6" cy="287.9" r="5.9"/>
	<path class="st1" d="M473.8,307.9h-2.9c-0.7,0-1.3-0.6-1.3-1.3v-2.9c0-0.7,0.6-1.3,1.3-1.3h2.9c0.7,0,1.3,0.6,1.3,1.3v2.9
		C475.1,307.3,474.5,307.9,473.8,307.9C473.8,307.9,473.8,307.9,473.8,307.9z M463.8,307.9h-2.9c-0.7,0-1.3-0.6-1.3-1.3v-2.9
		c0-0.7,0.6-1.3,1.3-1.3h2.9c0.7,0,1.3,0.6,1.3,1.3v2.9C465,307.3,464.5,307.9,463.8,307.9z M453.7,307.9h-2.9
		c-0.7,0-1.3-0.6-1.3-1.3v-2.9c0-0.7,0.6-1.3,1.3-1.3h2.9c0.7,0,1.3,0.6,1.3,1.3v2.9C455,307.3,454.4,307.9,453.7,307.9
		C453.7,307.9,453.7,307.9,453.7,307.9z M443.7,307.9h-2.9c-0.7,0-1.3-0.6-1.3-1.3v-2.9c0-0.7,0.6-1.3,1.3-1.3h2.9
		c0.7,0,1.3,0.6,1.3,1.3v2.9C445,307.3,444.4,307.9,443.7,307.9z M433.6,307.9h-2.9c-0.7,0-1.3-0.6-1.3-1.3v-2.9
		c0-0.7,0.6-1.3,1.3-1.3h2.9c0.7,0,1.3,0.6,1.3,1.3v2.9C434.9,307.3,434.3,307.9,433.6,307.9z M463.4,297h-2.9
		c-0.7,0-1.3-0.6-1.3-1.3v-2.9c0-0.7,0.6-1.3,1.3-1.3h2.9c0.7,0,1.3,0.6,1.3,1.3v2.9C464.7,296.4,464.1,297,463.4,297
		C463.4,297,463.4,297,463.4,297L463.4,297z M453.4,297h-2.9c-0.7,0-1.3-0.6-1.3-1.3v-2.9c0-0.7,0.6-1.3,1.3-1.3h2.9
		c0.7,0,1.3,0.6,1.3,1.3v2.9C454.6,296.4,454.1,297,453.4,297C453.4,297,453.4,297,453.4,297L453.4,297z M443.3,297h-2.9
		c-0.7,0-1.3-0.6-1.3-1.3v-2.9c0-0.7,0.6-1.3,1.3-1.3h2.9c0.7,0,1.3,0.6,1.3,1.3v2.9C444.6,296.4,444,297,443.3,297L443.3,297z
		 M453.7,319.7h-2.9c-0.7,0-1.3-0.6-1.3-1.3v-2.9c0-0.7,0.6-1.3,1.3-1.3h2.9c0.7,0,1.3,0.6,1.3,1.3v2.9
		C455,319.1,454.4,319.7,453.7,319.7C453.7,319.7,453.7,319.7,453.7,319.7z M443.7,319.7h-2.9c-0.7,0-1.3-0.6-1.3-1.3v-2.9
		c0-0.7,0.6-1.3,1.3-1.3h2.9c0.7,0,1.3,0.6,1.3,1.3v2.9C445,319.1,444.4,319.7,443.7,319.7z"/>
	<path class="st2" d="M148.4,72.6l19.8-19.8c0.7-0.7,1.9-0.7,2.6,0l0,0c0.7,0.7,0.7,1.9,0,2.6L151,75.2c-0.7,0.7-1.9,0.7-2.6,0l0,0
		C147.7,74.5,147.7,73.3,148.4,72.6z"/>
	<path class="st2" d="M160.5,72.7l5.7-5.7c0.7-0.7,1.9-0.7,2.6,0l0,0c0.7,0.7,0.7,1.9,0,2.6l-5.7,5.7c-0.7,0.7-1.9,0.7-2.6,0l0,0
		C159.8,74.6,159.8,73.4,160.5,72.7z"/>
	<path class="st2" d="M96.9,327l-19.8,19.8c-0.7,0.7-1.9,0.7-2.6,0l0,0c-0.7-0.7-0.7-1.9,0-2.6l19.8-19.8c0.7-0.7,1.9-0.7,2.6,0l0,0
		C97.7,325.1,97.7,326.3,96.9,327z"/>
	<path class="st2" d="M84.8,326.9l-5.7,5.7c-0.7,0.7-1.9,0.7-2.6,0l0,0c-0.7-0.7-0.7-1.9,0-2.6l5.7-5.7c0.7-0.7,1.9-0.7,2.6,0l0,0
		C85.5,325,85.5,326.2,84.8,326.9z"/>
	<path class="st2" d="M471.6,49l-19.8,19.8c-0.7,0.7-1.9,0.7-2.6,0v0c-0.7-0.7-0.7-1.9,0-2.6L469,46.4c0.7-0.7,1.9-0.7,2.6,0v0
		C472.4,47.1,472.4,48.3,471.6,49z"/>
	<path class="st2" d="M459.5,48.9l-5.7,5.7c-0.7,0.7-1.9,0.7-2.6,0l0,0c-0.7-0.7-0.7-1.9,0-2.6l5.7-5.7c0.7-0.7,1.9-0.7,2.6,0v0
		C460.2,47,460.2,48.2,459.5,48.9z"/>
</g>
</svg>
