<?xml version="1.0" encoding="utf-8"?>
<!-- Generator: Adobe Illustrator 24.3.0, SVG Export Plug-In . SVG Version: 6.00 Build 0)  -->
<svg version="1.1" id="Layer_1" xmlns="http://www.w3.org/2000/svg" xmlns:xlink="http://www.w3.org/1999/xlink" x="0px" y="0px"
	 viewBox="0 0 680.1 448.7" style="enable-background:new 0 0 680.1 448.7;" xml:space="preserve">
<style type="text/css">
	.st0{opacity:0.5;fill:#EE3A00;}
	.st1{fill-rule:evenodd;clip-rule:evenodd;fill:#E1E4E5;}
	.st2{fill:#EE3A00;}
	.st3{fill:none;stroke:#EE3A00;stroke-width:4.449;}
	.st4{opacity:0.5;fill-rule:evenodd;clip-rule:evenodd;fill:#EE3A00;}
</style>
<g>
	<path class="st0" d="M87.2,358.2c-2.5-17.5-18.8-29.6-36.4-27.1c-17.5,2.6-29.7,18.8-27.2,36.3c2.6,17.5,18.8,29.6,36.4,27.1
		C77.6,392,89.7,375.7,87.2,358.2z M58.9,387c-13.4,1.9-25.8-7.3-27.7-20.6c-1.9-13.3,7.3-25.7,20.7-27.7
		c13.4-1.9,25.8,7.3,27.7,20.6C81.6,372.7,72.3,385.1,58.9,387z"/>
	<path class="st0" d="M60.2,376.7l0.7,4.2l-3.9,0.6l-0.7-4.1c-3.9,0.4-7.8-0.2-10.2-1.5l1.4-5c2.2,1.1,5.2,1.7,8,1.5l-1-6.3
		c-4.5-0.4-9.6-1-10.5-6.4c-0.7-4,1.8-7.9,7.8-9.6l-0.7-4.2l3.9-0.6l0.7,4.1c3-0.2,5.9,0.1,8.3,1.1l-1.2,5c-2.2-0.8-4.3-1.1-6.3-1
		l1.1,6.4c4.5,0.3,9.5,1,10.4,6.3C68.6,371.2,66.2,375.1,60.2,376.7L60.2,376.7z M53.5,360.6l-0.9-5.4c-2,0.8-2.6,2-2.4,3.3
		C50.4,359.8,51.7,360.3,53.5,360.6z M61.7,368.7c-0.2-1.3-1.5-1.9-3.2-2.2l0.9,5.2C61.2,371,61.9,369.9,61.7,368.7z"/>
	<path class="st0" d="M232.7,338.8L232.7,338.8c-2.8-19.5-21-33-40.5-30.2c-19.5,2.8-33.1,20.9-30.2,40.4c2.8,19.5,21,33,40.5,30.2
		C222,376.4,235.5,358.3,232.7,338.8z M201.2,370.9c-14.9,2.2-28.7-8.1-30.9-23c-2.2-14.9,8.2-28.7,23-30.8
		c14.9-2.2,28.7,8.1,30.9,23C226.4,354.9,216.1,368.7,201.2,370.9z"/>
	<path class="st0" d="M202.6,359.4l0.8,4.7l-4.3,0.7l-0.8-4.6c-4.3,0.4-8.7-0.2-11.4-1.7l1.5-5.5c2.4,1.2,5.7,1.9,8.9,1.7l-1.2-7.1
		c-5-0.4-10.7-1.1-11.6-7.1c-0.7-4.5,2-8.8,8.7-10.7l-0.8-4.7l4.3-0.7l0.8,4.6c3.3-0.3,6.6,0.1,9.2,1.2l-1.3,5.5
		c-2.4-0.9-4.8-1.3-7-1.2l1.2,7.2c5,0.3,10.6,1.1,11.5,7C212,353.2,209.3,357.5,202.6,359.4L202.6,359.4z M195.2,341.4l-1-6
		c-2.2,0.9-2.9,2.2-2.7,3.6C191.8,340.5,193.2,341.1,195.2,341.4z M204.4,350.4c-0.2-1.5-1.6-2.1-3.6-2.4l1,5.8
		C203.8,353,204.6,351.8,204.4,350.4L204.4,350.4z"/>
	<path class="st0" d="M217.4,68.2c-2.8-19.5-21-33-40.5-30.1c-19.5,2.8-33.1,20.9-30.2,40.4c2.8,19.5,21,33,40.5,30.1
		C206.7,105.7,220.2,87.7,217.4,68.2z M185.9,100.2c-14.9,2.2-28.7-8.1-30.9-23c-2.2-14.9,8.2-28.7,23-30.8
		c14.9-2.2,28.7,8.1,30.9,23C211.1,84.2,200.8,98,185.9,100.2z"/>
	<path class="st0" d="M187.3,88.8l0.8,4.7l-4.3,0.7l-0.8-4.6c-4.3,0.4-8.7-0.2-11.4-1.7l1.5-5.5c2.4,1.2,5.7,1.9,8.9,1.7l-1.2-7.1
		c-5-0.4-10.7-1.1-11.6-7.1c-0.7-4.5,2-8.8,8.7-10.7l-0.8-4.7l4.3-0.7l0.8,4.6c3.3-0.3,6.6,0.1,9.2,1.2l-1.3,5.5
		c-2.4-0.9-4.8-1.3-7-1.2l1.2,7.2c5,0.3,10.6,1.1,11.5,7C196.7,82.6,194,86.9,187.3,88.8L187.3,88.8z M179.9,70.8l-1-6
		c-2.2,0.9-2.9,2.2-2.7,3.6C176.5,69.9,177.9,70.5,179.9,70.8L179.9,70.8z M189,79.8c-0.2-1.5-1.6-2.1-3.6-2.4l1,5.8
		C188.5,82.4,189.3,81.1,189,79.8z"/>
	<path class="st0" d="M670.3,280.3c-5.7-39.3-42.3-66.6-81.7-60.8c-39.4,5.7-66.7,42.3-61,81.6c5.7,39.3,42.3,66.6,81.7,60.8
		C648.7,356.1,676,319.6,670.3,280.3z M606.8,344.9c-30,4.3-57.9-16.4-62.3-46.4c-4.3-30,16.5-57.8,46.5-62.2
		c30-4.4,57.9,16.4,62.3,46.4h0C657.7,312.7,636.9,340.5,606.8,344.9z"/>
	<path class="st0" d="M609.6,321.8l1.6,9.5l-8.8,1.4l-1.5-9.3c-8.8,0.9-17.5-0.5-22.9-3.4l3.1-11.1c4.9,2.5,11.6,3.8,18,3.4
		l-2.3-14.2c-10.1-0.8-21.5-2.2-23.5-14.4c-1.5-9,4-17.8,17.6-21.5l-1.6-9.5l8.8-1.4l1.5,9.3c6.7-0.5,13.3,0.2,18.6,2.4l-2.7,11.2
		c-4.9-1.8-9.7-2.5-14.1-2.4l2.4,14.5c10.1,0.7,21.3,2.2,23.3,14.2C628.5,309.3,623.1,318.1,609.6,321.8L609.6,321.8z M594.7,285.5
		l-2-12.1c-4.5,1.8-5.9,4.5-5.4,7.3C587.7,283.7,590.6,284.9,594.7,285.5L594.7,285.5z M613.1,303.7c-0.5-3-3.3-4.2-7.3-4.9
		l1.9,11.8C612,309,613.6,306.4,613.1,303.7L613.1,303.7z"/>
	<path class="st0" d="M621.4,73.4c-5.7-39.3-42.3-66.6-81.7-60.8c-39.4,5.7-66.7,42.3-61,81.6c5.7,39.3,42.3,66.6,81.7,60.8
		C599.8,149.2,627.1,112.7,621.4,73.4z M557.9,138c-30,4.3-57.9-16.4-62.3-46.4c-4.3-30,16.5-57.8,46.5-62.2
		c30-4.4,57.9,16.4,62.3,46.4C608.7,105.8,587.9,133.7,557.9,138z"/>
	<path class="st0" d="M560.7,114.9l1.6,9.5l-8.8,1.4l-1.5-9.3c-8.8,0.9-17.5-0.5-22.9-3.4l3.1-11.1c4.9,2.5,11.6,3.8,18,3.4
		l-2.3-14.2c-10.1-0.8-21.5-2.2-23.5-14.4c-1.5-9,4-17.8,17.6-21.5l-1.6-9.5l8.8-1.4l1.5,9.3c6.7-0.5,13.3,0.2,18.6,2.4l-2.7,11.2
		c-4.9-1.8-9.7-2.5-14.1-2.4l2.4,14.5c10.1,0.7,21.3,2.2,23.3,14.2C579.6,102.5,574.2,111.2,560.7,114.9L560.7,114.9z M545.7,78.6
		l-2-12.1c-4.5,1.8-5.9,4.5-5.4,7.3C538.8,76.8,541.7,78.1,545.7,78.6z M564.2,96.8c-0.5-3-3.3-4.2-7.3-4.9l1.9,11.8
		C563.1,102.1,564.6,99.6,564.2,96.8L564.2,96.8z"/>
	<path class="st0" d="M209.3,209c-5.7-39.3-42.3-66.6-81.7-60.8c-39.4,5.7-66.7,42.3-61,81.6c5.7,39.3,42.3,66.6,81.7,60.8
		C187.7,284.9,215,248.4,209.3,209z M145.9,273.7c-30,4.3-57.9-16.4-62.3-46.4c-4.3-30,16.5-57.8,46.5-62.2
		c30-4.4,57.9,16.4,62.3,46.4C196.7,241.5,175.9,269.3,145.9,273.7z"/>
	<path class="st0" d="M148.7,250.6l1.6,9.5l-8.8,1.4l-1.5-9.3c-8.8,0.9-17.5-0.5-22.9-3.4l3.1-11.1c4.9,2.5,11.6,3.8,18,3.4
		l-2.3-14.2c-10.1-0.8-21.5-2.2-23.5-14.4c-1.5-9,4-17.8,17.6-21.5l-1.6-9.5l8.8-1.4l1.5,9.3c6.7-0.5,13.3,0.2,18.6,2.4l-2.7,11.2
		c-4.9-1.8-9.7-2.5-14.1-2.4l2.4,14.5c10.1,0.7,21.3,2.2,23.3,14.2C167.6,238.1,162.2,246.8,148.7,250.6z M133.7,214.3l-2-12.1
		c-4.5,1.8-5.9,4.5-5.4,7.3C126.8,212.5,129.6,213.7,133.7,214.3z M152.1,232.5c-0.5-3-3.3-4.2-7.3-4.9l1.9,11.8
		C151,237.7,152.6,235.2,152.1,232.5L152.1,232.5z"/>
	<path class="st0" d="M407.2,73.7c-5.7-39.3-42.3-66.6-81.7-60.8c-39.4,5.7-66.7,42.3-61,81.6c5.7,39.3,42.3,66.6,81.7,60.8
		C385.6,149.5,412.9,113,407.2,73.7z M343.7,138.4c-30,4.3-57.9-16.4-62.3-46.4c-4.3-30,16.5-57.8,46.5-62.2
		c30-4.4,57.9,16.4,62.3,46.4C394.6,106.1,373.8,134,343.7,138.4z"/>
	<path class="st0" d="M346.5,115.3l1.6,9.5l-8.8,1.4l-1.5-9.3c-8.8,0.9-17.5-0.5-22.9-3.4l3.1-11.1c4.9,2.5,11.6,3.8,18,3.4
		l-2.3-14.2c-10.1-0.8-21.5-2.2-23.5-14.4c-1.5-9,4-17.8,17.6-21.5l-1.6-9.5l8.8-1.4l1.5,9.3c6.7-0.5,13.3,0.2,18.6,2.4l-2.7,11.2
		c-4.9-1.8-9.7-2.5-14.1-2.4l2.4,14.5c10.1,0.7,21.3,2.2,23.3,14.2C365.4,102.8,360,111.5,346.5,115.3L346.5,115.3z M331.6,79
		l-2-12.1c-4.5,1.8-5.9,4.5-5.4,7.3C324.6,77.1,327.5,78.4,331.6,79z M350,97.2c-0.5-3-3.3-4.2-7.3-4.9l1.9,11.8
		C348.9,102.4,350.5,99.9,350,97.2z"/>
	<path class="st1" d="M113.2,425.5h263c1.7,0,3.1,1.4,3.1,3.2c0,1.7-1.4,3.2-3.1,3.2h-10.6c-1,0-1.7,0.8-1.7,1.8
		c0,1,0.8,1.8,1.7,1.8h3.9c1.2,0,2.2,1,2.2,2.2c0,1.2-1,2.2-2.2,2.2H120.2c-1.2,0-2.2-1-2.2-2.2c0-1.2,1-2.2,2.2-2.2h3.1
		c1,0,1.7-0.8,1.7-1.8c0-1-0.8-1.8-1.7-1.8h-10.1c-1.7,0-3.1-1.4-3.1-3.2C110,427,111.5,425.5,113.2,425.5z M114.8,439.8
		c1.2,0,2.1-1,2.1-2.1v-0.2c0-1.2-0.9-2.1-2.1-2.1c-1.2,0-2.1,1-2.1,2.1v0.2C112.7,438.9,113.7,439.8,114.8,439.8z"/>
	<path class="st1" d="M343.5,425.5h262.1c1.7,0,3.1,1.4,3.1,3.2s-1.4,3.2-3.1,3.2H595c-1,0-1.7,0.8-1.7,1.8c0,1,0.8,1.8,1.7,1.8h3.9
		c1.2,0,2.2,1,2.2,2.2c0,1.2-1,2.2-2.2,2.2H350.5c-1.2,0-2.2-1-2.2-2.2c0-1.2,1-2.2,2.2-2.2h3c1,0,1.7-0.8,1.7-1.8
		c0-1-0.8-1.8-1.7-1.8h-10.1c-1.7,0-3.1-1.4-3.1-3.2S341.8,425.5,343.5,425.5z M345.1,439.8c1.1,0,2.1-1,2.1-2.1v-0.2
		c0-1.2-0.9-2.1-2.1-2.1s-2.1,1-2.1,2.1v0.2C343,438.9,344,439.8,345.1,439.8z"/>
	<path class="st2" d="M352,291.1c0,0,20.1-23.8,1.2-38.9c0,0-13.8-8.5-25-7.8c0,0,15.9,27.1,10.8,29.8c-5.1,2.7-15.6-31.4-15.6-31.4
		s-31.3-3.1-41.4,1.8c0,0,26.8,22.2,21.2,23.6c-5.6,1.3-34.6-20.5-34.6-20.5s-29.2,5-27.6,23.1c1.6,18,11.6,23.6,16,23.1
		c4.4-0.5,30.3-10.5,30.8-6.8c0.6,3.7-15,15.7-25.9,16.2c0,0,20.6,23,34.2,16.4c13.7-6.6,14.8-17.2,23.4-21.1
		c8.5-3.9,15.8-3.9,12.3,0.1c-3.5,4-18.9,7.9-23.8,16.7c-4.9,8.7-9.2,14.6,4.9,12.5c14.1-2.2,37.1-12.7,38.1-24.7L352,291.1
		L352,291.1z"/>
	<path class="st2" d="M255.2,270.8c0,0,79.8-3.1,97.5,19.7c0,0,3.9,11.6,15.9,22.2l1.9,5.1c0,0-13.8-14.5-18.8-15.4
		C351.7,302.4,359.4,274.2,255.2,270.8L255.2,270.8z"/>
	<path class="st2" d="M420.1,261.9c0,0-40.4-13.8-28.4-44.8c0,0,10.5-19.6,24.4-26.7c0,0-0.2,43,7.8,42.5s-3.2-47.9-3.2-47.9
		s35.2-25.7,50.6-27c0,0-16.5,45-8.8,42.6c7.6-2.4,26.9-48.4,26.9-48.4s38.2-14.6,48.9,7.7c10.6,22.3,2.6,35.9-3,38.5
		c-5.6,2.5-43.3,9-41.4,13.7c1.9,4.7,28.7,7.9,42,0.9c0,0-8.5,41.5-29.4,43.3c-20.9,1.8-29.5-9.7-42.4-8.4
		c-12.9,1.4-21.5,6.5-14.5,8.7c7,2.3,28-4,39.9,2.9c11.9,6.8,21.1,10.7,2.8,18.1c-18.3,7.4-52.9,11.2-62.5-2.2L420.1,261.9
		L420.1,261.9z M380.6,328.8c-5.3-10.1-12.4-15.6-12.4-15.6s-9.8-6.2-0.1,3.1c3.2,3.1,5.9,7.7,8.1,12.5H380.6z"/>
	<path class="st2" d="M521.4,170.6c0,0-96.4,52.1-101.3,91.4c0,0,3.5,16.5-3.2,37.5l1.3,7.3c0,0,6.2-26.9,11.4-31.4
		C429.6,275.3,400.8,247.3,521.4,170.6L521.4,170.6z"/>
	<path class="st2" d="M370.9,218.5c0,0,49.1-27.5,26.2-64.9c0,0-18.3-22.9-37.9-28.8c0,0,10.5,55.7,0,57
		c-10.5,1.3-7.2-62.9-7.2-62.9S300.2,94,280,96c0,0,32.1,54.4,21.6,53.1c-10.5-1.3-46.5-56.3-46.5-56.3s-53-9.8-61.5,21.6
		c-8.5,31.4,5.2,47.2,13.1,49.1c7.9,2,58.2,1.3,56.9,7.9c-1.3,6.6-35.3,17-54.3,11.1c0,0,20.9,51.8,48.4,49.1
		c27.5-2.6,36-19.7,53-21c17-1.3,29.4,3.3,20.9,7.9c-8.5,4.6-37.3,1.5-51,13.2c-13.7,11.7-24.9,18.9,0.7,24.1
		c25.5,5.2,71.3,2,80.5-17.7L370.9,218.5L370.9,218.5z M418.6,328.8c-1.2-8.9-1.6-18.6,0.5-25.9c5.3-17.7-2.3-3.5-2.3-3.5
		s-5.3,12.6-4.1,29.4H418.6z"/>
	<path class="st2" d="M217.8,124.2c0,0,137.4,44.6,153.1,94.3c0,0-0.7,22.3,13.1,47.8v9.8c0,0-14.4-33.4-22.2-38
		C361.7,238.2,392.5,194.9,217.8,124.2L217.8,124.2z"/>
	<path class="st2" d="M384,266.4c0,0,21.2,32.2,9.1,71.4l-5.4-1.5c0,0,5.3-43.2-5.8-64.9C370.8,249.7,384,266.4,384,266.4L384,266.4
		z"/>
	<path class="st3" d="M330.1,411.1c-30.5-15-51.8-46.1-52.6-82.3h98.7h4.4h32.2h5.8h46.6c-0.8,36.2-22,67.3-52.6,82.3"/>
	<path class="st3" d="M274.3,427.7H469c0-9.2-5.3-16.7-11.8-16.7h-171C279.6,411.1,274.3,418.5,274.3,427.7L274.3,427.7z"/>
	<path class="st2" d="M273.5,326.9h197.7v17H273.5V326.9z"/>
	<path class="st4" d="M499.8,386h2.8c0.7,0,1.2,0.5,1.2,1.2v2.8c0,0.7-0.5,1.2-1.2,1.2h-2.8c-0.7,0-1.2-0.5-1.2-1.2v-2.8
		C498.6,386.5,499.1,386,499.8,386C499.8,386,499.8,386,499.8,386z M509.5,386h2.8c0.7,0,1.2,0.5,1.2,1.2v2.8c0,0.7-0.5,1.2-1.2,1.2
		h-2.8c-0.7,0-1.2-0.5-1.2-1.2v-2.8C508.3,386.5,508.8,386,509.5,386z M519.1,386h2.8c0.7,0,1.2,0.5,1.2,1.2v2.8
		c0,0.7-0.5,1.2-1.2,1.2h-2.8c-0.7,0-1.2-0.5-1.2-1.2v-2.8C517.9,386.5,518.4,386,519.1,386C519.1,386,519.1,386,519.1,386z
		 M528.8,386h2.8c0.7,0,1.2,0.5,1.2,1.2v2.8c0,0.7-0.5,1.2-1.2,1.2h-2.8c-0.7,0-1.2-0.5-1.2-1.2v-2.8
		C527.6,386.5,528.1,386,528.8,386z M538.4,386h2.8c0.7,0,1.2,0.5,1.2,1.2v2.8c0,0.7-0.5,1.2-1.2,1.2h-2.8c-0.7,0-1.2-0.5-1.2-1.2
		v-2.8C537.2,386.5,537.7,386,538.4,386z M509.8,396.5h2.8c0.7,0,1.2,0.5,1.2,1.2v2.8c0,0.7-0.5,1.2-1.2,1.2h-2.8
		c-0.7,0-1.2-0.5-1.2-1.2v-2.8C508.6,397,509.1,396.5,509.8,396.5C509.8,396.5,509.8,396.5,509.8,396.5z M519.5,396.5h2.8
		c0.7,0,1.2,0.5,1.2,1.2v2.8c0,0.7-0.5,1.2-1.2,1.2h-2.8c-0.7,0-1.2-0.5-1.2-1.2v-2.8C518.2,397,518.8,396.5,519.5,396.5
		C519.5,396.5,519.5,396.5,519.5,396.5z M529.1,396.5h2.8c0.7,0,1.2,0.5,1.2,1.2v2.8c0,0.7-0.5,1.2-1.2,1.2h-2.8
		c-0.7,0-1.2-0.5-1.2-1.2v-2.8C527.9,397,528.4,396.5,529.1,396.5z M519.1,374.7h2.8c0.7,0,1.2,0.5,1.2,1.2v2.8
		c0,0.7-0.5,1.2-1.2,1.2h-2.8c-0.7,0-1.2-0.5-1.2-1.2v-2.8C517.9,375.2,518.4,374.7,519.1,374.7
		C519.1,374.7,519.1,374.7,519.1,374.7z M528.8,374.7h2.8c0.7,0,1.2,0.5,1.2,1.2v2.8c0,0.7-0.5,1.2-1.2,1.2h-2.8
		c-0.7,0-1.2-0.5-1.2-1.2v-2.8C527.6,375.2,528.1,374.7,528.8,374.7z"/>
	<ellipse class="st0" cx="124.1" cy="326.5" rx="3.9" ry="4.4"/>
	<ellipse class="st0" cx="576.2" cy="190.3" rx="4.4" ry="5"/>
	<circle class="st0" cx="442.8" cy="105.8" r="3.9"/>
	<circle class="st0" cx="60.7" cy="290.4" r="5"/>
	<path class="st0" d="M125.3,91.9h-0.2c-1.2,15.3-13.8,15.5-13.8,15.5s13.9,0.2,13.9,17.9c0-17.6,13.9-17.9,13.9-17.9
		S126.5,107.1,125.3,91.9L125.3,91.9z"/>
	<path class="st0" d="M634.8,180.7c12.4-6.7,15.4-25.1,15.4-25.1s-17-7.4-29.4-0.7c-12.4,6.7-15.4,25.1-15.4,25.1
		S622.5,187.5,634.8,180.7L634.8,180.7z"/>
	<path class="st0" d="M427.6,47.1c9.2,10.7,27.8,9.7,27.8,9.7s3.6-18.2-5.6-28.9c-9.2-10.7-27.8-9.7-27.8-9.7S418.4,36.5,427.6,47.1
		L427.6,47.1z"/>
	<path class="st0" d="M15,252.5c9.2,10.7,27.8,9.7,27.8,9.7s3.6-18.2-5.6-28.9c-9.2-10.7-27.8-9.7-27.8-9.7S5.7,241.8,15,252.5z"/>
</g>
</svg>
