<?xml version="1.0" encoding="utf-8"?>
<!-- Generator: Adobe Illustrator 24.3.0, SVG Export Plug-In . SVG Version: 6.00 Build 0)  -->
<svg version="1.1" id="Layer_1" xmlns="http://www.w3.org/2000/svg" xmlns:xlink="http://www.w3.org/1999/xlink" x="0px" y="0px"
	 viewBox="0 0 663.43 457.07" style="enable-background:new 0 0 663.43 457.07;" xml:space="preserve">
<style type="text/css">
	.st0{fill:#231F20;stroke:#231F20;stroke-miterlimit:10;}
	.st1{fill:none;}
	.st2{fill:none;stroke:#E1022B;stroke-width:2;}
	.st3{fill:none;stroke:#F4B449;stroke-width:2;}
	.st4{fill:none;stroke:#589D65;stroke-width:2;}
	.st5{fill:none;stroke:#E3598F;stroke-width:2;}
	.st6{fill:none;stroke:#22AD9A;stroke-width:2;}
	.st7{fill:none;stroke:#EE3A00;stroke-width:2;}
	.st8{fill:none;stroke:#E1022B;stroke-width:0.28;}
	.st9{fill:none;stroke:#F4B449;stroke-width:0.28;}
	.st10{fill:none;stroke:#589D65;stroke-width:0.28;}
	.st11{fill:none;stroke:#E3598F;stroke-width:0.28;}
	.st12{fill:none;stroke:#22AD9A;stroke-width:0.28;}
	.st13{fill:none;stroke:#EE3A00;stroke-width:0.28;}
	.st14{fill:none;stroke:#000000;}
	.st15{fill:#FFFFFF;stroke:#000000;}
	.st16{fill:#E1022B;}
	.st17{fill:#FFFFFF;}
	.st18{fill:#F4B449;}
	.st19{fill:none;stroke:#E1022B;}
	.st20{fill:#E3598F;}
	.st21{fill:#589D65;}
	.st22{fill:#EE3A00;}
	.st23{fill:#22AD9A;}
	.st24{fill:none;stroke:#E3598F;stroke-width:2;stroke-miterlimit:10;}
	.st25{fill:none;stroke:#E1022B;stroke-width:2;stroke-miterlimit:10;}
	.st26{fill:none;stroke:#F4B449;stroke-width:2;stroke-miterlimit:10;}
	.st27{fill:none;stroke:#589D65;stroke-width:2;stroke-miterlimit:10;}
	.st28{fill:#FFFFFF;stroke:#FFFFFF;stroke-miterlimit:10;}
	.st29{fill:#E1022B;stroke:#E1022B;stroke-width:0.28;}
	.st30{fill:#F4B449;stroke:#F4B449;stroke-width:0.28;}
	.st31{fill:#589D65;stroke:#589D65;stroke-width:0.28;}
	.st32{fill:#E3598F;stroke:#E3598F;stroke-width:0.28;}
	.st33{fill:#22AD9A;stroke:#22AD9A;stroke-width:0.28;}
	.st34{fill:#EE3A00;stroke:#EE3A00;stroke-width:0.28;}
	.st35{fill:#231F20;stroke:#F4B449;stroke-miterlimit:10;}
	.st36{fill:none;stroke:#F4B449;stroke-miterlimit:10;}
	.st37{fill:#231F20;stroke:#22AD9A;stroke-miterlimit:10;}
	.st38{fill:none;stroke:#22AD9A;stroke-miterlimit:10;}
	.st39{fill:#231F20;stroke:#EE3A00;stroke-miterlimit:10;}
	.st40{fill:none;stroke:#EE3A00;stroke-miterlimit:10;}
	.st41{fill:#231F20;stroke:#E3598F;stroke-miterlimit:10;}
	.st42{fill:none;stroke:#E3598F;stroke-miterlimit:10;}
	.st43{fill:#231F20;stroke:#589D65;stroke-miterlimit:10;}
	.st44{fill:none;stroke:#589D65;stroke-miterlimit:10;}
	.st45{fill:#231F20;stroke:#E1022B;stroke-miterlimit:10;}
	.st46{fill:none;stroke:#E1022B;stroke-miterlimit:10;}
	.st47{opacity:0.2;fill-rule:evenodd;clip-rule:evenodd;fill:#EFEAEB;}
	.st48{fill-rule:evenodd;clip-rule:evenodd;fill:#F4B449;}
	.st49{fill-rule:evenodd;clip-rule:evenodd;fill:#E1022B;}
	.st50{fill-rule:evenodd;clip-rule:evenodd;fill:#E3598F;}
	.st51{fill:none;stroke:#22AD9A;stroke-width:2;stroke-miterlimit:10;}
</style>
<path class="st47" d="M119.55,49.85c-45.91,0-83.47,37.51-83.47,83.36s37.56,83.36,83.47,83.36c9.21,0,16.75,7.53,16.75,16.73
	s-7.54,16.73-16.75,16.73H75.87c-22.4,0-40.72,18.3-40.72,40.67s18.33,40.67,40.72,40.67c19.37,0,35.22,15.83,35.22,35.17
	c0,35.3,28.92,64.17,64.26,64.17h377.21c45.91,0,83.47-37.51,83.47-83.36s-37.56-83.36-83.47-83.36h-8.07
	c-9.21,0-16.75-7.52-16.75-16.73c0-9.2,7.53-16.73,16.75-16.73h54.35c22.4,0,40.72-18.3,40.72-40.67
	c0-22.34-18.28-40.62-40.64-40.67h-43.73c-19.37,0-35.22-15.83-35.22-35.18c0-35.3-28.92-64.17-64.26-64.17L119.55,49.85
	L119.55,49.85z"/>
<line class="st25" x1="130.11" y1="44.36" x2="123.83" y2="50.64"/>
<line class="st25" x1="144.43" y1="38.5" x2="123.25" y2="59.68"/>
<path class="st48" d="M25.43,178.86l-2.03,2.02C24.01,180.15,24.69,179.47,25.43,178.86z"/>
<path class="st48" d="M132.05,270.59c-4.1,5.16-8.79,9.86-13.98,13.98L132.05,270.59z"/>
<line class="st25" x1="158.16" y1="33.12" x2="123.25" y2="68.03"/>
<line class="st25" x1="166.68" y1="32.49" x2="123.38" y2="75.79"/>
<polyline class="st25" points="124.49,83.01 151.59,55.91 153.94,53.57 173.3,34.21 "/>
<line class="st25" x1="204.98" y1="61.15" x2="149.5" y2="116.63"/>
<line class="st25" x1="204.98" y1="69.04" x2="154.72" y2="119.3"/>
<line class="st25" x1="160.8" y1="121.55" x2="204.67" y2="77.68"/>
<line class="st25" x1="202.01" y1="88.8" x2="170.18" y2="120.63"/>
<path class="st49" d="M130.11,44.36l-6.28,6.28c0.95-2.71,3.01-4.95,5.77-6.07L130.11,44.36z"/>
<polyline class="st26" points="23.37,180.91 23.4,180.88 25.43,178.86 25.45,178.84 "/>
<polyline class="st26" points="41.12,171.62 41.11,171.63 19.55,193.2 "/>
<line class="st26" x1="55.25" y1="165.84" x2="19.55" y2="201.55"/>
<polyline class="st26" points="68.62,160.37 68.61,160.38 19.55,209.44 "/>
<polyline class="st26" points="19.55,217.76 53.92,183.39 56.27,181.04 80.24,157.07 "/>
<line class="st26" x1="88.77" y1="157" x2="19.76" y2="226.01"/>
<line class="st26" x1="95.71" y1="158.39" x2="20.68" y2="233.43"/>
<line class="st26" x1="101.49" y1="160.57" x2="22.11" y2="239.96"/>
<line class="st26" x1="107.4" y1="162.99" x2="24.07" y2="246.32"/>
<line class="st26" x1="149.33" y1="186.51" x2="51.4" y2="284.44"/>
<line class="st26" x1="150.09" y1="194.08" x2="56.18" y2="287.99"/>
<line class="st26" x1="150.09" y1="202.73" x2="61.47" y2="291.35"/>
<line class="st26" x1="150.09" y1="211.19" x2="66.97" y2="294.31"/>
<line class="st26" x1="150.09" y1="219.54" x2="72.75" y2="296.88"/>
<line class="st26" x1="149.73" y1="227.79" x2="78.58" y2="298.94"/>
<polyline class="st26" points="85.37,300.48 129.24,256.61 131.58,254.27 148.08,237.77 "/>
<line class="st26" x1="144.06" y1="250.25" x2="97.81" y2="296.5"/>
<line class="st26" x1="132.05" y1="270.59" x2="118.07" y2="284.57"/>
<path class="st1" d="M80.74,250.01c-1.93,0-3.85-0.73-5.33-2.21l-18.36-18.36c-2.94-2.94-2.94-7.71,0-10.65
	c2.94-2.94,7.71-2.94,10.65,0l13.03,13.03l25.27-25.27c2.94-2.94,7.71-2.94,10.65,0c2.94,2.94,2.94,7.71,0,10.65L86.06,247.8
	C84.59,249.27,82.67,250.01,80.74,250.01z"/>
<path class="st1" d="M405.54,180.32l-0.07,0.07c0.24,0.15,0.47,0.31,0.7,0.48C405.95,180.7,405.74,180.51,405.54,180.32z
	 M400.36,158.78v1.6l1.05-1.05C401.06,159.14,400.71,158.95,400.36,158.78z M425.15,389.11c3.34-2.76,6.59-5.71,9.72-8.84
	c3.13-3.13,6.08-6.38,8.84-9.72L425.15,389.11z M410.42,183.4l-0.3,0.3"/>
<path class="st1" d="M336.74,340.85c-8.84,0-16.01-7.17-16.01-16.01V281.7c-9.55-5.54-15.99-15.86-16.01-27.67
	c-0.05-8.54,3.24-16.57,9.26-22.63c6.05-6.09,14.11-9.45,22.7-9.45c17.69,0,32.09,14.37,32.09,32.02c0,11.83-6.45,22.18-16.01,27.73
	v43.13C352.75,333.68,345.58,340.85,336.74,340.85z"/>
<path class="st50" d="M515.07,127.23l-5.35,5.36C510.78,130.25,512.65,128.32,515.07,127.23z"/>
<path class="st1" d="M161.56,90.72C161.56,90.72,161.56,90.72,161.56,90.72c-1.25,0-2.45-0.5-3.33-1.38l-11.49-11.5
	c-1.84-1.84-1.84-4.83,0-6.67c1.84-1.84,4.83-1.84,6.67,0l8.16,8.16l15.82-15.82c1.84-1.84,4.83-1.84,6.67,0
	c1.84,1.84,1.84,4.83,0,6.67L164.9,89.34C164.01,90.23,162.81,90.72,161.56,90.72z"/>
<polyline class="st24" points="509.71,132.6 509.72,132.59 515.07,127.23 515.08,127.22 "/>
<line class="st24" x1="529.44" y1="121.33" x2="508.75" y2="142.01"/>
<polyline class="st24" points="508.75,150.36 543.52,115.59 543.53,115.58 "/>
<line class="st24" x1="552.9" y1="114.11" x2="508.78" y2="158.22"/>
<polyline class="st24" points="509.63,165.7 550.12,125.22 552.47,122.87 559.97,115.37 "/>
<line class="st24" x1="595.37" y1="145.48" x2="537.14" y2="203.71"/>
<polyline class="st24" points="542.7,206.48 584.91,164.26 587.26,161.92 595.37,153.81 "/>
<line class="st24" x1="594.96" y1="162.67" x2="548.92" y2="208.71"/>
<line class="st24" x1="592.31" y1="173.66" x2="558.24" y2="207.73"/>
<path class="st1" d="M549.36,175.94c-1.33,0-2.6-0.53-3.53-1.46l-12.18-12.18c-1.95-1.95-1.95-5.12,0-7.07
	c1.95-1.95,5.12-1.95,7.07,0l8.65,8.65l16.77-16.77c1.95-1.95,5.12-1.95,7.07,0c1.95,1.95,1.95,5.12,0,7.07l-20.3,20.3
	C551.95,175.42,550.68,175.94,549.36,175.94z"/>
<line class="st26" x1="57.06" y1="229.46" x2="29.01" y2="257.51"/>
<line class="st26" x1="118.85" y1="167.67" x2="67.71" y2="218.81"/>
<line class="st26" x1="54.92" y1="223.14" x2="26.25" y2="251.81"/>
<line class="st26" x1="112.85" y1="165.21" x2="61.4" y2="216.66"/>
<line class="st26" x1="61.24" y1="233.63" x2="32.07" y2="262.8"/>
<line class="st26" x1="124.78" y1="170.09" x2="71.89" y2="222.98"/>
<line class="st26" x1="65.18" y1="237.58" x2="35.25" y2="267.51"/>
<line class="st26" x1="130.37" y1="172.39" x2="75.83" y2="226.93"/>
<polyline class="st26" points="80,231.09 96.38,214.71 98.72,212.37 136.29,174.8 "/>
<line class="st26" x1="69.35" y1="241.74" x2="38.9" y2="272.19"/>
<line class="st26" x1="73.58" y1="245.97" x2="42.89" y2="276.66"/>
<line class="st26" x1="142.15" y1="177.4" x2="114.5" y2="205.05"/>
<line class="st26" x1="78.29" y1="249.59" x2="47.11" y2="280.77"/>
<line class="st26" x1="146.57" y1="181.31" x2="118.44" y2="209.44"/>
<line class="st25" x1="179.3" y1="36.66" x2="126.48" y2="89.48"/>
<line class="st25" x1="146.59" y1="77.7" x2="129.06" y2="95.23"/>
<line class="st25" x1="185.21" y1="39.08" x2="153.25" y2="71.04"/>
<line class="st25" x1="150.57" y1="81.69" x2="132.05" y2="100.2"/>
<line class="st25" x1="190.86" y1="41.39" x2="157.24" y2="75.02"/>
<line class="st25" x1="154.73" y1="85.85" x2="135.63" y2="104.95"/>
<line class="st25" x1="196.77" y1="43.81" x2="161.4" y2="79.18"/>
<line class="st25" x1="159.22" y1="90.1" x2="139.9" y2="109.42"/>
<line class="st25" x1="202.25" y1="47.07" x2="184.8" y2="64.52"/>
<line class="st25" x1="204.91" y1="52.88" x2="144.49" y2="113.29"/>
<line class="st24" x1="566.02" y1="117.78" x2="511.38" y2="172.42"/>
<line class="st24" x1="532.3" y1="159.83" x2="513.75" y2="178.37"/>
<line class="st24" x1="571.93" y1="120.2" x2="538.24" y2="153.89"/>
<line class="st24" x1="535.71" y1="164.37" x2="516.52" y2="183.56"/>
<line class="st24" x1="577.58" y1="122.51" x2="542.78" y2="157.3"/>
<line class="st24" x1="539.88" y1="168.54" x2="519.89" y2="188.53"/>
<line class="st24" x1="583.49" y1="124.93" x2="546.95" y2="161.47"/>
<line class="st24" x1="543.75" y1="172.41" x2="523.4" y2="192.75"/>
<line class="st24" x1="588.96" y1="127.19" x2="570.44" y2="145.71"/>
<line class="st24" x1="548.71" y1="175.9" x2="527.68" y2="196.93"/>
<line class="st24" x1="593.55" y1="131.06" x2="574.61" y2="150"/>
<line class="st24" x1="595.37" y1="137.59" x2="532.33" y2="200.63"/>
<g>
	<line class="st51" x1="281.34" y1="37.12" x2="255.01" y2="63.45"/>
	<line class="st51" x1="299.15" y1="27.66" x2="245.59" y2="81.22"/>
	<line class="st51" x1="310.94" y1="23.76" x2="241.69" y2="93.01"/>
	<polyline class="st51" points="241.59,101.45 297.17,45.87 299.51,43.52 321.4,21.63 	"/>
	<line class="st51" x1="330.76" y1="20.73" x2="244.35" y2="107.14"/>
	<line class="st51" x1="339.13" y1="20.69" x2="248.73" y2="111.09"/>
	<line class="st51" x1="275.8" y1="91.98" x2="254.55" y2="113.23"/>
	<line class="st51" x1="346.54" y1="21.24" x2="309.91" y2="57.87"/>
	<line class="st51" x1="271.3" y1="104.81" x2="264.49" y2="111.62"/>
	<line class="st51" x1="353.76" y1="22.35" x2="322.08" y2="54.03"/>
	<line class="st51" x1="360.96" y1="24.01" x2="332.25" y2="52.72"/>
	<line class="st51" x1="367.41" y1="26.02" x2="340.59" y2="52.84"/>
	<line class="st51" x1="373.43" y1="28.35" x2="347.94" y2="53.84"/>
	<line class="st51" x1="242.34" y1="159.44" x2="214.12" y2="187.66"/>
	<line class="st51" x1="378.81" y1="30.86" x2="354.26" y2="55.41"/>
	<line class="st51" x1="264.5" y1="145.17" x2="199.9" y2="209.77"/>
	<line class="st51" x1="384.21" y1="33.79" x2="360.39" y2="57.61"/>
	<line class="st51" x1="279.93" y1="138.07" x2="192.83" y2="225.17"/>
	<line class="st51" x1="389.41" y1="37.05" x2="366.12" y2="60.34"/>
	<polyline class="st51" points="292.8,133.66 259.89,166.57 221.16,205.3 188.38,238.08 	"/>
	<line class="st51" x1="394.26" y1="40.53" x2="371.33" y2="63.46"/>
	<polyline class="st51" points="185.54,249.25 210.63,224.16 278.76,156.03 303.97,130.82 	"/>
	<line class="st51" x1="398.65" y1="44.09" x2="375.92" y2="66.82"/>
	<polyline class="st51" points="183.76,258.98 205.37,237.37 291.97,150.77 313.68,129.06 	"/>
	<line class="st51" x1="403" y1="48.08" x2="380.37" y2="70.71"/>
	<polyline class="st51" points="323.14,127.94 303.75,147.33 275.23,175.85 230.57,220.51 201.93,249.15 182.63,268.45 	"/>
	<line class="st51" x1="407.51" y1="52.78" x2="384.84" y2="75.45"/>
	<polyline class="st51" points="182.08,278.21 199.64,260.65 222.16,238.13 292.88,167.41 315.24,145.05 332.88,127.41 	"/>
	<line class="st51" x1="411.39" y1="57.36" x2="388.54" y2="80.21"/>
	<polyline class="st51" points="182.1,286.65 198.48,270.27 218.13,250.62 305.33,163.42 324.86,143.89 341.32,127.43 	"/>
	<polyline class="st51" points="349.25,127.85 333.69,143.41 315.98,161.12 215.81,261.29 198.01,279.09 182.53,294.57 	"/>
	<line class="st51" x1="414.96" y1="62.14" x2="391.79" y2="85.31"/>
	<line class="st51" x1="418.09" y1="66.9" x2="394.47" y2="90.52"/>
	<polyline class="st51" points="183.27,301.72 198.06,286.93 214.6,270.39 325.06,159.93 341.53,143.46 356.4,128.59 	"/>
	<line class="st51" x1="421.12" y1="72.2" x2="396.86" y2="96.46"/>
	<polyline class="st51" points="184.36,308.96 198.55,294.77 214.08,279.24 333.9,159.42 349.37,143.95 363.64,129.68 	"/>
	<line class="st51" x1="423.9" y1="77.88" x2="398.74" y2="103.04"/>
	<polyline class="st51" points="185.76,316.02 199.44,302.34 214.17,287.61 342.27,159.51 356.94,144.84 370.7,131.08 	"/>
	<line class="st51" x1="426.33" y1="83.78" x2="399.94" y2="110.17"/>
	<polyline class="st51" points="187.4,322.71 200.67,309.44 214.76,295.35 350.02,160.09 364.04,146.07 377.38,132.73 	"/>
	<line class="st51" x1="428.33" y1="89.74" x2="400.36" y2="117.71"/>
	<polyline class="st51" points="189.2,328.87 202.13,315.94 215.71,302.36 357.02,161.05 370.54,147.53 383.55,134.52 	"/>
	<line class="st51" x1="430.05" y1="96.35" x2="400.36" y2="126.04"/>
	<polyline class="st51" points="191.3,335.1 203.93,322.47 217.07,309.33 364,162.4 377.06,149.34 389.76,136.64 	"/>
	<line class="st51" x1="431.52" y1="104.52" x2="400.36" y2="135.68"/>
	<polyline class="st51" points="194.01,342.04 206.35,329.7 219.06,316.99 371.65,164.39 384.29,151.75 396.69,139.35 	"/>
	<polyline class="st51" points="196.61,347.89 208.72,335.78 221.13,323.37 378.04,166.46 390.38,154.12 400.36,144.14 
		402.54,141.96 432.24,112.26 	"/>
	<polyline class="st51" points="199.36,353.49 211.3,341.55 223.45,329.4 305.35,247.5 	"/>
	<polyline class="st51" points="330.25,222.6 384.05,168.8 396.15,156.7 400.36,152.49 408.13,144.72 432.39,120.46 	"/>
	<polyline class="st51" points="432.39,128.35 413.23,147.51 401.41,159.33 400.36,160.38 389.51,171.23 338.72,222.02 	"/>
	<polyline class="st51" points="202.14,358.6 213.92,346.82 225.88,334.86 304.78,255.96 	"/>
	<polyline class="st51" points="205.25,363.82 216.9,352.17 228.68,340.39 306.02,263.05 	"/>
	<polyline class="st51" points="345.79,223.28 395.03,174.04 400.36,168.71 406.77,162.3 418.45,150.62 432.39,136.68 	"/>
	<polyline class="st51" points="208.58,368.95 220.13,357.4 231.76,345.77 308.49,269.04 	"/>
	<polyline class="st51" points="351.79,225.74 400.4,177.13 401.98,175.55 412,165.53 423.57,153.96 432.39,145.14 	"/>
	<polyline class="st51" points="432.39,153.47 428.45,157.41 416.96,168.9 405.54,180.32 405.47,180.39 356.8,229.06 	"/>
	<polyline class="st51" points="212.03,373.83 223.49,362.37 235.01,350.85 311.81,274.05 	"/>
	<polyline class="st51" points="215.47,378.35 226.87,366.95 238.32,355.5 315.71,278.11 	"/>
	<polyline class="st51" points="360.85,232.97 410.12,183.7 410.42,183.4 421.54,172.28 432.39,161.43 432.95,160.87 	"/>
	<polyline class="st51" points="219.24,382.91 230.61,371.54 241.98,360.17 320.54,281.61 	"/>
	<polyline class="st51" points="364.35,237.8 414.78,187.37 417.65,184.5 426.14,176.01 432.34,169.81 437.51,164.64 	"/>
	<polyline class="st51" points="224.31,388.52 235.64,377.19 246.97,365.86 320.72,292.11 	"/>
	<polyline class="st51" points="367.56,245.28 420.46,192.37 431.79,181.04 443.12,169.71 	"/>
	<polyline class="st51" points="228.5,392.79 239.83,381.46 251.16,370.13 320.72,300.57 	"/>
	<polyline class="st51" points="368.73,252.56 424.73,196.56 436.06,185.23 447.39,173.9 	"/>
	<polyline class="st51" points="232.8,396.84 244.14,385.5 255.49,374.15 320.72,308.92 	"/>
	<polyline class="st51" points="367.77,261.87 428.75,200.89 440.09,189.55 451.44,178.2 	"/>
	<polyline class="st51" points="237.01,400.52 248.38,389.15 259.76,377.77 320.72,316.81 	"/>
	<polyline class="st51" points="352.75,284.78 432.37,205.16 443.75,193.78 455.13,182.4 	"/>
	<polyline class="st51" points="241.6,404.25 253.02,392.83 264.48,381.37 320.73,325.13 	"/>
	<polyline class="st51" points="352.75,293.11 367.67,278.19 371.75,274.1 435.99,209.87 447.43,198.43 458.86,187 	"/>
	<polyline class="st51" points="246.45,407.87 257.93,396.39 269.48,384.84 322.38,331.94 	"/>
	<polyline class="st51" points="352.75,301.57 439.46,214.86 450.99,203.33 462.49,191.83 	"/>
	<polyline class="st51" points="251.37,411.27 262.94,399.7 274.62,388.02 325.96,336.68 	"/>
	<polyline class="st51" points="352.75,309.89 442.66,219.99 454.3,208.35 465.9,196.75 	"/>
	<polyline class="st51" points="256.24,414.37 267.93,402.68 279.73,390.87 330.87,339.74 	"/>
	<polyline class="st51" points="352.75,317.85 445.5,225.11 457.28,213.33 469,201.61 	"/>
	<polyline class="st51" points="261.51,417.43 273.33,405.61 285.33,393.61 338.15,340.79 	"/>
	<polyline class="st51" points="352.69,326.25 448.26,230.68 460.21,218.73 472.06,206.88 	"/>
	<polyline class="st51" points="474.83,212.06 462.81,224.08 450.66,236.23 290.89,396.01 278.68,408.22 266.71,420.19 	"/>
	<polyline class="st51" points="477.59,217.76 477.59,217.77 465.37,229.98 452.95,242.4 297.07,398.29 284.58,410.78 
		272.42,422.94 	"/>
	<polyline class="st51" points="480.11,223.59 467.66,236.04 454.93,248.77 303.44,400.26 290.64,413.06 278.25,425.45 	"/>
	<polyline class="st51" points="482.3,229.29 469.6,241.99 456.52,255.07 309.74,401.85 296.59,415 283.95,427.64 	"/>
	<polyline class="st51" points="484.41,235.51 471.39,248.53 457.87,262.05 403.53,316.39 316.73,403.2 316.72,403.2 303.13,416.79 
		290.19,429.74 	"/>
	<polyline class="st51" points="486.31,242.07 472.93,255.45 458.86,269.52 324.19,404.19 310.05,418.33 296.75,431.63 	"/>
	<polyline class="st51" points="487.93,248.78 474.13,262.58 459.4,277.31 459.4,277.32 331.98,404.74 317.19,419.53 303.46,433.26 
			"/>
	<polyline class="st51" points="489.24,255.43 489.24,255.44 474.95,269.72 459.46,285.21 339.89,404.79 339.88,404.79 
		324.33,420.35 310.12,434.56 	"/>
	<polyline class="st51" points="490.31,262.69 475.43,277.58 458.93,294.07 348.75,404.26 332.18,420.83 317.37,435.64 	"/>
	<polyline class="st51" points="491.27,273.17 491.27,273.18 475.33,289.11 456.86,307.58 362.27,402.18 343.72,420.73 
		327.86,436.59 	"/>
	<path class="st51" d="M491.52,281.38L491.52,281.38l-16.95,16.95c0,0.01-0.01,0.01-0.01,0.01l-20.67,20.67v0.01l-80.15,80.15
		l-20.8,20.79c0,0,0,0.01-0.01,0.01l-16.87,16.88"/>
	<polyline class="st51" points="491.33,289.92 473.05,308.2 448.77,332.48 387.2,394.05 362.8,418.45 344.6,436.65 	"/>
	<path class="st51" d="M353.15,435.99l19.88-19.88l31.84-31.84l34.07-34.06c0.01-0.01,0.02-0.02,0.02-0.03l31.75-31.75l19.96-19.96"
		/>
	<polyline class="st51" points="489.36,308.11 466.76,330.71 451.24,346.23 448.32,349.16 385.32,412.16 362.83,434.65 	"/>
	<polyline class="st51" points="487.19,318.74 460.04,345.89 400.49,405.44 373.47,432.46 	"/>
	<polyline class="st51" points="483.9,330.36 443.71,370.55 425.15,389.11 385.11,429.15 	"/>
	<path class="st51" d="M479.09,343.13C479.09,343.14,479.09,343.14,479.09,343.13l-81.16,81.17c-0.01,0-0.01,0.01-0.02,0.01"/>
	<line class="st51" x1="470.65" y1="359.9" x2="414.65" y2="415.9"/>
</g>
<path class="st1" d="M-126-81.83h900v600h-900V-81.83z"/>
</svg>
