<?xml version="1.0" encoding="utf-8"?>
<!-- Generator: Adobe Illustrator 24.3.0, SVG Export Plug-In . SVG Version: 6.00 Build 0)  -->
<svg version="1.1" id="Layer_1" xmlns="http://www.w3.org/2000/svg" xmlns:xlink="http://www.w3.org/1999/xlink" x="0px" y="0px"
	 viewBox="0 0 697 541" style="enable-background:new 0 0 697 541;" xml:space="preserve">
<style type="text/css">
	.st0{fill:#589D65;}
	.st1{opacity:0.5;fill:#589D65;}
	.st2{fill-rule:evenodd;clip-rule:evenodd;fill:#589D65;}
</style>
<g>
	<path class="st0" d="M286.7,121.5l28-7.5c2.8-0.8,5.8,0.9,6.5,3.8l0,0c0.8,2.8-0.9,5.8-3.8,6.5l-28,7.5c-2.8,0.8-5.8-0.9-6.5-3.8
		l0,0C282.2,125.1,283.8,122.2,286.7,121.5z"/>
	<path class="st0" d="M331.7,296.8c-7.2,0-11.8-1.3-12.1-1.4c-3.7-1.1-5.8-5-4.7-8.7c1.1-3.7,5-5.8,8.6-4.7
		c0.3,0.1,8.8,2.3,20.9-0.9c12.3-3.3,18.5-9.6,18.5-9.7c2.6-2.8,7.1-2.9,9.9-0.3c2.8,2.6,2.9,7.1,0.3,9.9
		c-0.4,0.4-8.8,9.2-25.1,13.6C341.8,296.2,336.2,296.8,331.7,296.8z"/>
	
		<ellipse transform="matrix(0.9659 -0.2588 0.2588 0.9659 -56.1531 88.1394)" class="st0" cx="306.7" cy="257.3" rx="12.3" ry="12"/>
	
		<ellipse transform="matrix(0.9659 -0.2588 0.2588 0.9659 -50.1337 102.671)" class="st0" cx="364.9" cy="241.7" rx="12.3" ry="12"/>
	<path class="st1" d="M650.1,387h-33.6c-12.2,0-22,9.9-22,22s9.9,22,22,22h33.6c12.2,0,22-9.9,22-22S662.3,387,650.1,387z
		 M617.2,426.5c-9.8,0-17.7-7.9-17.7-17.7s7.9-17.7,17.7-17.7s17.7,7.9,17.7,17.7S626.9,426.5,617.2,426.5z"/>
	<path class="st1" d="M143.5,480.3h-33.6c-12.2,0-22,9.9-22,22s9.9,22,22,22h33.6c12.2,0,22-9.9,22-22S155.7,480.3,143.5,480.3z
		 M110.6,519.8c-9.8,0-17.7-7.9-17.7-17.7s7.9-17.7,17.7-17.7s17.7,7.9,17.7,17.7S120.4,519.8,110.6,519.8z"/>
	<path class="st0" d="M627,54.5h-33.6c-12.2,0-22,9.9-22,22s9.9,22,22,22H627c12.2,0,22-9.9,22-22S639.2,54.5,627,54.5z M626.4,94.4
		c-9.8,0-17.7-7.9-17.7-17.7S616.6,59,626.4,59c9.8,0,17.7,7.9,17.7,17.7S636.2,94.4,626.4,94.4z"/>
	<path class="st2" d="M64.1,133.9l16.9,8.8c3.3,1.7,7.1-1.1,6.5-4.7l-3.2-18.7L97.9,106c2.7-2.6,1.2-7.1-2.5-7.6l-18.9-2.7l-8.4-17
		c-1.6-3.3-6.4-3.3-8,0l-8.4,17l-18.9,2.7c-3.7,0.5-5.1,5-2.5,7.6L44,119.3L40.8,138c-0.6,3.7,3.2,6.4,6.5,4.7L64.1,133.9
		L64.1,133.9L64.1,133.9L64.1,133.9z M655.9,292.7l16.9,8.8c3.3,1.7,7.1-1.1,6.5-4.7l-3.2-18.7l13.6-13.3c2.7-2.6,1.2-7.1-2.5-7.6
		l-18.9-2.7l-8.4-17c-1.6-3.3-6.4-3.3-8,0l-8.4,17l-18.9,2.7c-3.7,0.5-5.1,5-2.5,7.6l13.6,13.3l-3.2,18.7c-0.6,3.7,3.2,6.4,6.5,4.7
		L655.9,292.7L655.9,292.7L655.9,292.7L655.9,292.7z"/>
	<path class="st0" d="M524.5,92.6c-9.1-9.6-19-18.6-29.5-26.7L477.6,76c-3.2,1.9-7.2-0.5-7.2-4.2V49.1c-11.2-6.8-23-12.7-35.2-17.7
		c-29.8-12.2-62.4-18.9-96.6-18.9c-141.4,0-255.9,114.6-255.9,255.9s114.6,255.9,255.9,255.9c141.3,0,255.9-114.6,255.9-255.9
		C594.5,200.4,567.9,138.5,524.5,92.6z M213.7,294.8l-17.6,24c-1.9,2.5-5.4,3.1-8,1.4l-12.7-8.7l-8.5,13c-1.8,2.8-5.4,3.5-8.1,1.7
		c-2.7-1.8-3.4-5.6-1.6-8.3l11.8-18c1.8-2.8,5.4-3.5,8.1-1.7l13,8.8l14.3-19.4c1.9-2.6,5.6-3.2,8.2-1.2c1.5,1.2,2.4,3,2.4,4.8
		C214.8,292.5,214.4,293.8,213.7,294.8z M459.5,415.5c-0.6,0.2-1.3,0.5-2,0.6l-144.2,38.6c-0.3,0.1-0.6,0.2-0.9,0.2
		c-0.1,0-0.2,0-0.3,0.1c-0.2,0-0.4,0.1-0.6,0.1c-0.1,0-0.3,0-0.4,0.1c-0.2,0-0.4,0-0.5,0.1c-0.1,0-0.3,0-0.4,0c-0.2,0-0.3,0-0.5,0
		c-0.2,0-0.3,0-0.5,0c-0.2,0-0.3,0-0.5,0c-0.2,0-0.3,0-0.5,0c-0.1,0-0.3,0-0.4,0c-0.4,0-0.8,0-1.2-0.1h-0.1
		c-8.2-0.7-15.5-6.5-17.7-14.9L274,385.6l-64.5-240.5c-0.2-0.7-0.3-1.3-0.4-2c-1.4-8.7,3.1-17.3,10.8-21.2c1.2-0.6,2.5-1.1,3.8-1.4
		L368,81.7c0.3-0.1,0.6-0.2,0.9-0.2c0.1,0,0.2,0,0.3-0.1c0.3-0.1,0.7-0.1,1-0.2c0.3-0.1,0.7-0.1,1-0.1c0.2,0,0.3,0,0.5,0
		c0.2,0,0.3,0,0.5,0c0.2,0,0.3,0,0.5,0c0.1,0,0.3,0,0.5,0c0.2,0,0.3,0,0.4,0c0.5,0,0.9,0,1.3,0.1c4.1,0.3,8,2,11.1,4.5
		s5.5,6.1,6.6,10.3l14.7,54.9l64.4,240.5c0.2,0.7,0.3,1.3,0.4,2C473.8,402.9,468.4,412.1,459.5,415.5z M510.5,209.9l-17.6,24
		c-1.9,2.5-5.4,3.2-8,1.4l-12.7-8.7l-8.5,13c-1.8,2.8-5.4,3.5-8.1,1.7c-2.7-1.8-3.4-5.5-1.6-8.3l11.7-18c1.8-2.8,5.5-3.5,8.1-1.7
		l13,8.8l14.3-19.4c2-2.7,5.6-3.2,8.2-1.2c1.5,1.2,2.4,3,2.4,4.8C511.7,207.5,511.3,208.8,510.5,209.9z"/>
	<g>
		<path class="st0" d="M56.4,299.2c-0.6-1.5-1.9-2.8-3.4-3.4L41.6,291c-2.4-1-5.2-0.5-7,1.4l-9.4,9.5c-1.9,1.9-2.4,4.7-1.4,7.1
			l2.8,6.5L7.1,334.8V345h10.2l4.3-4.3v-5.7h4.5v-4.5h5.7l4.8-4.8l6.7,2.8c2.4,1,5.2,0.5,7-1.4l9.4-9.5c1.9-1.9,2.4-4.7,1.4-7.1
			L56.4,299.2z M42.4,314.7C42.4,314.7,42.4,314.7,42.4,314.7c-2.7,0-4.9-2.2-4.9-4.9c0-2.7,2.2-4.9,4.9-4.9h0
			c2.7,0,4.9,2.2,4.9,4.9C47.3,312.5,45.1,314.7,42.4,314.7z"/>
		<path class="st0" d="M44.7,190.9L44.7,190.9c-5.8,0-9.6,2.9-11.8,5.5c-2.2-2.6-6-5.5-11.8-5.5c-10.2,0-17,9.6-17,18.5
			c0,18.1,28.3,32.9,28.8,32.9c0.5,0,28.8-14.8,28.8-32.9C61.7,200.4,54.9,190.9,44.7,190.9z"/>
		<path class="st0" d="M655.5,143.7c-5,0-8.2,2.5-10.1,4.7c-1.9-2.2-5.2-4.7-10.1-4.7c-8.7,0-14.5,8.2-14.5,15.8
			c0,15.5,24.2,28.2,24.6,28.2c0.4,0,24.6-12.7,24.6-28.2C670,151.9,664.2,143.7,655.5,143.7z"/>
	</g>
	<path class="st0" d="M50.2,387.7c-17.6,0-31.9,14.3-31.9,31.9s14.3,31.9,31.9,31.9s31.9-14.3,31.9-31.9S67.8,387.7,50.2,387.7z
		 M60.2,422.5l-12.6,7.3c-1.9,1.1-4.2-0.3-4.2-2.5v-14.6c0-2.2,2.4-3.5,4.2-2.5l12.6,7.3C62.1,418.7,62.1,421.4,60.2,422.5z"/>
	<path class="st0" d="M482.2,4.3c-20.1,0-37.6,10.9-47,27.1c-4.6,8-7.3,17.3-7.3,27.2c0,30,24.3,54.3,54.3,54.3
		c17.1,0,32.4-7.9,42.3-20.3c7.5-9.3,12-21.1,12-34C536.5,28.6,512.2,4.3,482.2,4.3z M477.6,76c-3.2,1.9-7.2-0.5-7.2-4.2V47
		c0-3.7,4-6,7.2-4.2l21.5,12.4c1.6,0.9,2.4,2.5,2.4,4.2c0,1.6-0.8,3.3-2.4,4.2l-4.1,2.4L477.6,76z"/>
	<circle class="st0" cx="566.2" cy="31.4" r="14.7"/>
	<circle class="st0" cx="74.8" cy="167.3" r="7.9"/>
	<circle class="st0" cx="624.7" cy="216.9" r="7.2"/>
	<circle class="st1" cx="486.2" cy="527.3" r="9.2"/>
	<circle class="st1" cx="214.3" cy="530.2" r="6.8"/>
	<circle class="st1" cx="69.9" cy="357.4" r="10.1"/>
	<circle class="st1" cx="188.7" cy="29.9" r="13.4"/>
	<ellipse class="st1" cx="648.9" cy="344.9" rx="10.3" ry="8.3"/>
	<circle class="st1" cx="597.8" cy="131.3" r="7"/>
</g>
</svg>
