<?xml version="1.0" encoding="utf-8"?>
<!-- Generator: Adobe Illustrator 24.3.0, SVG Export Plug-In . SVG Version: 6.00 Build 0)  -->
<svg version="1.1" id="Layer_1" xmlns="http://www.w3.org/2000/svg" xmlns:xlink="http://www.w3.org/1999/xlink" x="0px" y="0px"
	 viewBox="0 0 566 446.5" style="enable-background:new 0 0 566 446.5;" xml:space="preserve">
<style type="text/css">
	.st0{fill:#E1022B;}
	.st1{opacity:0.5;fill:#E1022B;}
</style>
<g>
	<path class="st0" d="M289.1,47.5c-98,0-177.4,79.4-177.4,177.4s79.4,177.4,177.4,177.4s177.4-79.4,177.4-177.4
		C466.6,126.9,387.1,47.5,289.1,47.5z M289.1,377.8c-84.4,0-152.9-68.4-152.9-152.9S204.7,72,289.1,72S442,140.5,442,224.9
		S373.6,377.8,289.1,377.8z"/>
	<g>
		<path class="st0" d="M284.7,109.4c0,0.6,0.4,1,0.6,1.2c0.3,0.2,0.6,0.3,0.9,0.4c0.7,0.2,1.5,0.3,2.4,0.3c0.9,0,1.8-0.1,2.4-0.3
			c0.3-0.1,0.7-0.2,0.9-0.4c0.3-0.2,0.6-0.6,0.6-1.2V85.2c0-0.6-0.4-1-0.6-1.2c-0.3-0.2-0.6-0.3-0.9-0.4c-0.7-0.2-1.5-0.3-2.4-0.3
			s-1.8,0.1-2.4,0.3c-0.3,0.1-0.7,0.2-0.9,0.4c-0.3,0.2-0.6,0.6-0.6,1.2V109.4L284.7,109.4z M284.7,361.4c0,0.6,0.4,1,0.7,1.2
			c0.3,0.2,0.6,0.3,0.9,0.4c0.7,0.2,1.5,0.3,2.4,0.3c0.9,0,1.7-0.1,2.4-0.3c0.3-0.1,0.6-0.2,0.9-0.4c0.2-0.2,0.7-0.5,0.7-1.2v-24.2
			c0-0.6-0.4-1-0.7-1.2c-0.3-0.2-0.6-0.3-0.9-0.4c-0.7-0.2-1.5-0.3-2.4-0.3s-1.7,0.1-2.4,0.3c-0.3,0.1-0.6,0.2-0.9,0.4
			c-0.2,0.2-0.7,0.5-0.7,1.2V361.4z M150.5,224.4h26.8c1.2,0,1.9-1,1.9-2c0-1-0.8-2-1.9-2h-26.8c-1.2,0-1.9,1-1.9,2
			C148.5,223.4,149.3,224.4,150.5,224.4z"/>
		<path class="st0" d="M288.7,364.3c-1,0-1.9-0.1-2.7-0.3c-0.5-0.1-0.9-0.3-1.2-0.6c-0.7-0.5-1.1-1.2-1.1-2v-24.2
			c0-0.8,0.4-1.5,1.1-2c0.4-0.3,0.8-0.4,1.2-0.6c1.5-0.4,3.8-0.4,5.3,0c0.4,0.1,0.8,0.3,1.2,0.5c0.7,0.5,1.1,1.2,1.1,2v24.2
			c0,0.8-0.4,1.5-1.1,2c-0.4,0.3-0.8,0.4-1.2,0.6C290.6,364.2,289.7,364.3,288.7,364.3z M288.7,336.3c-0.8,0-1.6,0.1-2.1,0.3
			c-0.3,0.1-0.5,0.2-0.7,0.3c-0.1,0.1-0.2,0.2-0.2,0.3v24.2c0,0.1,0.1,0.2,0.2,0.3c0.2,0.1,0.4,0.2,0.6,0.3c1.1,0.3,3.1,0.3,4.2,0
			c0.2-0.1,0.5-0.2,0.7-0.3c0.1-0.1,0.2-0.2,0.2-0.3v-24.2c0-0.1-0.1-0.2-0.2-0.3c-0.2-0.1-0.4-0.2-0.6-0.3
			C290.2,336.4,289.5,336.3,288.7,336.3z M177.2,225.4h-26.8c-1.6,0-2.9-1.4-2.9-3c0-1.7,1.3-3,2.9-3h26.8c1.6,0,2.9,1.4,2.9,3
			C180.2,224,178.9,225.4,177.2,225.4z M150.5,221.3c-0.6,0-0.9,0.5-0.9,1s0.4,1,0.9,1h26.8c0.6,0,0.9-0.5,0.9-1s-0.4-1-0.9-1H150.5
			z M288.7,112.3c-1,0-1.9-0.1-2.7-0.4c-0.5-0.2-0.9-0.3-1.2-0.6c-0.7-0.5-1.1-1.2-1.1-2V85.2c0-0.8,0.4-1.5,1.1-2
			c0.3-0.2,0.7-0.4,1.2-0.6c1.5-0.5,3.9-0.5,5.4,0c0.5,0.2,0.9,0.3,1.2,0.6c0.7,0.5,1.1,1.2,1.1,2v24.2c0,0.8-0.4,1.5-1.1,2
			c-0.3,0.2-0.7,0.4-1.2,0.6C290.6,112.2,289.7,112.3,288.7,112.3z M288.7,84.3c-0.8,0-1.6,0.1-2.1,0.3c-0.3,0.1-0.5,0.2-0.6,0.3
			c-0.2,0.1-0.2,0.2-0.2,0.4v24.2c0,0.1,0.1,0.2,0.2,0.4c0.2,0.1,0.4,0.2,0.6,0.3c1.1,0.3,3.1,0.4,4.2,0c0.3-0.1,0.5-0.2,0.6-0.3
			c0.2-0.1,0.2-0.2,0.2-0.4V85.2c0-0.1-0.1-0.2-0.2-0.4c-0.2-0.1-0.4-0.2-0.6-0.3C290.2,84.4,289.5,84.3,288.7,84.3z"/>
	</g>
	<g>
		<path class="st0" d="M150.6,226.3h27.1c0.6,0,1-0.4,1.2-0.6c0.2-0.3,0.3-0.6,0.4-0.9c0.2-0.7,0.3-1.5,0.3-2.4
			c0-0.9-0.1-1.8-0.3-2.4c-0.1-0.3-0.2-0.7-0.4-0.9c-0.2-0.3-0.6-0.6-1.2-0.6h-27.1c-0.6,0-1,0.4-1.2,0.6c-0.2,0.3-0.3,0.6-0.4,0.9
			c-0.2,0.7-0.3,1.5-0.3,2.4c0,0.9,0.1,1.8,0.3,2.4c0.1,0.3,0.2,0.7,0.4,0.9C149.6,225.9,150,226.3,150.6,226.3z M403.6,226.3h23.1
			c0.6,0,1-0.4,1.2-0.6c0.2-0.3,0.3-0.6,0.4-0.9c0.2-0.7,0.3-1.5,0.3-2.4s-0.1-1.8-0.3-2.4c-0.1-0.3-0.2-0.7-0.4-0.9
			c-0.2-0.3-0.6-0.6-1.2-0.6h-23.1c-0.6,0-1,0.4-1.2,0.6c-0.2,0.3-0.3,0.6-0.4,0.9c-0.2,0.7-0.3,1.5-0.3,2.4s0.1,1.8,0.3,2.4
			c0.1,0.3,0.2,0.7,0.4,0.9C402.6,225.9,403,226.3,403.6,226.3z M356.7,344.1L356.7,344.1l-11.5-21.6v0c-0.5-0.9-0.2-2.1,0.7-2.6
			c0.9-0.6,2.1-0.2,2.6,0.7L356.7,344.1L356.7,344.1z M356.7,344.1c0.3,0.6,0.9,1,1.6,1c0.3,0,0.7-0.1,1-0.3l0,0
			c0.9-0.6,1.1-1.7,0.7-2.6l0,0l-11.5-21.6L356.7,344.1L356.7,344.1z M218.3,104.6L218.3,104.6l12.5,21.7c0.5,0.9,1.7,1.2,2.6,0.7
			c0,0,0,0,0,0l0,0c0.9-0.5,1.2-1.7,0.7-2.6v0l-12.5-21.7v0c-0.5-0.9-1.7-1.2-2.6-0.7c0,0,0,0,0,0
			C218.1,102.5,217.8,103.7,218.3,104.6L218.3,104.6z M390.7,276.8c-0.9-0.5-2.1-0.2-2.6,0.8c0,0,0,0,0,0c-0.5,0.9-0.2,2.1,0.8,2.6
			l20.6,11.4l0,0c0.3,0.2,0.6,0.2,0.9,0.2c0.7,0,1.3-0.4,1.7-1l0,0c0.5-0.9,0.2-2.1-0.8-2.6l0,0L390.7,276.8L390.7,276.8z
			 M168.8,155.1c-0.9-0.5-2.1-0.2-2.6,0.8c0,0,0,0,0,0c-0.5,0.9-0.2,2.1,0.8,2.6l22.7,12.5c0.9,0.5,2.1,0.2,2.6-0.8c0,0,0,0,0,0
			c0.5-0.9,0.2-2.1-0.8-2.6L168.8,155.1L168.8,155.1z M410,152.8c-0.5-0.9-1.7-1.2-2.6-0.7c0,0,0,0,0,0h0l-19.6,11.4
			c-0.9,0.5-1.2,1.7-0.7,2.6c0.5,0.9,1.7,1.2,2.6,0.7c0,0,0,0,0,0l0,0l19.6-11.4l-0.5-0.9l0.5,0.9
			C410.2,154.9,410.6,153.7,410,152.8L410,152.8z M410,152.8l-0.9,0.5L410,152.8z M190.6,277.8L190.6,277.8l-22.7,12.6h0
			c-0.9,0.5-1.3,1.7-0.7,2.6c0.3,0.6,1,0.9,1.6,0.9c0.3,0,0.6-0.1,0.9-0.2l0,0l22.7-12.6h0c0.9-0.5,1.3-1.7,0.7-2.6
			C192.7,277.6,191.5,277.4,190.6,277.8z M220.4,344.2L220.4,344.2c-0.5,0.9-0.2,2.1,0.8,2.6c0.3,0.2,0.6,0.2,0.9,0.2
			c0.7,0,1.3-0.4,1.7-1l0,0l12.5-23.7l0,0c0.5-0.9,0.2-2.1-0.8-2.6c-0.9-0.5-2.1-0.2-2.6,0.7c0,0,0,0,0,0.1v0L220.4,344.2
			L220.4,344.2z M342.1,121.3L342.1,121.3c-0.5,0.9-0.2,2.1,0.8,2.6c0,0,0,0,0,0c0.9,0.5,2.1,0.2,2.6-0.8l0,0l11.4-20.6l0,0
			c0.5-0.9,0.2-2.1-0.8-2.6c0,0,0,0,0,0c-0.9-0.5-2.1-0.2-2.6,0.8L342.1,121.3L342.1,121.3z"/>
		<path class="st0" d="M222,348.1c-0.5,0-1-0.1-1.4-0.4c-1.4-0.8-1.9-2.5-1.1-4l0,0l12.5-23.7c0.4-0.8,1-1.2,1.8-1.5
			c0.7-0.2,1.5-0.1,2.2,0.3c1.4,0.8,1.9,2.6,1.2,4l-12.5,23.8C224.1,347.5,223.1,348.1,222,348.1z M221.2,344.7
			c-0.2,0.5-0.1,1,0.4,1.3c0.4,0.2,1,0.1,1.2-0.4l0,0l12.5-23.6c0.2-0.5,0.1-1-0.4-1.3c-0.2-0.1-0.4-0.1-0.7-0.1
			c-0.2,0.1-0.4,0.2-0.5,0.4L221.2,344.7z M358.3,346.1c-1,0-2-0.6-2.5-1.5l-11.6-21.6c-0.7-1.4-0.3-3.1,1-3.9
			c0.7-0.4,1.5-0.5,2.2-0.3c0.8,0.2,1.4,0.7,1.8,1.4l0,0l11.5,21.6c0.7,1.4,0.3,3.1-1,3.9C359.3,345.9,358.8,346.1,358.3,346.1z
			 M357.6,343.6c0.2,0.4,0.8,0.5,1.2,0.3c0.4-0.3,0.6-0.8,0.3-1.3l-5.4-10.1L357.6,343.6z M346.8,320.5c-0.1,0-0.3,0-0.4,0.1
			c-0.4,0.3-0.6,0.8-0.3,1.3l5.4,10.1l-3.9-11.1c-0.1-0.2-0.3-0.3-0.5-0.4C346.9,320.5,346.8,320.5,346.8,320.5z M168.8,294.9
			c-1,0-2-0.5-2.5-1.4c-0.4-0.7-0.5-1.4-0.3-2.2c0.2-0.7,0.7-1.4,1.4-1.8l22.7-12.6c1.4-0.8,3.1-0.3,3.9,1c0.4,0.7,0.5,1.4,0.3,2.2
			c-0.2,0.8-0.7,1.4-1.4,1.8l-22.7,12.6C169.8,294.8,169.3,294.9,168.8,294.9z M191.1,278.7l-22.7,12.6c-0.2,0.1-0.4,0.3-0.4,0.5
			c0,0.2-0.1,0.4,0.1,0.6c0.2,0.3,0.5,0.4,0.8,0.4c0.2,0,0.3,0,0.5-0.1l22.7-12.6c0.2-0.1,0.4-0.3,0.4-0.5c0-0.2,0.1-0.4-0.1-0.6
			C192.1,278.6,191.6,278.5,191.1,278.7L191.1,278.7z M410.4,292.9c-0.5,0-1-0.1-1.4-0.4l-20.6-11.4c-1.4-0.8-1.9-2.6-1.2-4
			c0.4-0.7,1-1.2,1.8-1.4c0.8-0.2,1.5-0.1,2.2,0.2l0,0l20.8,11.5c1.3,0.8,1.7,2.4,1.1,3.8l-0.1,0.1
			C412.5,292.3,411.5,292.9,410.4,292.9z M389.8,277.6c-0.1,0-0.2,0-0.3,0c-0.2,0.1-0.4,0.2-0.5,0.4c-0.3,0.5-0.1,1,0.4,1.3
			l20.6,11.4c0.5,0.3,1,0.1,1.2-0.3l0,0c0.2-0.5,0.1-1-0.4-1.3l-20.6-11.4C390.1,277.6,389.9,277.6,389.8,277.6z M426.7,227.3h-23.1
			c-0.8,0-1.5-0.4-2-1c-0.2-0.3-0.4-0.7-0.6-1.2c-0.2-0.8-0.4-1.7-0.4-2.7s0.1-2,0.4-2.7c0.2-0.5,0.3-0.9,0.6-1.2c0.5-0.7,1.2-1,2-1
			h23.1c0.8,0,1.5,0.4,2,1c0.2,0.3,0.4,0.8,0.6,1.2c0.2,0.8,0.4,1.7,0.4,2.7s-0.1,2-0.4,2.7c-0.1,0.5-0.3,0.9-0.6,1.2
			C428.2,227,427.5,227.3,426.7,227.3z M403.6,219.3c-0.1,0-0.2,0.1-0.4,0.2c-0.1,0.1-0.2,0.4-0.3,0.6c-0.2,0.6-0.3,1.3-0.3,2.1
			s0.1,1.6,0.3,2.1c0.1,0.3,0.2,0.5,0.3,0.6c0.1,0.2,0.2,0.2,0.4,0.2h23.1c0.1,0,0.2-0.1,0.4-0.2c0.1-0.1,0.2-0.4,0.3-0.6
			c0.2-0.6,0.3-1.3,0.3-2.1s-0.1-1.6-0.3-2.1c-0.1-0.3-0.2-0.5-0.3-0.6c-0.1-0.2-0.2-0.2-0.4-0.2H403.6z M177.7,227.3h-27.1
			c-0.8,0-1.5-0.4-2-1c-0.3-0.3-0.4-0.7-0.6-1.2c-0.2-0.8-0.4-1.7-0.4-2.7s0.1-2,0.4-2.7c0.2-0.5,0.4-0.9,0.6-1.2c0.5-0.7,1.2-1,2-1
			h27.1c0.8,0,1.5,0.4,2,1c0.3,0.3,0.4,0.7,0.6,1.2c0.2,0.8,0.4,1.7,0.4,2.7c0,1-0.1,2-0.4,2.7c-0.2,0.5-0.4,0.9-0.6,1.2
			C179.2,227,178.5,227.3,177.7,227.3z M150.6,219.3c-0.1,0-0.3,0.1-0.4,0.2c-0.1,0.1-0.2,0.4-0.3,0.6c-0.2,0.6-0.3,1.3-0.3,2.1
			s0.1,1.6,0.3,2.1c0.1,0.3,0.2,0.5,0.3,0.6c0.1,0.2,0.2,0.2,0.4,0.2h27.1c0.1,0,0.3-0.1,0.4-0.2c0.1-0.1,0.2-0.4,0.3-0.6
			c0.2-0.6,0.3-1.3,0.3-2.1s-0.1-1.6-0.3-2.1c-0.1-0.3-0.2-0.5-0.3-0.6c-0.1-0.2-0.2-0.2-0.4-0.2H150.6z M190.6,172.2
			c-0.5,0-1-0.1-1.4-0.4l-22.7-12.5c-1.4-0.8-1.9-2.5-1.2-4c0.8-1.4,2.6-1.9,4-1.2l0,0l22.7,12.5c1.4,0.8,1.9,2.5,1.2,4
			c-0.4,0.7-1,1.2-1.8,1.4C191.1,172.2,190.8,172.2,190.6,172.2z M167.8,155.9c-0.3,0-0.6,0.2-0.8,0.5c-0.2,0.4-0.1,1,0.4,1.3
			l22.7,12.5c0.2,0.1,0.5,0.1,0.7,0.1c0.2-0.1,0.4-0.2,0.5-0.4c0.2-0.5,0.1-1-0.4-1.3L168.3,156C168.1,155.9,168,155.9,167.8,155.9z
			 M388.7,168.1c-1,0-2-0.5-2.5-1.5c-0.8-1.4-0.3-3.2,1.1-4l19.6-11.4c0.7-0.4,1.5-0.5,2.2-0.3c0.7,0.2,1.4,0.7,1.8,1.4l0,0
			c0.6,1.1,0.5,2.4-0.3,3.3l0.1,0.2l-0.8,0.5c0,0,0,0,0,0l-0.9,0.5l0,0l-18.8,10.9C389.7,168,389.2,168.1,388.7,168.1z M408.4,152.8
			c-0.2,0-0.3,0-0.4,0.1l-19.6,11.4c-0.4,0.3-0.6,0.8-0.3,1.3c0.2,0.4,0.8,0.6,1.2,0.3l19.7-11.5c0.4-0.3,0.6-0.8,0.3-1.3l0,0
			c-0.1-0.2-0.3-0.4-0.5-0.4C408.5,152.8,408.4,152.8,408.4,152.8z M232.5,128.2c-0.3,0-0.5,0-0.8-0.1c-0.8-0.2-1.4-0.7-1.8-1.4
			l-12.5-21.7l0,0c-0.8-1.4-0.3-3.2,1.1-4c0.7-0.4,1.5-0.5,2.2-0.3c0.8,0.2,1.4,0.7,1.8,1.4l12.5,21.7c0.8,1.4,0.4,3.1-0.9,3.9
			l-0.1,0.1l-0.1,0C233.4,128.1,233,128.2,232.5,128.2z M220,102.7c-0.2,0-0.3,0-0.5,0.1c-0.4,0.3-0.6,0.8-0.3,1.3l0,0l12.5,21.7
			c0.1,0.2,0.3,0.4,0.6,0.4c0.2,0.1,0.4,0,0.6,0l0.2-0.1c0.4-0.2,0.5-0.8,0.3-1.2l-12.5-21.7c-0.1-0.2-0.3-0.4-0.6-0.4
			C220.2,102.7,220.1,102.7,220,102.7z M343.7,125.2c-0.5,0-0.9-0.1-1.4-0.4c-1.4-0.8-2-2.6-1.2-4v0l11.4-20.6
			c0.8-1.4,2.6-1.9,4-1.2c1.4,0.8,2,2.6,1.2,4l-11.4,20.6C345.8,124.6,344.8,125.2,343.7,125.2z M342.9,121.8
			c-0.2,0.4-0.1,1,0.4,1.3c0.5,0.3,1,0.1,1.3-0.4L356,102c0.1-0.2,0.1-0.5,0.1-0.7c-0.1-0.2-0.2-0.4-0.4-0.6c-0.5-0.3-1-0.1-1.3,0.4
			L342.9,121.8z"/>
	</g>
	<path class="st0" d="M316.6,217.3h70c2.3,0,4.1,2.5,4.1,5.5l0,0c0,3-1.8,5.5-4.1,5.5h-70c-2.3,0-4.1-2.5-4.1-5.5l0,0
		C312.5,219.8,314.4,217.3,316.6,217.3z"/>
	<path class="st0" d="M282.1,252.4l-20.9,35.3c-1.8,3-5.7,4-8.8,2.3h0c-3.1-1.7-4.1-5.6-2.4-8.6l20.9-35.3c1.8-3,5.7-4,8.8-2.3l0,0
		C282.8,245.6,283.8,249.4,282.1,252.4z"/>
	<path class="st0" d="M299.7,233.4c5.5-5.5,5.5-14.5,0-20.1c-5.5-5.5-14.5-5.5-20.1,0c-5.5,5.5-5.5,14.5,0,20.1
		C285.1,239,294.1,239,299.7,233.4z"/>
	<ellipse class="st0" cx="94.2" cy="298.3" rx="11.5" ry="11"/>
	<ellipse class="st0" cx="210.7" cy="426.8" rx="13" ry="13.5"/>
	<ellipse class="st0" cx="486.2" cy="353.3" rx="15.5" ry="15"/>
	<circle class="st0" cx="507.2" cy="169.8" r="5.5"/>
	<circle class="st0" cx="109.2" cy="103.8" r="10.5"/>
	<ellipse class="st1" cx="107.2" cy="394.3" rx="10.5" ry="10"/>
	<ellipse class="st1" cx="549.7" cy="263.3" rx="11" ry="10"/>
	<circle class="st1" cx="438.2" cy="403.8" r="3.5"/>
	<circle class="st1" cx="170.7" cy="50.3" r="5"/>
	<circle class="st1" cx="489.9" cy="226.3" r="4.9"/>
	<circle class="st1" cx="484.2" cy="115.8" r="6.5"/>
	<ellipse class="st1" cx="86.7" cy="231.3" rx="5" ry="4"/>
	<circle class="st1" cx="297" cy="15" r="10.2"/>
	<path class="st1" d="M14.7,229.3h-0.1c-0.8,11-8.9,11.1-8.9,11.1s9,0.2,9,12.9c0-12.7,9-12.9,9-12.9S15.5,240.3,14.7,229.3z
		 M444.3,56.3h-0.2c-1.3,19.2-15.4,19.5-15.4,19.5s15.5,0.3,15.5,22.5c0-22.2,15.5-22.5,15.5-22.5S445.6,75.5,444.3,56.3z"/>
</g>
</svg>
