<?xml version="1.0" encoding="utf-8"?>
<!-- Generator: Adobe Illustrator 24.3.0, SVG Export Plug-In . SVG Version: 6.00 Build 0)  -->
<svg version="1.1" id="Layer_1" xmlns="http://www.w3.org/2000/svg" xmlns:xlink="http://www.w3.org/1999/xlink" x="0px" y="0px"
	 viewBox="0 0 495 371.6" style="enable-background:new 0 0 495 371.6;" xml:space="preserve">
<style type="text/css">
	.st0{fill:none;stroke:#E1E4E5;stroke-width:4;}
	.st1{fill:#E1E4E5;}
	.st2{fill-rule:evenodd;clip-rule:evenodd;fill:#22AD9A;}
	.st3{fill:none;stroke:#22AD9A;stroke-width:16.682;stroke-linecap:round;stroke-linejoin:round;}
	.st4{fill:#22AD9A;}
</style>
<g>
	<path class="st0" d="M37.6,13.9h418c15.5,0,28,12.5,28,28v261.6c0,15.5-12.5,28-28,28h-418c-15.5,0-28-12.5-28-28V41.9
		C9.6,26.5,22.1,13.9,37.6,13.9z"/>
	<path class="st0" d="M9.6,42.3c0-15.5,12.5-28,28-28h418c15.5,0,28,12.5,28,28v18H9.6V42.3z"/>
	<circle class="st1" cx="46.3" cy="39.3" r="7"/>
	<circle class="st1" cx="70.5" cy="39.3" r="7"/>
	<circle class="st1" cx="94.7" cy="39.3" r="7"/>
	<path class="st2" d="M413.7,312.6c-7.1-6.7-38-36.5-38-36.5c-4.3-4.1-11.3-4.1-15.6,0c-4.3,4.1-4.3,24.9,0,29"/>
	<path class="st3" d="M413.7,312.6c-7.1-6.7-38-36.5-38-36.5c-4.3-4.1-11.3-4.1-15.6,0c-4.3,4.1-4.3,24.9,0,29"/>
	<path class="st2" d="M380.9,281c-4.1-4-4.1-10.6-0.1-14.7c0,0,0.1-0.1,0.1-0.1c4.1-4.1,10.8-4.1,14.9,0l5.5,24.1"/>
	<path class="st3" d="M380.9,281c-4.1-4-4.1-10.6-0.1-14.7c0,0,0.1-0.1,0.1-0.1c4.1-4.1,10.8-4.1,14.9,0l5.5,24.1"/>
	<path class="st2" d="M378.7,304.5l-44.1-43.9c-4.3-4.3-11.3-4.3-15.6,0c-4.3,4.3-4.3,11.2,0,15.5l54.5,54.2H354
		c-6.4,0-11.6,5.2-11.6,11.5c0,5.3,3.8,9.9,9,10.9l41.2,8.2c17.2,3.4,35-1.9,47.5-14.3c20.5-20.4,20.5-53.6,0-74l-14.7-14.6
		l-7.8-7.7c-4.3-4.3-11.3-4.3-15.6,0c-4.3,4.3-4.3,11.2,0,15.5"/>
	<path class="st4" d="M293.9,280.4h-10.3c-4.6,0-8.3-3.7-8.3-8.3s3.7-8.3,8.3-8.3h10.3c4.6,0,8.3,3.7,8.3,8.3
		S298.5,280.4,293.9,280.4z M303.4,252.4c-2.1,0-4.3-0.8-5.9-2.4l-7.3-7.3c-3.3-3.3-3.3-8.5,0-11.8c3.3-3.3,8.5-3.3,11.8,0l7.3,7.3
		c3.3,3.3,3.3,8.5,0,11.8C307.7,251.6,305.6,252.4,303.4,252.4z M330.4,244.7c-4.6,0-8.3-3.7-8.3-8.3v-11.1c0-4.6,3.7-8.3,8.3-8.3
		s8.3,3.7,8.3,8.3v11.1C338.7,241,335,244.7,330.4,244.7z"/>
	<path class="st2" d="M115.1,218.3c-34,0-61.5,27.6-61.5,61.5c0,34,27.6,61.5,61.5,61.5c34,0,61.5-27.6,61.5-61.5
		C176.7,245.8,149.1,218.3,115.1,218.3z M129.4,270.4c2.8,0,5.1,2.3,5.1,5.1s-2.3,5.1-5.1,5.1h-13.9v27.1c0,2.8-2.3,5.1-5.1,5.1
		s-5.1-2.3-5.1-5.1v-27.1h-4.4c-2.8,0-5.1-2.3-5.1-5.1s2.3-5.1,5.1-5.1h4.4v-4.6c0-10.6,8.6-19.2,19.2-19.2h5c2.8,0,5.1,2.3,5.1,5.1
		s-2.3,5.1-5.1,5.1h-5c-4.9,0-8.9,4-8.9,8.9v4.6H129.4z"/>
	<path class="st2" d="M212.5,54.3c-41.4,0-74.9,33.5-74.9,74.9c0,41.4,33.5,74.9,74.9,74.9c41.4,0,74.9-33.5,74.9-74.9
		C287.4,87.8,253.8,54.3,212.5,54.3z M252.2,119.7c0,31.5-18,53.9-49.4,53.9c-18,0-25.2-9.4-31.5-18c0.1,0,13.5-4.5,13.5-4.5
		c-15-15.2-16.2-37.7-4.5-53.9c5.5,10.3,15.9,19.8,27,22.5c0.4-13,9.2-22.5,22.5-22.5c9,0,14.3,3.4,18,9h13.5L252.2,119.7z"/>
	<g>
		<path class="st2" d="M401.9,72.2c-29.8,0-54,24.2-54,54c0,29.8,24.2,54,54,54c29.8,0,54-24.2,54-54
			C455.9,96.3,431.7,72.2,401.9,72.2z M393.1,126c0,1-0.1,1.9-0.4,2.8l15.2,7.6c0.3-0.4,0.6-0.7,0.9-1c1.9-1.9,4.5-3,7.3-3
			c0,0,0,0,0,0c2.7,0,5.3,1.1,7.3,3c0,0,0,0,0,0c1.9,1.9,3,4.5,3,7.3c0,2.7-1.1,5.3-3,7.3c-1.9,1.9-4.5,3-7.3,3c0,0,0,0,0,0
			c-2.7,0-5.3-1.1-7.3-3c-1.9-1.9-3-4.5-3-7.3c0-0.9,0.1-1.9,0.4-2.8l-15.3-7.6c-0.3,0.3-0.6,0.7-0.9,1c-1.9,1.9-4.5,3-7.3,3
			s-5.3-1.1-7.3-3c-1.9-1.9-3-4.5-3-7.3c0-2.7,1.1-5.3,3-7.3c1.9-1.9,4.5-3,7.3-3s5.3,1.1,7.3,3c0.3,0.3,0.6,0.7,0.9,1l15.3-7.6
			c-0.2-0.9-0.4-1.8-0.4-2.8c0-2.7,1.1-5.3,3-7.3c1.9-1.9,4.5-3,7.3-3c2.7,0,5.3,1.1,7.3,3c1.9,1.9,3,4.5,3,7.3s-1.1,5.3-3,7.3
			c-1.9,1.9-4.5,3-7.3,3c-2.7,0-5.3-1.1-7.3-3c-0.3-0.3-0.6-0.7-0.9-1l-15.3,7.6C393,124.1,393.1,125,393.1,126z"/>
	</g>
</g>
</svg>
